<svg transform="scale(1)" version="1.1" id="Layer_1" xmlns="http://www.w3.org/2000/svg" xmlns:xlink="http://www.w3.org/1999/xlink" x="0px" y="0px" viewBox="0 0 500 500" xml:space="preserve" class="show_show__wrapper__graphic__5Waiy "><title>React</title><style type="text/css">
	.st0{fill:#FFFFFF;}
	.st1{fill:#000005;}
	.st2{fill:#7d97e9;}
	.st3{opacity:0.13;}
</style><g id="device"><polygon class="st0" points="296.6,327.9 204.1,327.9 196.6,379 304.1,379  "/><path class="st1" d="M297,326.1h-81.1c-3.7,0-7.5-0.1-11.2,0h-0.2c-1,0-2.7,0.5-2.8,1.7l-2.6,17.3l-4,27.5l-0.9,6.4   c-0.2,1.2,1.1,1.8,2.1,1.8h94.3c4.3,0,8.7,0.1,13,0h0.2c1.1,0,3.1-0.7,2.8-2.2l-2.5-17.3l-4-27.5l-0.9-6.4   c-0.3-2.3-5.3-1.5-4.9,0.8l2.5,17.3l4,27.5l0.9,6.4l2.8-2.2H201.4c-1.4-0.1-2.8-0.1-4.2,0H197l2.1,1.8l2.6-17.3l4-27.5l0.9-6.4   l-2.8,1.7h81.1c3.8,0,7.5,0.1,11.2,0h0.2c1.1,0,2.6-0.5,2.8-1.7S298,326.1,297,326.1z"/><path class="st0" d="M82.4,64.1h335.3c7.9,0,14.3,6.4,14.3,14.3v236c0,7.9-6.4,14.3-14.3,14.3H82.4c-7.9,0-14.3-6.4-14.3-14.3v-236   C68,70.5,74.4,64.1,82.4,64.1z"/><path class="st1" d="M84.4,65.4H417c0.9,0,1.7,0,2.6,0c2.6,0,4.9,0.5,6.7,2.5c2.3,2.6,3.5,5.9,3.5,9.3c0.1,3.8,0,7.5,0,11.3v213.2   c0,3.8,0,7.6,0,11.4c0,7.9-6.3,14.3-14.2,14.4H88.8c-2.8,0-5.6,0-8.3,0c-3,0-5.4-0.8-7.3-3.2c-1.9-2.5-2.9-5.5-2.9-8.6   c0-1.2,0-2.4,0-3.5v-229c0-1.1,0-2.2,0-3.3C70.2,71.9,76.5,65.5,84.4,65.4c0.6,0-1.1-1.4-1.2-1.4c-0.8-0.7-1.8-1.1-2.8-1.3   c-8,0.1-14.4,6.5-14.5,14.5c0,1.2,0,2.4,0,3.6v229.8c0,0.9,0,1.9,0,2.8c0.2,9.3,9.6,16.6,18.5,16.7c2.5,0,5,0,7.4,0h326.1   c0.9,0,1.8,0,2.7,0c7.6-0.6,13.5-6.9,13.5-14.5c0-4,0-8.1,0-12.1V89.2c0-3.5,0.2-7.1,0-10.6c-0.6-8.9-9.9-15.8-18.5-15.9H80.3   c-0.6,0,1.1,1.4,1.2,1.4C82.4,64.8,83.3,65.3,84.4,65.4z"/><path class="st1" d="M82.3,61.1h335.3c7.9,0,14.3,6.4,14.4,14.3c0,0,0,0,0,0v197.7H68V75.4C68,67.5,74.4,61.1,82.3,61.1   C82.3,61.1,82.3,61.1,82.3,61.1z"/><path class="st1" d="M83.4,62h335.1c6.1,0.1,10.5,6.2,10.9,11.9c0.2,3.4,0,6.9,0,10.3v188.4l1.4-0.4H81.7c-4.7,0-9.4-0.1-14.2,0   h-0.6l3.5,1.4V79c0-4.9,0.4-9.5,4.2-13.2C77,63.5,80.2,62.1,83.4,62c0.7,0,1.7,0,1.1-0.8s-2.5-1-3.3-1c-6.7,0-13,3.9-15,10.4   c-0.5,1.7-0.7,3.5-0.7,5.3v187.8c-0.2,2.9-0.2,5.7,0,8.6c0,0.1,0,0.3,0,0.4c0,1.1,2.8,1.4,3.5,1.4h364c0.2,0,1.4,0,1.4-0.4V77.7   c0.1-2.1-0.1-4.1-0.6-6.1c-2.2-7.4-9.9-11.3-17.3-11.4c-2.4,0-4.7,0-7,0H81.3c-0.7,0-1.7,0-1.1,0.8S82.7,62,83.4,62z"/><ellipse class="st0" transform="matrix(0.1602 -0.9871 0.9871 0.1602 -87.2164 500.2695)" cx="250.4" cy="301.4" rx="7.4" ry="7.4"/><path class="st1" d="M251,295.1c-0.8,0,0.9,0.2,0.1,0c0.1,0,0.7,0.2,0.2,0l0.4,0.1c0,0,0.6,0.3,0.2,0.1l0.3,0.2   c0.3,0.1,0.5,0.3,0.8,0.5c1,0.8,1.7,1.9,2.1,3.1c0.8,2.6,0,5.4-2,7.2c-0.4,0.4-0.9,0.7-1.4,0.9c-0.3,0.1-0.6,0.2-0.9,0.3   c-0.1,0-0.4,0.1-0.1,0c-0.1,0-0.8,0.1-0.5,0.1s-0.3,0-0.3,0c0.5,0,0.2,0,0,0s-0.8-0.1-0.1,0l-0.4-0.1c0.5,0.1-0.4-0.1-0.5-0.2   c0.4,0.2-0.2-0.1-0.2-0.1s-0.3-0.2-0.5-0.3c-3-2.2-3.6-6.4-1.4-9.4c0.7-0.9,1.6-1.6,2.6-2.1l0.5-0.2c0.1,0,0.7-0.2,0.3-0.1l0.4-0.1   c0.3,0,0.3,0,0,0L251,295.1c0.6,0,2.3-0.3,1.9-1.2s-2.2-1.1-3-1.1c-3.8,0-7.4,2-8.9,5.6c-1.2,3.4,0,7.1,2.9,9.2   c3.6,2.6,8.3,2.9,12.3,0.9c3.1-1.7,4.8-5.3,4-8.8c-1-4.7-5.8-6.9-10.2-7c-0.6,0-2.3,0.2-1.9,1.2S250.1,295.1,251,295.1z"/><rect class="st0" x="82.3" y="76.1" width="334.7" height="182.8"/><path class="st1" d="M82.2,78.2h321.1c4.3,0,8.7,0.2,13,0h0.6l-2.4-2.2v175.2c-0.1,2.4-0.1,4.8,0,7.2c0,0.1,0,0.2,0,0.3l2.6-2H96   c-4.3,0-8.7-0.2-13,0c-0.2,0-0.4,0-0.6,0l2.4,2.3V98.8c0-7.4,0.2-14.8,0-22.2v-0.3c0-2.7-5-3-5-0.2v160.2c0,7.4-0.2,14.8,0,22.2   v0.3c0.1,1.3,1.1,2.3,2.4,2.3h321.1c4.3,0,8.7,0,13,0h0.6c1.1,0,2.6-0.6,2.6-2V98.8c0-7.4,0.2-14.8,0-22.2v-0.3   c-0.1-1.3-1.1-2.3-2.4-2.2H96c-4.3,0-8.7,0-13,0h-0.6C79.3,74,79,78.2,82.2,78.2z"/><path class="st2" d="M305,128c0.4,1.7,0.6,3.5,0.5,5.2c-0.5,9.7-19.1,20-27.4,4.4s8.8-21.4,8.8-21.4c1.5-0.4,3-0.5,4.5-0.5l0.3-6.8   c-2.2-0.1-4.4,0.2-6.5,0.7c0,0-24.8,8.5-12.8,31.2s39.1,7.8,39.8-6.4c0.1-2.6-0.1-5.1-0.7-7.6L305,128z"/><path class="st2" d="M302.6,128.5c0.5,1.8,0.6,3.7,0.4,5.5c-0.1,0.9-0.4,1.7-0.8,2.5c-0.9,1.7-2.2,3.2-3.8,4.4   c-1.6,1.3-3.5,2.1-5.5,2.6c-1.9,0.5-3.9,0.4-5.8-0.3c-5.1-1.9-8.4-7.8-8.8-13c-0.2-2,0.3-4.1,1.3-5.9c0.4-0.8,0.9-1.5,1.5-2.1   c0.3-0.3,0.6-0.6,0.9-0.9s-0.1,0,0.2-0.2l0.6-0.5c0.7-0.5,1.5-1.1,2.2-1.5l0.2-0.1c0.5-0.3-0.4,0.2-0.1,0l0.5-0.3l0.8-0.4   c0.4-0.2,0.8-0.3,1.1-0.5c0.1,0,0.3-0.1,0.1,0c1.1-0.2,2.2-0.3,3.2-0.3c1,0,2.7-0.7,2.8-1.9l0.3-6.8c0.1-1.2-1-1.9-2.2-1.9   c-3.1-0.1-6.2,0.4-9.1,1.5c-2.1,0.9-4.1,2-6,3.4c-5.5,3.8-9.9,9.6-10.1,16.5c0,4.9,1.3,9.6,3.7,13.8c2.2,4.2,5.6,7.7,9.8,9.9   c7.4,3.8,16.3,2.3,23.3-1.9c3.7-2.2,6.7-5.2,8.9-8.9c2.7-4.6,2.7-10,1.6-15.1c-0.3-1.2-1.8-1.5-2.8-1.3l-6.5,1.2   C303.7,126.3,302.4,127.3,302.6,128.5c0.3,1.2,1.8,1.5,2.9,1.3l6.5-1.2l-2.8-1.3c0.9,4.2,1.1,8.5-0.8,12.2   c-1.4,2.6-3.4,4.9-5.7,6.6c-0.6,0.5-1.3,1-2,1.4c-0.7,0.4-1.4,0.8-2.1,1.1c-1.4,0.7-3,1.2-4.5,1.6c-3,0.7-6.1,0.5-9-0.5   c-3.6-1.4-6.7-3.9-8.8-7.2c-2.6-3.7-4.2-7.9-4.6-12.4c-0.3-3.1,0.4-6.2,2-8.9c0.7-1.2,1.5-2.3,2.4-3.3c0.5-0.5,0.9-1,1.4-1.4   l0.3-0.3c-0.4,0.3,0.1-0.1,0.1-0.1c0.3-0.2,0.5-0.4,0.8-0.7c1.1-0.8,2.2-1.6,3.4-2.3l0.3-0.2c0.5-0.3,0,0,0,0s0.5-0.2,0.7-0.4   c0.4-0.2,0.9-0.4,1.3-0.6s1.1-0.5,1.6-0.7s-0.6,0.1,0.5-0.1c1.6-0.3,3.3-0.4,4.9-0.4l-2.2-1.9l-0.3,6.8l2.8-1.9   c-4-0.1-7.8,1.2-11,3.6c-4,2.8-7.1,7-7.2,12c-0.1,6.5,3.8,13.6,9.6,16.6c5.4,2.8,11.9,1.6,16.9-1.4c2.6-1.6,4.8-3.7,6.4-6.3   c2-3.3,2-7.1,1.2-10.8C307,125.1,302.1,126,302.6,128.5z"/><path class="st1" d="M305,128l6.5-1.2c-2.2-9.5-9.3-17.6-19.9-17.9l-0.3,6.8C298.6,115.9,303.5,121.5,305,128z"/><path class="st1" d="M305.9,130.1l6.5-1.2c0.8-0.1,1.4-0.9,1.3-1.7c0,0,0-0.1,0-0.1c-2.5-10.7-10.9-20-22.4-20.4   c-0.8,0-1.8,0.3-1.8,1.3l-0.3,6.8c0,1.5,1.1,2.7,2.5,3c1.5,0,2.9,0.3,4.2,0.9c0.6,0.2,1.2,0.5,1.7,0.9c0.5,0.3,1,0.7,1.4,1.2   c1,0.9,1.8,2,2.4,3.2c0.1,0.2,0.5,1.2,0.7,1.7c0.3,0.7,0.5,1.4,0.6,2.1c0.3,1.3,1.2,2.2,2.5,2.5c0.8,0.2,1.6-0.4,1.8-1.2   c0-0.2,0-0.4,0-0.7c-1.8-7.7-7.9-14.4-16.2-14.8l2.5,3l0.3-6.8L292,111c2.3,0,4.5,0.5,6.6,1.4c1.8,0.8,3.5,1.9,4.9,3.3   c1.5,1.4,2.8,3.1,3.8,5c0.9,1.8,1.7,3.8,2.1,5.8l1.3-1.8l-6.5,1.2C301.3,126.3,303.7,130.6,305.9,130.1z"/><path class="st1" d="M330.8,126.2c-1.9,0.5-3.4,2-3.8,4c-0.4,2.4,0.4,4.9,2.2,6.6c1.7,1.9,4.1,3,6.6,3c2.2,0,4.9-1.2,5.5-3.5   c0.6-2.5-2.1-6.1-4.7-6.3c-2.4-0.1-2.4,2.6-1.8,4.2c1,2.7,3.4,4.6,6.2,5.1c2.5,0.2,5-0.5,7.1-1.9c4-2.4,8.3-7.3,7-12.4   c-0.6-2.3-3.3-5.8-6.1-5.1c-2.4,0.6-2.4,4-2.6,6c-0.4,5.7,3.1,10.8,8.5,12.6c3.9,1.3,9.8,1.1,12.1-2.8c1.6-2.7-0.4-6.9-3.4-7.7   c-1.1-0.3-2.3,0.1-2.9,1.1c-0.6,1.2-0.6,2.6,0.1,3.8c2.5,5.4,10.3,7.4,14.4,2.8c1.1-1.2-2.3-4.8-3.2-3.8c-1.9,2.1-4.9,2.9-7.5,2   l-0.5-0.3c-1.1-0.6,0.4,0.1,0,0.2c-0.1,0,0-0.8,0.1-0.9c0.1-0.3,0.3-0.5,0.6-0.7c0.3-0.2,0.6-0.1,0.8-0.3l-1.5-1.5   c0,0.2,0,0.4,0,0.6c-0.1,0.7-0.4,1.3-0.8,1.8c-1.8,2.1-5,2.7-7.6,2.4c-2-0.2-4.6-0.9-5.2-3c-0.4-1.6-0.4-3.3-0.1-4.9   c0.1-0.7,0.2-1.4,0.4-2c0.3-0.9,0.7-1,1.4-1.4h0.3c-0.7-1.1-0.9-1.4-0.8-0.8c0,0.3,0.1,0.6,0.1,0.9c0,0.8-0.2,1.5-0.4,2.2   c-0.5,1.6-1.4,3-2.6,4.2c-2,2.3-4.7,4-7.7,4.7c-0.6,0.1-1.2,0.2-1.8,0.1c-0.3,0-0.7-0.1-1-0.2c-0.1-0.1-0.6-0.3-0.7-0.3l0.5,0.6   c0.2,0.4,0.2,0.4,0.1,0c0-0.2,0-0.3,0-0.5c0-0.2,0.1-0.4,0.3-0.6c0.1-0.1,0.2-0.2,0.4-0.2c0.9-0.1,0.6-0.5-0.9-1.4   c-0.2,0.2-0.2,0.8-0.4,1.1c-0.2,0.3-0.5,0.6-0.8,0.8c-0.7,0.5-1.4,0.9-2.2,1.1c-0.8,0.2-1.5,0.2-2.3,0.1c-0.4-0.1-1.4-0.2-1.6-0.6   c-0.1-0.8-0.1-1.6,0.2-2.3c0.4-1.3,1.4-2.2,2.7-2.6C335,129.9,332.2,125.8,330.8,126.2L330.8,126.2z"/><path class="st2" d="M277.9,211.4c-8.3-15.6,8.8-21.4,8.8-21.4c1.5-0.4,3-0.5,4.5-0.5l0.3-6.8c-2.2-0.1-4.4,0.2-6.5,0.7   c0,0-24.8,8.5-12.8,31.2c7.6,14.3,21.1,13.7,30.3,7.7l-4.8-4.9C291.4,220.8,282.8,220.7,277.9,211.4z"/><path class="st2" d="M278.3,211.1c-2.2-4.1-1.8-9.1,1-12.9c2-2.5,4.6-4.5,7.5-5.7c1.8-0.7,3.6-1,5.5-0.9l0.1-0.1l0.3-6.8   c-0.1-0.9-0.5-1.8-1-2.6c-0.2-0.4-0.8-1.7-1.4-1.7c-3.7-0.1-7.3,0.8-10.4,2.6c-3.8,2-7.1,4.9-9.4,8.5c-3.1,5.1-3.2,10.9-1.4,16.5   c1.4,4.3,3.5,8.4,6.2,12c2.1,3,5,5.3,8.3,6.9c6.6,2.9,14.3,1.4,20.2-2.4c0.7-0.4-1.7-3.8-2-4.2l-4.8-4.9c-0.1-0.1-0.2-0.2-0.4-0.2   c-2.9,1.7-6.3,2.4-9.6,2C283.3,216.5,280.1,214.4,278.3,211.1c-0.1-0.2-1.1-2.2-1.5-1.9s0.7,2.3,0.8,2.4c2.3,4.2,5.5,8.3,10.3,9.6   c3.8,0.9,7.8,0.3,11.1-1.7l-0.4-0.2l4.8,4.9l-2-4.2c-4.9,3.1-11,4.9-16.8,3.5c-6.4-1.6-11.5-6.5-13.4-12.9c-1.7-5-1-10.5,1.8-15   c2.3-3.3,5.3-6.1,8.9-8c1.2-0.7,2.4-1.3,3.7-1.8c2.3-0.8,4.8-1.2,7.2-1l-2.5-4.2l-0.1,3l-0.1,2.1c0,0.3,0.1,1.2-0.1,1.5   c-0.4,0-0.8,0-1.2,0c-0.6,0-1.2,0.1-1.8,0.2c-0.5,0.1-1,0.2-1.5,0.3c-0.5,0.2-0.9,0.4-1.4,0.6c-4.3,2-8.2,5.5-9.3,10.3   c-1,4.5,0.8,9,2.9,12.9c0.1,0.3,1.2,2.2,1.6,2S278.4,211.3,278.3,211.1z"/><path class="st1" d="M311.3,200.5c-2.2-9.5-9.3-17.6-19.9-17.9l-0.3,6.8c7.3,0.2,12.2,5.8,13.7,12.3c0.4,1.7,0.6,3.5,0.5,5.2   c-0.2,3.9-3.4,7.9-7.6,10.3l4.8,4.9c5.4-3.5,9.3-8.8,9.5-14.1C312.1,205.6,311.9,203,311.3,200.5z"/><path class="st1" d="M313.6,199.6c-2.3-9.8-9.9-17.7-20.4-18.1c-1,0-4.1,0.7-4.2,2l-0.3,6.8c0.1,0.2,0.3,0.2,0.5,0.2   c5.9,0.2,10.5,4.3,12.5,9.7c1.1,3,1.8,6.7,0.8,9.8c-1.1,3-3.4,5.6-6.2,7.1c-0.1,0.1-1.2,0.7-0.9,1l4.8,4.9c0.8,0.8,3-0.3,3.7-0.8   c3.8-2.3,6.8-5.6,9-9.5C314.9,208.6,314.6,203.9,313.6,199.6c-0.2-0.9-4.9,0.5-4.6,1.7c0.9,4,1.2,8.3-0.5,12.2   c-1.6,3.5-4.2,6.4-7.4,8.5l3.7-0.8l-4.8-4.9l-0.9,1c3.3-1.7,6-4.5,7.6-7.8c1.5-3.3,1-7.3-0.1-10.6c-2-6-7.1-10.5-13.6-10.7l0.5,0.2   l0.3-6.8l-4.2,2c10.1,0.4,17.2,8.3,19.5,17.7C309.2,202.3,313.9,200.8,313.6,199.6z"/><path class="st1" d="M329.9,214.4c0.7-5.8,5.2-10.4,9.5-14.1c1.9-1.6,4.8-3.9,7.4-2.6c2.4,1.1,3.1,4.1,2.8,6.5   c-0.3,1.5-0.8,2.9-1.6,4.2c-0.4,0.6-1.2,2.3-2.1,2.2s-0.3-1,0-1.4c0.7-0.8,1.5-1.5,2.5-1.9c2-0.9,4.2-1.1,6.4-0.6   c0.9,0.2,1.8,0.6,2.6,1.2c0.4,0.3,0.8,0.7,1.1,1.1c0.1,0.2,0.4,0.8,0.5,0.9c0,0,2-0.5,1.9-0.5c0.1-0.1,0.1-1,0.2-1.3   c0.2-0.5,0.4-0.9,0.8-1.3c0.8-0.9,1.9-1.6,3.1-1.8c3-0.5,5.9,1.6,7.4,4.1s5.9-0.1,4.3-2.6c-2.4-3.9-7-6.8-11.7-6.1   c-4.4,0.6-8.7,4.2-9,8.9c-0.1,2.4,1.4,4.7,4,4.5c3.1-0.2,4.5-3.7,3.3-6.3c-1.7-3.8-6.1-5.6-10.1-5.8s-8.4,1.4-11,4.5   c-1.5,1.9-2.5,4.6-1,6.8c1.5,1.9,4,2.6,6.3,1.7c2.4-0.9,4-3.1,5.2-5.4c1.3-2.3,1.9-5,1.8-7.7c-0.3-4.6-3.6-8.8-8.5-9   c-5.4-0.2-10.2,4.4-13.7,8.1c-3.7,3.9-6.6,8.4-7.2,13.8c0,1.2,1,2.2,2.2,2.2c0.1,0,0.1,0,0.2,0   C328.7,216.8,329.8,215.7,329.9,214.4L329.9,214.4z"/><g class="st3"><path class="st1" d="M241.4,233.8v-5.7h3.3v-1h-3.3V216h3.3v-1h-3.3v-10.7h3.3v-1h-3.3v-10.7h3.3v-1h-3.3v-10.8h3.3v-1h-3.3v-11.1    h3.3v-1h-3.3V157h3.3v-1h-3.3v-12h3.3v-1h-3.3v-10.7h3.3v-1h-3.3v-11.1h3.3v-1h-3.3v-10.8h3.3v-1h-3.3v-8.4h-1v8.4h-10.8v-8.4h-1    v8.4h-11.1v-8.4h-1v8.4h-10.8v-8.4h-1v8.4h-12v-8.4h-1v8.4h-10.7v-8.4h-1v8.4H169v-8.4h-1v8.4h-10.7v-8.4h-1v8.4h-10.7v-8.4h-1    v8.4h-10.8v-8.4h-1v8.4h-11.1v-8.4h-1v8.4H110v-8.4h-1v135.7h138v-1H241.4z M240.4,233.8h-10.8v-5.7h10.8V233.8z M169,168.8h11.1    v11.1H169L169,168.8z M168,179.9h-10.8v-11.1H168L168,179.9z M180.1,180.9v10.7H169v-10.8L180.1,180.9z M181.1,180.9h10.8v10.7    h-10.8V180.9z M181.1,179.9v-11.1h10.8v11.1L181.1,179.9z M181.1,167.8V157h10.8v10.8L181.1,167.8z M180.1,167.8H169V157h11.1    L180.1,167.8z M168,167.8h-10.8V157H168L168,167.8z M156.3,167.8h-10.7V157h10.7V167.8z M156.3,168.8v11.1h-10.7v-11.1    L156.3,168.8z M156.3,180.9v10.7h-10.7v-10.8L156.3,180.9z M157.3,180.9H168v10.7h-10.7V180.9z M168,192.6v10.7h-10.7v-10.7H168z     M169,192.6h11.1v10.7H169V192.6z M181.1,192.6h10.8v10.7h-10.7L181.1,192.6z M192.8,192.6h12v10.7h-12V192.6z M192.8,191.6v-10.8    h12v10.8H192.8z M192.8,179.8v-11.1h12v11.1L192.8,179.8z M192.8,167.8V157h12v10.8L192.8,167.8z M192.8,156v-12h12v12L192.8,156z     M191.8,156h-10.7v-12h10.8L191.8,156z M180.1,156H169v-12h11.1V156z M168,156h-10.7v-12H168V156z M156.2,156h-10.7v-12h10.7    L156.2,156z M144.6,156h-10.7v-12h10.8L144.6,156z M144.6,157v10.8h-10.7V157H144.6z M144.6,168.8v11.1h-10.7v-11.1L144.6,168.8z     M144.6,180.8v10.8h-10.7v-10.8L144.6,180.8z M144.6,192.6v10.7h-10.7v-10.7L144.6,192.6z M145.6,192.6h10.7v10.7h-10.7    L145.6,192.6z M156.2,204.3V215h-10.7v-10.7L156.2,204.3z M157.2,204.3H168V215h-10.7L157.2,204.3z M169,204.3h11.1V215H169V204.3    z M181.1,204.3h10.8V215h-10.7L181.1,204.3z M192.8,204.3h12V215h-12V204.3z M205.8,204.3h10.8V215h-10.7L205.8,204.3z     M205.8,203.3v-10.7h10.8v10.7L205.8,203.3z M205.8,191.6v-10.7h10.8v10.8L205.8,191.6z M205.8,179.8v-11.1h10.8v11.1L205.8,179.8    z M205.8,167.8V157h10.8v10.8L205.8,167.8z M205.8,156v-12h10.8v12L205.8,156z M205.8,143v-10.7h10.8V143L205.8,143z M204.8,143    h-12v-10.7h12V143z M191.8,143h-10.7v-10.7h10.8L191.8,143z M180.1,143H169v-10.7h11.1V143z M168,143h-10.7v-10.7H168V143z     M156.2,143h-10.7v-10.7h10.7L156.2,143z M144.6,143h-10.7v-10.7h10.8L144.6,143z M132.8,143h-11v-10.7h11.1L132.8,143z     M132.8,144v12h-11v-12H132.8z M132.8,157v10.8h-11V157H132.8z M132.8,168.8v11.1h-11v-11.1L132.8,168.8z M132.8,180.8v10.8h-11    v-10.8L132.8,180.8z M132.8,192.6v10.7h-11v-10.7L132.8,192.6z M132.8,204.3V215h-11v-10.7L132.8,204.3z M133.8,204.3h10.8V215    h-10.7L133.8,204.3z M144.6,216v11.1h-10.8V216H144.6z M145.6,216h10.7v11.1h-10.7V216z M157.3,216H168v11.1h-10.7V216z M169,216    h11.1v11.1H169V216z M181.1,216h10.8v11.1h-10.7L181.1,216z M192.8,216h12v11.1h-12V216z M205.8,216h10.8v11.1h-10.7L205.8,216z     M217.6,216h11.1v11.1h-11.1L217.6,216z M217.6,215v-10.7h11.1V215H217.6z M217.6,203.2v-10.6h11.1v10.7L217.6,203.2z     M217.6,191.6v-10.7h11.1v10.8L217.6,191.6z M217.6,179.8v-11h11.1v11.1L217.6,179.8z M217.6,167.7V157h11.1v10.8L217.6,167.7z     M217.6,156v-12h11.1v12L217.6,156z M217.6,143v-10.7h11.1V143L217.6,143z M217.6,131.2v-11h11.1v11.1L217.6,131.2z M216.6,131.2    h-10.7v-11h10.8L216.6,131.2z M204.8,131.2h-12v-11h12V131.2z M191.8,131.2h-10.7v-11h10.8L191.8,131.2z M180.1,131.2H169v-11    h11.1V131.2z M168,131.2h-10.7v-11H168V131.2z M156.2,131.2h-10.7v-11h10.7L156.2,131.2z M144.6,131.2h-10.7v-11h10.8L144.6,131.2    z M132.8,131.2h-11v-11h11.1L132.8,131.2z M120.7,131.2H110v-11h10.8L120.7,131.2z M120.7,132.2V143H110v-10.7L120.7,132.2z     M120.7,144v12H110v-12L120.7,144z M120.7,157v10.8H110V157L120.7,157z M120.7,168.7v11.1H110v-11L120.7,168.7z M120.7,180.8v10.8    H110v-10.8L120.7,180.8z M120.7,192.6v10.7H110v-10.7L120.7,192.6z M120.7,204.3V215H110v-10.7L120.7,204.3z M120.7,216v11.1H110    V216L120.7,216z M121.7,216h11.1v11.1h-11L121.7,216z M132.8,228.1v5.7h-11v-5.7H132.8z M133.8,228.1h10.8v5.7h-10.7L133.8,228.1z     M145.6,228.1h10.7v5.7h-10.7L145.6,228.1z M157.2,228.1H168v5.7h-10.7L157.2,228.1z M169,228.1h11.1v5.7H169V228.1z M181.1,228.1    h10.8v5.7h-10.7L181.1,228.1z M192.8,228.1h12v5.7h-12V228.1z M205.8,228.1h10.8v5.7h-10.7L205.8,228.1z M217.6,228.1h11.1v5.7    h-11.1L217.6,228.1z M240.4,227.1h-10.7V216h10.8L240.4,227.1z M240.4,215h-10.7v-10.7h10.8L240.4,215z M240.4,203.3h-10.7v-10.7    h10.8L240.4,203.3z M240.4,191.6h-10.7v-10.7h10.8L240.4,191.6z M240.4,179.8h-10.7v-11h10.8L240.4,179.8z M240.4,167.7h-10.7V157    h10.8L240.4,167.7z M240.4,156h-10.7v-12h10.8L240.4,156z M240.4,143h-10.7v-10.7h10.8L240.4,143z M240.4,131.2h-10.7v-11h10.8    L240.4,131.2z M240.4,108.4v10.8h-10.7v-10.8L240.4,108.4z M228.7,108.4v10.8h-11.1v-10.8L228.7,108.4z M216.6,108.4v10.8h-10.7    v-10.8L216.6,108.4z M204.8,108.4v10.8h-12v-10.8L204.8,108.4z M191.8,108.4v10.8h-10.7v-10.8L191.8,108.4z M180.1,108.4v10.8H169    v-10.8L180.1,108.4z M168,108.4v10.8h-10.7v-10.8L168,108.4z M156.2,108.4v10.8h-10.7v-10.8L156.2,108.4z M144.6,108.4v10.8h-10.7    v-10.8L144.6,108.4z M132.8,108.4v10.8h-11v-10.8L132.8,108.4z M120.7,108.4v10.8H110v-10.8L120.7,108.4z M110,228.1h10.8v5.7H110    V228.1z"/><path class="st1" d="M247.5,235.3h-139V98.6h2v8.4h9.8v-8.4h2v8.4h10.1v-8.4h2v8.4h9.8v-8.4h2v8.4h9.7v-8.4h2v8.4h9.8v-8.4h2v8.4    h10.1v-8.4h2v8.4h9.8v-8.4h2v8.4h11v-8.4h2v8.4h9.8v-8.4h2v8.4h10.1v-8.4h2v8.4h9.8v-8.4h2v8.4h3.3v2h-3.3v9.8h3.3v2h-3.3v10.1    h3.3v2h-3.3v9.8h3.3v2h-3.3v11h3.3v2h-3.3v9.8h3.3v2h-3.3v10.1h3.3v2h-3.3v9.8h3.3v2h-3.3v9.7h3.3v2h-3.3v9.8h3.3v2h-3.3v10.1h3.3    v2h-3.3v4.7h5.6L247.5,235.3z M109.5,234.3h131.4V119.7h-11.8l0,0h-12.1l0,0h-11.8l0,0h-13l0,0h-11.7l0,0h-12.1l0,0h-11.8l0,0    h-11.7l0,0h-11.8l0,0h-12.1l0,0l0,0v12.1h12.1v11.8h11.8v13h11.7v11.8h11.8l0,0h12.1v-11.8h11.8v-13h13v-11.7h11.8v-12.1h23.8    v12.1l0,0v11.8l0,0v13l0,0v11.8l0,0v12.1l0,0v11.7l0,0v11.7l0,0v11.8l0,0v12.1h-11.8v6.7H121.2l0,0L109.5,234.3z M218.1,233.3    h10.1v-4.7h-10.1L218.1,233.3z M206.3,233.3h9.8v-4.7h-9.8V233.3z M193.3,233.3h11v-4.7h-11V233.3z M181.6,233.3h9.8v-4.7h-9.8    V233.3z M169.5,233.3h10.1v-4.7h-10.1L169.5,233.3z M157.8,233.3h9.8v-4.7h-9.8V233.3z M146.1,233.3h9.7v-4.7h-9.7V233.3z     M134.3,233.3h9.8v-4.7h-9.8V233.3z M122.2,233.3h10.1v-4.7h-10.1L122.2,233.3z M110.5,233.3h9.8v-4.7h-9.7L110.5,233.3z     M133.3,227.6L133.3,227.6z M230.1,226.6h9.8v-10.1h-9.8V226.6z M218.1,226.6h10.1v-10.1h-10.1L218.1,226.6z M206.3,226.6h9.8    v-10.1h-9.8V226.6z M193.3,226.6h11v-10.1h-11V226.6z M181.6,226.6h9.8v-10.1h-9.8V226.6z M169.5,226.6h10.1v-10.1h-10    L169.5,226.6z M157.7,226.6h9.8v-10.1h-9.8V226.6z M146,226.6h9.7v-10.1H146V226.6z M134.3,226.6h9.8v-10.1h-9.8V226.6z     M122.2,226.6h10.1v-10.1h-10L122.2,226.6z M110.4,226.6h9.8v-10.1h-9.7L110.4,226.6z M217,215.5L217,215.5z M145,215.5L145,215.5    z M230.1,214.5h9.8v-9.8h-9.8V214.5z M218,214.5h10.1v-9.8h-10L218,214.5z M206.3,214.5h9.8v-9.8h-9.8V214.5z M193.3,214.5h11    v-9.8h-11V214.5z M181.5,214.5h9.8v-9.8h-9.8V214.5z M169.5,214.5h10.1v-9.8h-10L169.5,214.5z M157.7,214.5h9.8v-9.8h-9.8V214.5z     M146,214.5h9.7v-9.8H146V214.5z M134.3,214.5h9.8v-9.8h-9.8V214.5z M122.2,214.5h10.1v-9.8h-10L122.2,214.5z M110.4,214.5h9.8    v-9.8h-9.7L110.4,214.5z M217,203.8L217,203.8z M205.3,203.8L205.3,203.8z M156.7,203.8L156.7,203.8z M230.1,202.8h9.8v-9.7h-9.8    V202.8z M218,202.8h10.1v-9.7h-10L218,202.8z M206.3,202.8h9.8v-9.7h-9.8V202.8z M193.3,202.8h11v-9.7h-11V202.8z M181.5,202.8    h9.8v-9.7h-9.8V202.8z M169.4,202.8h10.1v-9.7h-10L169.4,202.8z M157.7,202.8h9.8v-9.7h-9.8V202.8z M146,202.8h9.7v-9.7H146V202.8    z M134.2,202.8h9.8v-9.7h-9.8V202.8z M122.2,202.8h10.1v-9.7h-10L122.2,202.8z M110.4,202.8h9.8v-9.7h-9.7L110.4,202.8z     M217.1,192.1L217.1,192.1z M205.3,192.1L205.3,192.1z M192.3,192.1L192.3,192.1z M168.5,192.1L168.5,192.1z M230.1,191.1h9.8    v-9.8h-9.8V191.1z M218.1,191.1h10.1v-9.8h-10.1L218.1,191.1z M206.3,191.1h9.8v-9.8h-9.8V191.1z M193.3,191.1h11v-9.8h-11V191.1z     M181.6,191.1h9.8v-9.8h-9.8V191.1z M169.5,191.1h10.1v-9.8h-10L169.5,191.1z M157.7,191.1h9.8v-9.8h-9.8V191.1z M146,191.1h9.7    v-9.8H146V191.1z M134.3,191.1h9.8v-9.8h-9.8V191.1z M122.2,191.1h10.1v-9.8h-10L122.2,191.1z M110.5,191.1h9.8v-9.8h-9.7    L110.5,191.1z M217,180.3L217,180.3z M205.3,180.3L205.3,180.3z M192.3,180.3L192.3,180.3z M180.5,180.3L180.5,180.3z     M230.1,179.3h9.8v-10.1h-9.8V179.3z M218,179.3h10.1v-10.1h-10L218,179.3z M206.3,179.3h9.8v-10.1h-9.8V179.3z M193.3,179.3h11    v-10.1h-11V179.3z M181.5,179.3h9.8v-10.1h-9.8V179.3z M169.4,179.3h10.1v-10.1h-10L169.4,179.3z M157.7,179.3h9.8v-10.1h-9.8    V179.3z M146,179.3h9.7v-10.1H146V179.3z M134.2,179.3h9.8v-10.1h-9.8V179.3z M122.2,179.3h10.1v-10.1h-10L122.2,179.3z     M110.4,179.3h9.8v-10.1h-9.7L110.4,179.3z M217,168.3L217,168.3z M205.3,168.3L205.3,168.3z M192.3,168.3L192.3,168.3z     M230.1,167.3h9.8v-9.8h-9.8V167.3z M218,167.3h10.1v-9.8h-10L218,167.3z M206.2,167.3h9.8v-9.8h-9.8V167.3z M193.2,167.3h11v-9.8    h-11V167.3z M181.5,167.3h9.8v-9.8h-9.8V167.3z M146,167.3h9.7v-9.8H146V167.3z M134.2,167.3h9.8v-9.8h-9.8V167.3z M122.1,167.3    h10.1v-9.8h-10L122.1,167.3z M110.4,167.3h9.8v-9.8h-9.6L110.4,167.3z M217,156.5L217,156.5z M205.2,156.5L205.2,156.5z     M230,155.5h9.8v-11H230V155.5z M218,155.5H228v-11h-10L218,155.5z M206.2,155.5h9.8v-11h-9.8V155.5z M193.2,155.5h11v-11h-11    V155.5z M134.2,155.5h9.8v-11h-9.8V155.5z M122.1,155.5h10.1v-11h-10L122.1,155.5z M110.4,155.5h9.8v-11h-9.6L110.4,155.5z     M217,143.5L217,143.5z M230.1,142.5h9.8v-9.8h-9.8V142.5z M218,142.5h10.1v-9.8h-10L218,142.5z M206.2,142.5h9.8v-9.8h-9.8V142.5    z M122.1,142.5h10.1v-9.8h-10L122.1,142.5z M110.4,142.5h9.8v-9.8h-9.6L110.4,142.5z M230.1,130.8h9.8v-10.1h-9.8V130.8z     M218,130.8h10.1v-10.1h-10L218,130.8z M110.4,130.8h9.8v-10.1h-9.6L110.4,130.8z M230.2,118.7h9.8V109h-9.8V118.7z M218.1,118.7    h10.1V109h-10.1V118.7z M206.3,118.7h9.8V109h-9.8V118.7z M193.3,118.7h11V109h-11V118.7z M181.6,118.7h9.8V109h-9.8V118.7z     M169.5,118.7h10.1V109h-10.1L169.5,118.7z M157.8,118.7h9.8V109h-9.8V118.7z M146.1,118.7h9.7V109h-9.7V118.7z M134.3,118.7h9.8    V109h-9.8V118.7z M122.2,118.7h10.1V109h-10.1L122.2,118.7z M110.5,118.7h9.8V109h-9.7L110.5,118.7z M240.9,234.3h-11.8v-6.7h11.8    V234.3z M230.2,233.3h9.8v-4.7h-9.8V233.3z M180.6,168.3h-12.1v-11.8h12.1V168.3z M169.5,167.3h10.1v-9.8h-10.1V167.3z     M168.5,168.3h-11.8v-11.8h11.8V168.3z M157.8,167.3h9.8v-9.8h-9.8V167.3z M192.4,156.5h-11.8v-13h11.8V156.5z M181.6,155.5h9.8    v-11h-9.8V155.5z M180.6,156.5h-12.1v-13h12.1V156.5z M169.5,155.5h10.1v-11h-10.1V155.5z M168.5,156.5h-11.8v-13h11.8V156.5z     M157.8,155.5h9.8v-11h-9.8V155.5z M156.8,156.5h-11.7v-13h11.7V156.5z M146.1,155.5h9.7v-11h-9.7V155.5z M205.3,143.5h-13v-11.8    h13V143.5z M193.3,142.5h11v-9.8h-11V142.5z M192.3,143.5h-11.7v-11.8h11.8L192.3,143.5z M181.6,142.5h9.8v-9.8h-9.8V142.5z     M180.6,143.5h-12.1v-11.8h12.1L180.6,143.5z M169.5,142.5h10.1v-9.8h-10.1L169.5,142.5z M168.5,143.5h-11.7v-11.8h11.8    L168.5,143.5z M157.8,142.5h9.8v-9.8h-9.8V142.5z M156.8,143.5h-11.7v-11.8h11.7V143.5z M146.1,142.5h9.7v-9.8h-9.7V142.5z     M145.1,143.5h-11.7v-11.8h11.8L145.1,143.5z M134.3,142.5h9.8v-9.8h-9.8V142.5z M217.1,131.8h-11.7v-12.1h11.8L217.1,131.8z     M206.3,130.8h9.8v-10.1h-9.8V130.8z M205.3,131.8h-13v-12.1h13V131.8z M193.3,130.8h11v-10.1h-11V130.8z M192.3,131.8h-11.7    v-12.1h11.8L192.3,131.8z M181.6,130.8h9.8v-10.1h-9.8V130.8z M180.6,131.8h-12v-12.1h12.1L180.6,131.8z M169.5,130.8h10.1v-10.1    h-10L169.5,130.8z M168.5,131.8h-11.7v-12.1h11.8L168.5,131.8z M157.7,130.8h9.8v-10.1h-9.8V130.8z M156.7,131.8H145v-12.1h11.7    V131.8z M146,130.8h9.7v-10.1H146V130.8z M145,131.8h-11.7v-12.1h11.8L145,131.8z M134.3,130.8h9.8v-10.1h-9.8V130.8z     M133.3,131.8h-12v-12.1h12.1L133.3,131.8z M122.2,130.8h10.1v-10.1h-10L122.2,130.8z"/></g><path class="st2" d="M106.7,98.8l0.1,13.4l0.2,32.2l0.3,38.9l0.2,33.7c0,5.4-0.1,10.9,0.1,16.3v0.2c0,1.2,1,2.7,2.3,2.7h120.2   c5.5,0,11.1,0.1,16.6,0h0.3c3.1,0,2.9-4.9,0-4.9H115.6c-1.8,0-3.6-0.1-5.3,0c-0.1,0-0.2,0-0.2,0l2.3,2.6l-0.1-13.4l-0.2-32.2   l-0.3-38.9l-0.2-33.7c0-5.4,0.1-10.9-0.1-16.3v-0.2c0-1.3-1-2.4-2.3-2.6c-1.2-0.1-2.2,0.8-2.3,2C106.7,98.7,106.7,98.7,106.7,98.8   L106.7,98.8z"/><path class="st2" d="M117.7,229.1c0.3-0.8,0.7-1.6,1.2-2.3c0.9-1.7,1.9-3.3,2.9-5c3.1-5.1,6.5-10.1,9.9-15   c4.2-5.9,8.5-11.7,13.3-17.1c4.2-5.1,8.9-9.7,14.1-13.7c2-1.5,4.2-2.8,6.5-3.7c0.5-0.2,0.9-0.3,1.4-0.4c0.2-0.1,0.5-0.1,0.7-0.2   l0.6-0.1h0.3c0.5,0-0.4,0,0,0c0.1,0,0.4,0-0.2,0H168c-0.4,0,0.7,0.1,0.9,0.1c0.5,0.1,1,0.2,1.6,0.4c2.8,0.9,5.7,2.6,6.7,5.5   c0.7,1.9,0.2,4-1.2,5.4c-0.3,0.3-0.6,0.5-1,0.7l-0.4,0.2c-0.1,0-0.4,0.2-0.1,0c-0.2,0-0.2,0,0,0c0.5,0,1,0,1.4,0.1   c0.9,0.1,0.6,0.1,0.2,0c-0.3-0.1-0.5-0.2-0.7-0.4c-2-1.1-3.3-3.2-3.3-5.5c-0.5-5.1,1.4-10.5,3.6-15.1c7.1-15.1,20.3-27.3,35.1-34.6   c2.2-1.1,4.5-2.1,6.8-2.9l-4.9-0.5c0.4,2.2,0.6,4.5,0.5,6.8c0,1.6-0.3,3.2-0.9,4.7c-0.2,0.6-0.6,1.1-1.1,1.5   c-0.2,0.2-0.5,0.3-0.8,0.4c-1,0.6,2.1,0.4,1.7,0.2c-3.3-1.6-6.1-4-8.2-7c-1-1.1-1.7-2.4-2.2-3.8c-0.4-1.3,0.1-1.2,1.2-1.4   c3.6-0.6,7.1-1.1,10.7-1.7c1-0.2-0.7-0.6-0.9-0.6c-1.1-0.2-2.3-0.3-3.4-0.1c-3.6,0.6-7.2,1.2-10.8,1.7c-1.1,0.2-2.1,0.2-1.8,1.6   c0.5,1.5,1.3,3,2.4,4.2c2.4,3.2,5.6,6.5,9.6,7.5c2,0.5,5.1,1,7-0.1c1.4-0.9,2-2.6,2.2-4.1c0.5-3.1,0.4-6.2-0.2-9.3   c-0.1-0.5-1.9-0.5-2.1-0.6c-0.9-0.2-1.9-0.2-2.8,0.1c-17,6.4-32.2,18.9-40.8,35.1c-2.7,5-5.1,10.9-5,16.7c0,1.8,0.5,3.6,1.5,5.1   c2,2.5,5.5,3.1,8.5,3c2.3,0,4.4-1,5.1-3.3c0.7-2.3-0.1-4.8-1.8-6.4c-3-3-7.8-4-11.9-4.3c-2.7-0.3-5.4,0.1-7.9,1.1   c-5.6,2.2-10.3,6.6-14.4,10.9c-5.3,5.4-10.2,11.2-14.7,17.3c-4.2,5.6-8.2,11.4-12,17.3c-2.3,3.4-4.5,7-6.4,10.7   c-0.1,0.3-0.3,0.5-0.3,0.8C112.5,229,117.4,229.8,117.7,229.1L117.7,229.1z"/></g><g id="mouse"><path class="st0" d="M343.2,366c0,0-5.2,13.3,8.1,26.2s31.5,17.7,42.8,13.1s10.6-18.8,10.6-18.8L343.2,366z"/><path class="st1" d="M341,365.3c-1.5,4.2-1.7,8.8-0.6,13.2c2.3,9.7,9.6,16.9,17.7,22.2c7.3,4.8,15.9,8.1,24.7,8.5   c7.6,0.3,15.7-1.9,20.2-8.5c2.9-4.4,4.3-9.5,4.1-14.7c-0.1-0.8-0.7-1.4-1.4-1.7l-20.8-6.9l-33-11l-7.6-2.5c-2.7-0.9-5,3.2-2,4.2   L363,375l33,11l7.6,2.5l-1.4-1.7c0,0.3,0,0.6,0,0.9c0,0.5,0-0.3,0,0c0,0.2,0,0.4,0,0.5c0,0.5-0.1,0.9-0.1,1.4   c-0.2,2.4-0.9,4.8-2,6.9c-2.8,5.5-8.4,7.9-14.5,8c-7.7,0.1-15.2-2.4-21.8-6.2c-7.5-4.4-14.9-10.6-17.9-19c-0.6-1.7-0.9-3.4-1.1-5.1   c-0.1-1.3-0.1-2.7,0-4c0.1-1,0.3-2,0.5-3c0.1-0.4,0.4-1.1,0.1-0.3c0-0.1,0.1-0.2,0.1-0.3C346.6,363.7,342,362.7,341,365.3z"/><path class="st0" d="M392.3,400.3c-5.9,1.8-12.2,1.6-17.9-0.6c-9.9-3.8-28.7-12.9-31-29.1c-3.2-22.1,39-16.3,54.5,1.2   C410,385.3,404.4,396.5,392.3,400.3z"/><path class="st1" d="M391,398.7c-3.8,1.2-7.9,1.4-11.8,0.7c-1.7-0.3-3.3-0.8-4.9-1.5l-1.4-0.6l-0.8-0.3l-0.5-0.2   c-4.8-2-9.4-4.6-13.6-7.8c-4.4-3.4-8.4-7.5-10.6-12.7c-1.7-3.9-2.6-8.5-0.6-12.3c0.7-1.2,1.7-2.3,2.8-3.1c1.3-0.9,2.8-1.6,4.4-2   c4-1,8.1-1.2,12.2-0.5c9.4,1.1,18.9,4.7,26.3,10.8c4.4,3.6,8.9,9,9.7,15c0.7,5.6-2.4,10.2-7.1,12.9   C393.7,397.7,392.4,398.3,391,398.7c-0.8,0.2-1.2,0.9-1.1,1.6c0,0.2,0.2,0.5,0.3,0.6c0.8,1,2.1,1.4,3.4,1.1   c5.8-1.9,11.6-5.8,13.1-12.1c1.7-7.2-2.6-14.4-7.4-19.5c-7.7-8.1-18.8-12.9-29.6-15c-4.9-1.1-10-1.3-15-0.6   c-4.1,0.6-8.3,2-11.1,5.2s-3.3,7.8-2.4,11.9c1.4,6.4,5.2,11.9,10,16.3c4.6,4.1,9.8,7.5,15.4,10.1c6.4,3.1,13.1,5.5,20.3,5.1   c2.3-0.2,4.5-0.6,6.7-1.2c0.7-0.2,1.2-0.9,1.1-1.6c0-0.2-0.2-0.4-0.3-0.6C393.5,398.8,392.2,398.4,391,398.7z"/><path class="st2" d="M349.4,363.2c0.5-0.1,1.1-0.2,1.6-0.2c0.1,0,0.3,0,0.4,0c-0.2,0-0.6,0-0.2,0h0.8c0.6,0-0.4,0-0.4,0h0.4   c0.6,0.1-0.5-0.1-0.6-0.1l0.4,0.1c0.7,0.1-0.7-0.2-0.7-0.2l0.4,0.1c0.6,0.2-0.7-0.2-0.7-0.2c0.2,0.1,0.3,0.1,0.5,0.2   c0.5,0.2-1-0.4-0.5-0.2l0.4,0.2c0.5,0.2-0.8-0.4-0.4-0.2l0.4,0.2l0.7,0.4c0.4,0.2-0.5-0.4-0.2-0.1l0.3,0.2c0.4,0.3,0.9,0.6,1.3,1   c0,0,0.3,0.3,0.2,0.1s0.1,0.1,0.1,0.2c0.2,0.2,0.4,0.5,0.6,0.7c0.6,0.6,1.3,1,2,1.3c1.2,0.5,2.4,0.9,3.7,1.1c1,0.3,2,0.3,3,0.2   c0.3-0.1,1.2-0.2,0.7-0.8c-2.5-2.8-5.8-4.9-9.4-6c-4-1.4-8.7-2.2-13-1.4c-0.4,0.1-1,0.2-0.7,0.8s1.6,1.1,2,1.3   c1.2,0.5,2.4,0.9,3.7,1.1c1,0.3,2,0.3,3,0.2L349.4,363.2z"/><path class="st1" d="M340.4,366.5c-6.2-0.5-12.9-1-18.8,1.4c-4.7,1.9-8.8,5.9-9.7,11c-0.2,1.3-0.2,2.6,0,3.9   c0.4,1.6,0.7,3.2,0.7,4.8c-0.2,2.5-2.1,4.1-4.3,5c-2.5,0.9-5.1,1.5-7.8,1.7c-3.4,0.5-6.8,0.9-10.2,1.2c-27,2.6-54.2,0.4-80.5-6.5   c-3.5-0.9-6.9-1.9-10.3-3.2c-3.2-1.1-6.3-2.6-9.2-4.5c-2.5-1.8-1.7-5.2-0.1-7.3c2-2.6,5.2-3.7,8.2-4.7c0.9-0.3-0.6-1.6-0.9-1.8   c-0.6-0.5-2-1.5-2.9-1.2c-2.8,1-5.8,2-7.9,4.1c-1.9,1.8-2.7,4.6-2,7.2c1,3,4.1,4.9,6.7,6.5c3,1.7,6.1,3.2,9.3,4.4   c6.5,2.4,13.2,4.3,20,5.7c6.8,1.5,13.7,2.7,20.6,3.6c14.2,1.9,28.5,2.4,42.8,1.7c7.1-0.4,14.1-1.1,21.2-2.1   c4.4-0.6,10.9-1.8,11.3-7.3c0.1-1.9-0.6-3.8-0.8-5.7c-0.2-1.5,0-3,0.5-4.4c1.1-2.9,3-5.4,5.5-7.1c6.2-4.4,14.4-3.7,21.5-3.2   c1.1,0.1,0.2-1.1-0.1-1.4C342.5,367.3,341.5,366.7,340.4,366.5L340.4,366.5z"/></g><g id="paper"><polygon class="st0" points="68.1,377 148.1,361.5 215.6,409.7 136.1,438.9 112.4,432.9  "/><path class="st1" d="M69.6,378.3l27.1-5.2l43.1-8.3l9.8-1.9l-3-0.6l23,16.4l36.3,25.9l8.3,5.9l-0.4-1.9l-27,9.9L144,434.1l-9.9,3.6   l2.2-0.1l-20.7-5.3l-3-0.8l1.9,1.1l-15-18.9l-23.8-30.1l-5.5-6.9c-0.8-0.9-2-1.4-3.2-1.3c-0.7,0-2,0.5-1.3,1.5l6.9,8.7l15.1,19.1   l15.3,19.3c2.3,3,4.5,6.1,7,8.9c0.9,0.8,2,1.3,3.2,1.5l4.5,1.1l12.3,3.1l4.4,1.1c1.1,0.4,2.3,0.5,3.4,0.2c0.9-0.3,1.8-0.7,2.7-1   l16.6-6.1l24.2-8.9l22.8-8.4l12.8-4.7l0.6-0.2c1.1-0.4,0.1-1.5-0.4-1.9l-22.8-16.2l-36.3-25.9c-2.8-2-5.4-4.1-8.3-5.9   c-2.3-1.5-6.1-0.1-8.6,0.4l-41.2,8l-32.7,6.3l-0.6,0.1c-1,0.2-1.2,1.1-0.4,1.7C67.2,378.2,68.4,378.5,69.6,378.3z"/><polygon class="st0" points="130,425.8 112.4,432.9 136.1,438.9  "/><path class="st1" d="M128.6,423.7l-17.6,7.1c-1.2,0.5,1.6,3.9,2.3,4.1l20.7,5.3l3,0.8c1,0.2,0.8-0.8,0.5-1.5l-6.1-13.2   c-0.4-0.9-1.2-2.3-2.2-2.6s-0.8,0.9-0.5,1.5l6.1,13.2l0.5-1.5l-20.7-5.3l-2.9-0.7l2.3,4.1l17.6-7.1   C132.4,427.4,130,423.1,128.6,423.7z"/><path class="st2" d="M98.3,395.3c2.2,0,4.6-1,6.7-1.6c4.3-1.2,8.6-2.6,12.9-3.9c9.3-2.9,18.6-5.8,27.8-8.9l6.3-2   c0.7-0.2-1.2-4.8-2.4-4.4c-5.7,1.9-11.4,3.7-17.1,5.5c-9.4,3-18.8,6-28.3,8.8c-1.8,0.5-3.5,1-5.3,1.5c-0.6,0.1-1.2,0.3-1.7,0.4   c-0.2,0-0.4,0.1-0.6,0.1s-0.5,0-0.2,0C95.4,390.9,97.1,395.3,98.3,395.3L98.3,395.3z"/><path class="st2" d="M105.4,407.4c0.8-0.1,1.7-0.2,2.4-0.5c1.6-0.4,3.2-0.8,4.8-1.2c4.8-1.3,9.6-2.6,14.4-4c10.5-3,20.9-6,31.3-9   l7.1-2.1c0.4-0.1-1.8-4.3-3.2-3.9c-6.4,1.9-12.9,3.8-19.3,5.6c-10.6,3-21.2,6.1-31.8,9c-2,0.5-3.9,1-5.9,1.5   c-0.9,0.3-1.8,0.5-2.7,0.5c-0.8,0,0.3,1.7,0.5,1.9C103.5,405.9,104.6,407.4,105.4,407.4L105.4,407.4z"/><path class="st2" d="M120.1,420l20.1-6.4l31.8-10.2l7.3-2.3c3.1-1,1.1-5.1-1.6-4.2l-20.1,6.4l-31.8,10.2l-7.3,2.4   C115.3,416.8,117.3,420.9,120.1,420L120.1,420z"/><path class="st1" d="M115.7,406.4c1.2-2.3,1.8-4.8,2-7.3c0.2-1.3-0.1-2.6-0.8-3.7c-0.8-1.1-2.2-1.8-3.6-1.6   c-1.9,0.3-3.2,2.2-2.9,4.1c0,0.3,0.1,0.5,0.2,0.8c0.9,2.4,3.3,3.9,5.5,4.9s5,1.9,7.5,1c2-0.8,3.6-2.5,4.3-4.6   c0.8-2.3,1.3-4.6,1.6-7c0.3-2.4,0.3-4.9-1-7c-1.2-2.1-3.6-3.3-6-3c-2.4,0.4-3.3,2.5-3.1,4.8c0.5,4.9,4.1,10,8.8,11.7   s9.8-0.8,13-4.5c1.5-1.7,3.4-4,3.4-6.5s-2.4-5.2-5-5s-3.5,3.3-2.6,5.5c1,2.4,3.9,4.5,6.2,5.7c2.5,1.3,5.5,1.1,7.9-0.4   c2.4-1.7,3.8-4.2,5.1-6.8c1.1-2.2-3.1-4.9-4.3-2.4c-1.1,2.2-2.4,4.9-4.8,5.9c-0.9,0.4-1.9,0.4-2.8,0c-0.5-0.3-1-0.6-1.5-1   c-0.4-0.4-1.2-0.8-1.5-1.3c-0.2-0.3,0.1-0.5,0-0.7l-1-0.4l-0.1-0.2c-0.1,0.1-0.1,0.5-0.2,0.7c-0.3,0.7-0.7,1.3-1.1,1.9   c-1.4,2.1-3.3,3.9-5.6,5c-2,1-4.3,0.8-6.1-0.5c-1.8-1.6-2.9-3.8-3.2-6.1c0-0.7,0-0.9,0.6-1c0.2,0,0.4,0.2,0.2,0   c0.3,0.4,0.4,0.8,0.4,1.3c0.1,2.6-0.2,5.2-1,7.7c-0.7,2.3-1.9,4.8-4.7,4.3c-1.4-0.3-2.7-0.9-3.9-1.8c-0.3-0.2-0.5-0.4-0.7-0.6   c0.2,0.2,0,0,0.1,0.1c0,0,0.1,0,0.1-0.1c0.1-0.4-0.3-0.5-1.1-0.4l-0.8-1c0.4,0.8-0.1,2.6-0.3,3.4c-0.3,1.3-0.8,2.6-1.5,3.8   C110.3,406.1,114.4,408.8,115.7,406.4L115.7,406.4z"/><path class="st1" d="M158.9,380v-2.2c0-0.2-0.1-0.5-0.3-0.6c-0.1-0.2-0.3-0.4-0.6-0.4c-0.3-0.1-0.5-0.2-0.8-0.1   c-0.3,0-0.6,0-0.9,0.1l-0.6,0.2c-0.4,0.2-0.7,0.5-1,0.8l-0.3,0.5c-0.2,0.3-0.2,0.7-0.2,1v2.2c0,0.2,0.1,0.5,0.3,0.6   c0.1,0.2,0.3,0.4,0.6,0.4c0.2,0.1,0.5,0.2,0.8,0.1c0.3,0,0.6,0,0.9-0.1l0.6-0.2c0.4-0.2,0.7-0.5,1-0.8l0.3-0.5   C158.9,380.7,159,380.3,158.9,380L158.9,380z"/></g></svg>