<svg transform="scale(1)" version="1.1" id="Layer_1" xmlns="http://www.w3.org/2000/svg" xmlns:xlink="http://www.w3.org/1999/xlink" x="0px" y="0px" viewBox="0 0 500 500" xml:space="preserve" class="show_show__wrapper__graphic__5Waiy "><title>React</title><style type="text/css">
	.st0{fill:#FFFFFF;}
	.st1{fill:#000005;}
	.st2{opacity:0.5;}
	.st3{fill:#7d97e9;}
</style><g id="character"><path class="st0" d="M176,390.9l-0.7-71.9c0,0-150.9-34.1-122.4-101.8S187.4,235,260,250s210.6,37,215.6,85.4s-173.6,47-173.6,47   l-0.7,10.6"/><path class="st1" d="M178.2,391.4l-0.6-63.1l-0.1-8.8c0-1.3-0.9-2.5-2.1-2.8c-4.5-1-9-2.2-13.4-3.5c-10.8-3-21.5-6.5-32-10.5   c-12.9-4.8-25.5-10.6-37.5-17.4c-11.2-6.4-22.1-14.1-30.4-24.1c-7.1-8.7-11.6-19.2-10.4-30.7c1.3-12.8,9-26.2,20.6-32.2   c12.6-6.6,27.9-4.8,41.2-1.6c18,4.2,35.2,11.6,52.1,19c18.4,8.1,36.6,16.7,55.2,24.1c8.7,3.5,17.6,6.7,26.6,9.4   c8,2.3,16.1,3.9,24.3,5.5c18.4,3.7,36.7,7.2,55,11.1c19.6,4.2,39.1,8.8,58.3,14.3c17.3,5,34.6,10.6,50.9,18.5   c11.8,5.7,24.3,12.7,32.1,23.5c3,4,4.9,8.7,5.4,13.7c0.1,1.7-0.1,3.3-0.4,4.9c-0.4,1.8-1.1,3.5-2.1,5c-4.9,7.8-14.3,12.5-22.8,15.9   c-12.2,4.9-25.3,7.9-38.2,10.2c-14.2,2.6-28.7,4.3-43.1,5.5c-12.8,1.1-25.6,1.9-38.5,2.3c-7.9,0.3-15.7,0.5-23.6,0.5h-3.2   c-1,0-1.7,0.8-1.7,1.8l-0.7,10.7c-0.2,2.6,4.2,4.3,4.4,1.1l0.7-10.7l-1.7,1.8c4.5,0,9,0,13.5-0.1c11.2-0.2,22.5-0.7,33.7-1.4   c14.4-0.9,28.8-2.2,43.1-4.1c14.4-1.7,28.6-4.5,42.6-8.3c11-3.1,22.5-7,31.6-14c7.1-5.4,11.8-13,10.7-22.1   c-1.5-12.1-10.7-21.6-20.1-28.5c-13.3-9.7-28.8-16.2-44.2-21.8c-18.7-6.8-37.9-12-57.2-16.7c-19.5-4.7-39.2-8.8-58.9-12.8   c-17.2-3.4-34.9-6.1-51.7-11.2c-19-5.8-37.3-14-55.4-22.1c-18.3-8.2-36.5-16.7-55.4-23.4c-15.2-5.4-31.8-10.4-48.1-9   c-6.7,0.5-13.2,2.5-19,5.9c-5.9,3.8-10.8,9-14.1,15.2c-6.3,11.6-8.3,24.7-3.8,37.3c4.3,11.8,13.3,21.4,23,29.1   c11.2,8.9,23.8,15.8,36.7,21.8c12.2,5.6,24.8,10.4,37.5,14.5c8.2,2.7,16.4,5.1,24.8,7.2c1.2,0.3,2.3,0.6,3.5,0.9l-2.1-2.8l0.6,63.1   l0.1,8.8C173.9,392.9,178.3,394.6,178.2,391.4L178.2,391.4z"/><path class="st1" d="M233,256.8l-29.1,22.4c-1,0.8-0.5,1.8,0.3,2.5c7.8,6.3,15.4,13,22.6,20l-0.2-1.8L215,311.4l-6,5.9l-2.8,2.8   c-0.9,0.8-1.7,1.6-2.4,2.5c-1.6,2.3-0.6,4.9,0,7.4l1.9,7.9l3.9,15.9l4.4,18c0.4,1.1,1.5,1.9,2.7,1.9c0.8,0.1,2.5-0.4,2.2-1.6   c-2.6-10.4-5.1-20.8-7.7-31.2l-1.9-7.7l-0.9-3.6c-0.3-1.2-0.9-2.7-0.7-3.9c0.3-1,1-1.9,1.8-2.5l2.8-2.8l5.8-5.8L231,302   c0.5-0.5,0.2-1.4-0.2-1.8c-7.5-7.3-15.3-14.2-23.4-20.8l0.3,2.5l29.1-22.4C238.9,257.9,234.6,255.6,233,256.8L233,256.8z"/><path class="st1" d="M300.1,270.7l15.1,24.5l0.8-2.7l-16.8,8.1c-0.8,0.4-1.5,1.3-1,2.2c3.9,7.5,8.5,14.6,13.8,21.2l-0.1-2   c-8.5,14.1-16.4,28.6-23.7,43.5c-2.1,4.2-4.1,8.5-6.1,12.8c-0.5,1.1,0.9,2.3,1.9,2.6c1.2,0.4,2.5-0.1,3-1.2   c6.8-14.7,14.3-29.2,22.3-43.3c2.3-4,4.6-8,7-12c0.4-0.6,0.4-1.4-0.1-2c-5.1-6.3-9.6-13.1-13.3-20.3l-1,2.2l16.8-8.1   c0.9-0.4,1.4-1.4,1-2.3c-0.1-0.1-0.1-0.3-0.2-0.4l-15.1-24.5C302.9,266.7,298.5,268,300.1,270.7L300.1,270.7z"/><path class="st1" d="M239.9,245.7l-1,14.5l-2.4,34.6l-2.9,42l-2.5,36.3l-0.8,12c-0.1,1.9-0.4,3.8-0.4,5.6c0,0.1,0,0.2,0,0.2   c-0.1,1.2,1.7,1.2,2.4,1c1.2-0.3,2.1-1.2,2.3-2.4l1-14.5l2.4-34.6l2.9-42l2.5-36.2l0.8-12c0.1-1.9,0.4-3.8,0.4-5.6   c0-0.1,0-0.2,0-0.2c0.1-1.2-1.7-1.2-2.4-1C241,243.6,240.1,244.5,239.9,245.7L239.9,245.7z"/><path class="st1" d="M294.1,255.2l-3.3,13.2l-8,31.6l-9.7,38.2l-8.4,33.1c-1.4,5.4-2.8,10.7-4.1,16.1l-0.1,0.2   c-0.4,1.6,4.1,3.5,4.4,2.4l3.3-13.1l8-31.6L286,307l8.4-33.1c1.4-5.4,2.8-10.7,4.1-16.1l0.1-0.2C298.9,256,294.4,254.1,294.1,255.2   L294.1,255.2z"/><g class="st2"><path class="st0" d="M30.9,311.5l84.1-8.6l58.1,15.8l7.1-26.4l-59-16l-67.4-49.6c-3.2-2.4-7.9-1.1-8.9,2.4l-20.6,75.8    C23.5,308.5,26.9,311.9,30.9,311.5z"/><path class="st3" d="M31.4,313.6l28.6-2.9l45.2-4.6l10.3-1l-1.3-0.2l19.6,5.3l31.4,8.5l7.2,2c1,0.3,2.7,0.3,3.1-1l6.3-23.1    l0.9-3.2c0.3-1.2-0.4-2.4-1.6-2.8l-19-5.1l-31.3-8.5c-2.8-0.8-5.5-1.6-8.3-2.2c-1-0.2,0.4,0.5-0.1,0s-1.2-0.9-1.7-1.3L101,258.9    l-27.2-20l-17.7-13l-0.9-0.7c-3.3-2.3-8.5-2.5-11.3,0.8c-1.3,1.5-1.7,3.8-2.2,5.7l-7,25.8l-8.6,31.9l-3,10.9    c-0.5,1.8-1.4,4-1.3,5.9C22.2,311,27,314,31.4,313.6c1,0.1,1.8-0.8,1.8-1.8c0-0.1,0-0.3,0-0.4c-0.4-1.2-1.6-2-2.9-1.9    c-1.7,0.2-3.3-0.9-3.5-2.7c-0.1-0.4,0-0.7,0-1.1c0.1-0.6,0.3-1.2,0.5-1.8l2.5-9l8.2-30.2l7.6-28c0.6-2.1,1.2-4.3,1.8-6.4    c0.2-1.3,1.2-2.4,2.5-2.7c1.1-0.2,2.3,0.1,3.2,0.9c5.1,3.6,10.1,7.4,15.2,11.1l26.4,19.5L116,275c1.3,1,2.6,2,3.9,2.9    s3.4,1.1,5,1.5l28.5,7.7l24.8,6.7l1.3,0.4l-1.6-2.8l-6.3,23.1l-0.9,3.2l3-1l-26.5-7.2l-31-8.4c-1.8-0.3-3.5-0.3-5.3,0l-13.6,1.4    L57,306.7c-8.8,0.9-17.6,1.7-26.3,2.7h-0.4c-1,0-1.8,0.8-1.8,1.8c0,0.1,0,0.3,0,0.4C28.9,312.9,30.1,313.7,31.4,313.6z"/></g><path class="st3" d="M146.2,298.6l-69.3-23.8c-13.6-7.1-30.4-1.7-37.5,11.9c-0.9,1.8-1.7,3.7-2.2,5.6l-2,7.6l70.6-6.7L146.2,298.6z   "/><path class="st3" d="M34.5,300.4l2.2-8.2c4-15.1,19.5-24.1,34.6-20.1c2,0.5,3.9,1.3,5.7,2.2l69.3,23.8l-0.2,1l-40.4-5.4L34.5,300.4   z M64,272.1c-12.4,0-23.2,8.3-26.4,20.3l-1.8,6.9l69.9-6.6h0.1l35.4,4.8l-64.5-22.1C72.8,273.2,68.4,272.1,64,272.1z"/><path class="st0" d="M167.9,297.9l-5.2,19.1"/><path class="st3" d="M165.8,299.3l-5.2,19.1c0,0.1,0.9-0.3,0.7-0.2c0.5-0.3,1-0.6,1.5-0.9c0.5-0.4,1.8-0.9,1.9-1.6l5.2-19.1   c0-0.1-0.9,0.3-0.7,0.2c-0.5,0.3-1,0.6-1.5,0.9C167.2,298,166,298.6,165.8,299.3L165.8,299.3z"/><path class="st0" d="M90.9,286c-0.5-0.5-1.1-0.8-1.8-0.8c-0.7,0-1.3,0.2-1.9,0.5c-0.8,0.4-1.6,0.9-2.3,1.5   c-0.4,0.3-0.7,0.6-0.9,0.9c-0.2,0.3-0.4,0.6-0.4,1c0,0.3,0,0.6,0.2,0.9c0.2,0.3,0.4,0.5,0.7,0.5c0.3,0.1,0.7,0.1,1,0.1   c0.3,0,0.5-0.1,0.8-0.2c0.9-0.3,1.7-0.8,2.4-1.3c0.5-0.3,1-0.7,1.4-1.2c0.1-0.2,0.2-0.4,0.3-0.6c0-0.1,0-0.2-0.1-0.2   c-0.1-0.1-0.2-0.1-0.4,0c-0.2,0-0.4,0.1-0.6,0.2c-0.3,0.1-0.5,0.2-0.8,0.4c-0.6,0.3-1.1,0.6-1.6,1l-0.4,0.3   c-0.2,0.1-0.3,0.3-0.4,0.5c0,0.1,0,0.2-0.1,0.2l0.1-0.2c0,0-0.1,0.1-0.1,0.1l0.3-0.3c-0.2,0.2,0.5-0.4,0.3-0.2   c0.3-0.2,0.6-0.5,0.9-0.7l0.5-0.3l0.5-0.2l0.4-0.2h-0.1l0.4-0.1c-0.1,0-0.2,0-0.3,0.1H89c-0.3,0-0.6,0-0.8-0.1l0.2,0.1   c-0.4-0.2-0.7-0.7-0.7-1.1v0.2c0-0.3,0.1-0.5,0.2-0.7l-0.2,0.2c0-0.1,0.1-0.1,0.2-0.2l-0.3,0.3c0,0,0,0,0,0c0.1-0.1,0,0-0.3,0.3   l0,0c-0.3,0.2-0.6,0.4-0.9,0.6c-0.2,0.1-0.5,0.3-0.8,0.4l-0.2,0.1l-0.4,0.1h0.1l-0.4,0.1c0.1,0,0.3-0.1,0.4-0.1h-0.3   c0.4,0,0.8,0,1.2,0.2l-0.2-0.1c0.3,0.1,0.5,0.3,0.7,0.5c0.1,0.1,0.2,0.1,0.3,0.1c0.2,0,0.4-0.1,0.5-0.1c0.6-0.2,1.1-0.5,1.6-0.8   c0.5-0.3,1-0.7,1.4-1.1l0.3-0.3C90.7,286.3,90.8,286.2,90.9,286L90.9,286z"/><path class="st0" d="M57.5,285.7c-0.4-1.3-1.1-2.5-2.1-3.3c-0.9-0.8-2-1.5-3.1-2c-1.1-0.6-2.4-0.9-3.7-0.9   c-1.4,0.2-1.5,1.7-1.1,2.8c0.4,1.2,1.1,2.2,2.1,3c1.9,1.6,4.2,2.7,6.6,3.2c0.1,0,0.7,0.1,0.8-0.1s-0.4-0.6-0.5-0.7   c-1-0.7-2.1-1.2-3.2-1.4c-0.3-0.1,0.2,0,0.2,0c-0.1,0-0.2-0.1-0.2-0.1c-0.3-0.1,0.5,0.2,0.3,0.1l-0.2-0.1c-0.3-0.1,0.7,0.3,0.3,0.1   s0.3,0.2,0.3,0.2c-0.1,0-0.1-0.1-0.2-0.1l0.3,0.2l-0.1,0l-0.2-0.1c-0.2-0.1,0.4,0.3,0.2,0.1l-0.3-0.2c-0.2-0.1,0,0,0.1,0.1   c-0.1-0.1-0.1-0.1-0.2-0.2c-0.1-0.1-0.2-0.2-0.3-0.3l-0.3-0.3l-0.1-0.1c0.1,0.1,0-0.1,0-0.1c-0.2-0.2-0.3-0.4-0.4-0.7   c-0.3-0.5-0.4-1-0.5-1.5v0.2c-0.1-0.6,0.1-1.2,0.5-1.6l-0.2,0.1c0.1-0.1,0.2-0.1,0.3-0.2c0.1,0,0.4-0.1,0.2-0.1H53   c-0.2,0-0.3,0-0.1,0c-0.5-0.1-1-0.3-1.5-0.6c-0.4-0.2-0.5-0.2-0.2-0.1L51,281c0.1,0.1,0.2,0.1,0.3,0.2l-0.1-0.1l0.2,0.1l0.3,0.3   c0.1,0.1,0.2,0.2,0.3,0.3s0.1,0.1,0,0L52,282c0.1,0.2,0.3,0.4,0.4,0.6c0.3,0.5,0.5,1,0.6,1.5c0.1,0.3,0.7,0.6,0.9,0.8   c0.6,0.3,1.1,0.6,1.7,0.8C55.9,285.8,57.6,286.4,57.5,285.7L57.5,285.7z"/><path class="st0" d="M66.7,274.3c-0.8,0.3-1.5,0.8-1.9,1.6c-0.2,0.3-0.4,0.7-0.5,1.1c0,0.1-0.1,0.2-0.1,0.4c0,0.3,0,0.6,0,0.9   c0.1,1.1,0.6,2.1,1.3,2.9c0.6,0.7,1.4,1.2,2.3,1.5c0.5,0.2,1.1,0.3,1.7,0.3c0.5,0,1.1-0.1,1.6-0.3c0.5-0.2,0.9-0.7,1-1.2   c0.1-0.6,0-1.2-0.3-1.7c-0.3-0.6-0.8-1-1.5-1.3l-0.6-0.2c-0.4-0.1-0.7,0-1.1,0.1l-0.2,0l0.5-0.1c-0.2,0.1-0.4,0.1-0.6,0.1h0.6   c-0.2,0-0.5,0-0.7-0.1l0.6,0.2c-0.2-0.1-0.4-0.2-0.7-0.3l0.6,0.3c-0.2-0.1-0.3-0.2-0.5-0.3l0.5,0.4c-0.1-0.1-0.2-0.2-0.3-0.4   l0.4,0.5c-0.1-0.1-0.2-0.3-0.2-0.4l0.3,0.6c-0.1-0.1-0.1-0.3-0.1-0.4l0.1,0.6c0-0.2,0-0.3,0-0.5v0.6c0-0.2,0.1-0.4,0.1-0.6   l-0.2,0.5c0.1-0.2,0.2-0.4,0.3-0.6l-0.3,0.4c0.1-0.2,0.3-0.3,0.5-0.5l-0.4,0.3c0.2-0.1,0.4-0.2,0.6-0.3c0.5-0.2,0.9-0.7,1-1.2   c0.1-0.6,0-1.2-0.3-1.7c-0.3-0.6-0.8-1-1.5-1.3l-0.6-0.1c-0.4-0.1-0.7,0-1.1,0.1L66.7,274.3z"/><path class="st0" d="M114.1,264.1c0,0,41.5,4,51.2,20.4s5.3,33.7-2.2,32.8s-9.3-14.6-9.3-14.6s1.8,14.6-5.8,19.9   s-12.4-1.1-11.1-6.5c0,0-0.8,4.9-6.7,2.8s-4.1-10-4.1-10s-2.8,2.6-6.7-1.8S121.1,285.2,114.1,264.1z"/><path class="st1" d="M114.2,266.4c3.8,0.4,7.7,1,11.5,1.7c7.7,1.3,15.2,3.4,22.5,6.3c3.6,1.4,7,3.2,10.1,5.5c0.7,0.5,1.3,1,2,1.6   c0.6,0.5,1.2,1.1,1.7,1.6c0.5,0.6,1,1.2,1.5,1.9c0.4,0.6-0.3-0.5,0.1,0.2l0.4,0.6c0.5,0.9,1.1,1.9,1.5,2.9   c2.6,5.1,3.7,10.8,3.5,16.5c-0.1,2.1-0.6,4.2-1.5,6.2c-0.5,1.3-1.4,2.4-2.5,3.1c-1.2,0.6-2.6,0.5-3.6-0.2c-1.5-1-2.6-2.5-3.2-4.2   c-0.7-1.6-1.3-3.2-1.6-4.9c-0.2-0.6-0.3-1.3-0.4-1.9c0-0.2-0.1-0.4-0.1-0.5c-0.1,0.7,0.1,0.6,0.1,0.3c-0.1-1.3-0.9-2.4-2.2-2.7   c-1-0.1-1.9,0.6-2,1.5c0,0.2,0,0.3,0,0.5c0.4,3.2,0.3,6.5-0.4,9.6c-0.4,2.4-1.3,4.7-2.7,6.6c-1.6,2-4.6,4.2-7.4,3.5   c-0.9-0.2-1.6-0.8-2-1.7c-0.5-1-0.6-2.2-0.3-3.3l-4.1-1.9c0,0.1,0,0.1-0.1,0.2c0,0-0.1,0.2-0.1,0.2c0.4-0.6,0.1-0.2,0-0.1   s-0.2,0.5-0.4,0.7c0.3-0.4-0.3,0.3-0.5,0.4c0.3-0.3-0.7,0.3-0.5,0.2c-0.4,0.1-0.7,0.1-1.1,0.1c-1.1,0-2.1-0.4-3-1   c-0.3-0.2-0.5-0.5-0.7-0.8c0.3,0.4-0.4-1.1-0.3-0.6c-0.3-0.7-0.4-1.5-0.4-2.3c0-0.4,0-0.8,0-1.2s0,0.4,0-0.1c0-0.1,0-0.3,0.1-0.4   s0.1-0.6,0.1-0.9c0.4-1.9-1.8-4.4-3.6-2.9c-0.1,0.1-0.2,0.1,0.3-0.2c-0.1,0.1-0.2,0.2-0.3,0.2s-0.3,0.1-0.4,0.2s0.3-0.1,0,0   c-0.2,0-0.3,0.1-0.5,0.1c-0.4,0-0.8-0.1-1.2-0.3c-0.6-0.4-1.2-0.9-1.7-1.5c-0.4-0.3,0.2,0.5,0,0c-0.1-0.2-0.2-0.3-0.2-0.5   c0.3,0.6,0,0.1,0-0.1s-0.1-0.5-0.2-0.8s-0.1-0.7,0-0.2c0-0.3-0.1-0.5-0.1-0.8c-0.1-0.6-0.1-1.2-0.1-1.8c-0.3-7.1,0.2-14.1-0.5-21.1   c-0.6-5.5-1.7-11-3.4-16.3c-0.4-1.1-1.3-2.3-2.6-2.1c-1.1,0.3-1.7,1.4-1.4,2.4c0,0.1,0,0.1,0.1,0.2c3,9.2,3.9,18.7,3.8,28.3   c0,3.1-0.2,6.3,0.1,9.5c0.3,3,1,5.4,3.2,7.5s5.9,3.5,8.6,1.2l-3.6-2.9c-0.9,4.2,0,9.6,3.8,12.2c2.3,1.6,6.1,2.5,8.6,0.8   c1.3-0.9,2.2-2.4,2.4-3.9c0.2-1.3-0.4-2.6-1.6-3.1c-0.8-0.4-1.9-0.1-2.3,0.8c-0.1,0.2-0.1,0.3-0.2,0.5c-0.8,3.6,0.3,7.3,3,9.8   c3,2.7,7.2,2.3,10.4,0.3c5.8-3.6,7.4-10.8,7.6-17.2c0.1-1.7,0-3.4-0.2-5.1l-4.2-0.7c0.4,2.8,1.1,5.6,2.2,8.2c1.6,4,4.4,8.2,8.8,9   c4.1,0.8,7.2-2.4,8.6-6c2.1-5.2,2-11,0.9-16.4c-1.1-5.9-3.6-12.2-7.5-16.8c-2.9-3.1-6.2-5.7-10-7.6c-7.7-4.2-16.4-6.6-24.9-8.5   c-5.2-1.1-10.5-2-15.8-2.5C111,261.4,111.7,266.2,114.2,266.4z"/><path class="st1" d="M137.6,287.1c0.4,2.9,0.5,5.9,0.4,8.8c0,6.4-1.1,12.7-3.1,18.7c-0.7,1.8,3.6,4.3,4.1,2.8   c3.3-9.3,4.3-19.3,3-29.1C141.8,286.8,137.4,284.7,137.6,287.1L137.6,287.1z"/><path class="st1" d="M148.7,292l0.1,0.2c0.1,0.1-0.3-0.5-0.1-0.1l0.2,0.3c0.4,0.7,0.8,1.4,1.1,2.1c0.2,0.5,0.4,1,0.6,1.5   c0.1,0.3,0-0.1,0.1,0.2l0.1,0.4c0.1,0.3,0.2,0.6,0.2,0.9c0.3,1.4,0.5,2.8,0.5,4.2c0,0.4,0.5,0.9,0.7,1.1c0.5,0.4,1.1,0.8,1.7,1   c0.6,0.2,2.1,0.6,2.1-0.4c0.1-4-1.2-7.9-3.5-11.2c-0.8-0.9-1.9-1.5-3.2-1.6c-0.3,0-0.8,0-1,0.4S148.5,291.8,148.7,292L148.7,292z"/><path class="st1" d="M126.3,282.2c0.1,0.2-0.1-0.3,0-0.1s0.1,0.4,0.1,0.5c0.1,0.6,0.2,1.3,0.3,1.9c0.3,2.2,0.5,4.3,0.6,6.5   c0.3,6.3-0.8,12.5-3.3,18.3c-0.5,1,0.9,1.2,1.6,1.1c1.2-0.2,2.2-0.9,2.8-2c4-8.6,4.5-19.3,2.3-28.5   C130.4,278.4,125.9,280.4,126.3,282.2L126.3,282.2z"/><g class="st2"><path class="st0" d="M375.8,389.5l-84.1-8.6l-58.1,15.8l-7.1-26.4l59-16l67.4-49.6c3.2-2.4,7.9-1.1,8.9,2.4l20.6,75.9    C383.2,386.5,379.8,390,375.8,389.5z"/><path class="st3" d="M375.1,387.6l-22.1-2.3l-40.8-4.2l-15.4-1.6l-4.4-0.5c-0.8-0.1-1.6-0.2-2.4-0.1c-2.8,0.6-5.5,1.5-8.3,2.2    l-18.4,5l-30.9,8.4l-0.6,0.1l3.6,2.2l-6.2-23.1l-0.9-3.2l-0.4,1.5l18.4-5l31-8.4l8.8-2.4c0.8-0.2,1.5-0.7,2.2-1.2l18-13.3    l26.7-19.7l19.3-14.3c1.8-1.3,3.8-3.1,6.1-2.5c0.3,0.1,0.5,0.2,0.7,0.4c-0.3-0.2,0,0.1,0,0c0.1,0.3,0.3,0.6,0.4,0.9    c0,0.1,0.1,0.3,0.1,0.5c0.2,0.8,0.5,1.6,0.7,2.5l6.6,24.5l8.6,31.6c1.5,5.5,3.3,11.1,4.5,16.7c0.1,0.2,0-0.8,0,0.2    c0.1,0.8-0.1,1.6-0.5,2.3C378.7,386.7,377,387.6,375.1,387.6c-3-0.3-0.5,3.6,1.4,3.7c4.1,0.3,8.5-2.5,8-7    c-0.1-0.7-0.3-1.4-0.5-2.1l-2.1-7.9l-8.1-30l-8-29.3l-1.9-7.1c-1.4-5.2-8-8.4-12.6-5.1c-4.4,3.1-8.6,6.3-12.9,9.5l-26.5,19.5    l-23,16.9c-1.6,1.3-3.2,2.5-4.9,3.6c-1.2,0.5-2.4,0.9-3.7,1.1l-28.5,7.7l-25.6,6.9l-1.4,0.4c-0.6,0.2-0.5,1-0.4,1.5l6.3,23.1    l0.9,3.3c0.5,1.5,2.1,2.4,3.6,2.2l19.6-5.3l31.4-8.5l7.2-2l-0.9,0.1l28.6,3l45.2,4.6l10.3,1c1,0.1,1.6-0.5,1.3-1.6    C377.3,388.7,376.3,387.9,375.1,387.6z"/></g><polygon class="st3" points="242.8,385.7 362.2,347.1 371.5,377.9 290.8,372.8  "/><path class="st3" d="M242.5,387.4l11.9-3.9l28.5-9.2l34.5-11.2l29.8-9.6l9.8-3.2c1.6-0.4,3.1-0.9,4.7-1.5c0.1,0,0.1,0,0.2-0.1   l-1.8-0.6l8.2,26.9l1.2,3.8l3.6-2.8l-19.2-1.2l-36.9-2.3l-24.1-1.5c-1.8,0-3.5,0.4-5.2,1l-14.9,4l-28.9,7.8l-0.6,0.2   c-1.2,0.3-2.2,1.2-2.6,2.3C240.5,387.4,241.7,387.6,242.5,387.4l16.2-4.4l25.8-7l6-1.6l-1,0.1l27.4,1.7l43.3,2.8l10,0.6   c0.9,0,1.8-0.3,2.4-0.9c0.5-0.4,1.4-1.3,1.2-2l-8.2-26.9l-1.2-3.8c-0.2-0.8-1.1-0.9-1.8-0.6l-11.9,3.9l-28.5,9.2l-34.5,11.2   l-29.8,9.6c-4.8,1.6-9.7,3.1-14.5,4.7l-0.2,0.1c-1,0.3-2.4,1.2-2.6,2.3S241.6,387.7,242.5,387.4z"/><path class="st0" d="M238.8,375.9L244,395"/><path class="st3" d="M236.4,376.6l5.2,19.1c0.2,0.8,5-0.6,4.8-1.4l-5.2-19.1C241,374.5,236.2,375.8,236.4,376.6z"/><path class="st0" d="M333,346.2c0.1-0.1,0.2-0.2,0.3-0.3L333,346.2c0.2-0.2,0.4-0.3,0.6-0.4l-0.4,0.1c0.1,0,0.3-0.1,0.4-0.1   l-0.5,0.1h0.3H333l-0.7-0.1h0.2l-0.6-0.2l0.2,0.1l-0.6-0.2l0.2,0.1l-0.5-0.3l0.2,0.1l-0.3-0.3c0.1,0.1,0.2,0.2,0.2,0.3l-0.2-0.3   c0.1,0.2,0.2,0.4,0.2,0.6v-0.3c0,0.3,0,0.5-0.1,0.8l0.1-0.3c-0.1,0.2-0.2,0.3-0.4,0.4l0.3-0.2c-0.1,0.1-0.2,0.1-0.3,0.2l0.4-0.1   c-0.1,0-0.2,0-0.3,0.1l0.5-0.1h-0.2h0.4l0.7,0.1h-0.1l0.6,0.2l-0.2,0l0.6,0.2l-0.2-0.1l0.5,0.3c-0.1,0-0.1-0.1-0.2-0.1l0.3,0.3   c-0.1-0.1-0.1-0.1-0.2-0.2l0.2,0.3c0-0.1-0.1-0.2-0.1-0.3c-0.1-0.2-0.2-0.3-0.4-0.4c-0.2-0.2-0.4-0.3-0.6-0.4   c-0.3-0.1-0.6-0.2-0.9-0.3c-0.3-0.1-0.7-0.2-1-0.2h-0.6c-0.3,0-0.6,0.1-1,0.2l-0.3,0.2c-0.2,0.1-0.2,0.4-0.1,0.6   c0.2,0.5,0.5,0.8,0.9,1.1c0.7,0.5,1.5,0.7,2.3,0.9c0.5,0.1,1,0.1,1.6,0.1c0.3,0,0.6-0.1,0.9-0.1c0.5-0.1,0.9-0.4,1.3-0.7   c0.2-0.3,0.4-0.6,0.5-1c0-0.4,0-0.7-0.2-1.1c-0.2-0.5-0.6-0.9-1.1-1.1c-0.4-0.3-0.9-0.5-1.3-0.6c-0.6-0.2-1.1-0.3-1.7-0.3   c-1.3-0.2-2.6,0.2-3.6,1.1c-0.2,0.3-0.2,0.7,0.1,0.9c0.2,0.2,0.4,0.3,0.6,0.4c0.2,0.1,0.5,0.3,0.8,0.3c0.6,0.2,1.3,0.3,1.9,0.2   C332.2,346.7,332.7,346.5,333,346.2L333,346.2z"/><path class="st0" d="M353.8,362.4c0-0.2,0.1-0.3,0.1-0.5l-0.1,0.4c0.2-0.4,0.4-0.9,0.6-1.3l0.1-0.2c0.1-0.2,0.1-0.1-0.1,0.1   c0.1-0.1,0.1-0.2,0.2-0.2c0.2-0.2,0.4-0.4,0.5-0.6l-0.2,0.2l0.1-0.1l0.3-0.2l0.1-0.1c0.2-0.1,0.1-0.1-0.2,0.2   c0.1,0,0.5-0.3,0.1-0.1s0,0,0.1,0c-0.5,0.1-0.6,0.2-0.3,0.1c-0.4,0.1-0.5,0.1-0.4,0.1s0.1,0-0.3,0h0.2c-0.3-0.1-0.4-0.1-0.2,0   l0.2,0.1l-0.3-0.2c0.1,0.1,0.3,0.2,0.4,0.3l-0.2-0.3c0.2,0.2,0.2,0.5,0.3,0.8v-0.3c0,0.5,0,0.9-0.2,1.4l0.1-0.4   c-0.2,0.5-0.4,0.9-0.7,1.3c-0.2,0.3,0.3-0.4,0,0c-0.1,0.1-0.2,0.2-0.2,0.3l-0.3,0.3c-0.4,0.4,0.3-0.3,0,0s-0.4,0.3-0.6,0.5   s0.6-0.4,0.1-0.1l-0.3,0.2c-0.5,0.3,0.5-0.2,0.2-0.1l-0.4,0.1c-0.6,0.2,0.6-0.1,0.2,0c-0.1,0-0.2,0.1-0.4,0.1   c-0.6,0.1-1.2,0.4-1.8,0.8c-0.3,0.2-0.8,0.7-0.8,1.1c0,1.1,1.5,0.9,2.2,0.8c1.7-0.4,3.3-1.2,4.7-2.3c1.1-0.9,2-2,2.6-3.4   c0.3-0.7,0.4-1.4,0.3-2.1c-0.1-0.7-0.6-1.3-1.2-1.6c-1.2-0.4-2.5-0.3-3.6,0.2c-0.9,0.3-1.8,0.8-2.6,1.5c-1.4,1.1-2.4,2.6-2.9,4.4   c-0.1,0.4,0.3,0.7,0.6,0.8c0.5,0.2,1.1,0.2,1.6,0c1-0.3,2.3-0.8,2.5-1.9L353.8,362.4z"/><path class="st0" d="M351.3,341.9c0.2,0.1,0.4,0.2,0.6,0.3l-0.2-0.2l0.2,0.1c0.1,0,0.3,0.3,0,0l0,0c0,0.1,0.2,0.2-0.1-0.1   c-0.2-0.3-0.4-0.6-0.6-1c0.1,0.3-0.2-0.5-0.2-0.5c0-0.1-0.1-0.3-0.1-0.4c0.1,0.2-0.1-0.4-0.1-0.3c0,0,0,0.1,0,0.1c0,0,0-0.4,0-0.2   c0,0,0,0.1,0,0.1v0.2v-0.3c0,0.3-0.1,0.7-0.3,0.9l0.1-0.1c-0.6,0.8-1.5,1.2-2.4,1.1h0.2c-0.2,0-0.4-0.1-0.6-0.1   c-0.7-0.2,0,1.7,0.1,1.9c0.2,0.6,0.5,1.2,0.9,1.7c0.2,0.3,0.5,0.8,0.8,0.9c1.1,0.3,2.2,0.1,3-0.7c0.4-0.5,0.7-1.1,0.7-1.7   c0-0.5-0.1-1-0.3-1.5c-0.2-0.8-0.6-1.6-1-2.3c-0.5-1-1.3-1.9-2.4-2.3c-0.7-0.2,0,1.7,0.1,1.9c0.2,0.6,0.5,1.2,0.9,1.7l0.3,0.4   C350.9,341.6,351.1,341.7,351.3,341.9L351.3,341.9z"/><path class="st0" d="M305.6,335.4c0,0-18-3.5-35.3,3.2s-32.8,23.1-28.9,28.9s22.2-10.9,22.2-10.9s-6.4,10.3-4.5,20.2   s7.4,8.4,9.3,4.8c0,0,0.6,3.5,6.7,2.9s3.5-11.5,3.5-11.5s3.2,7.7,7.7,2.9s0.6-13.2,3.9-22.5S305.6,335.4,305.6,335.4z"/><path class="st1" d="M305.5,333.8c-7-1.2-14.1-1.4-21.1-0.5c-11.5,1.3-22.5,5.8-31.7,12.8c-3.8,2.8-7.2,6-10.1,9.7   c-2,2.5-4,5.5-4.2,8.8c-0.2,3,2.2,5.2,5,5.7c3,0.5,6-0.9,8.6-2.3c4.9-2.8,9.5-6.2,13.6-10.1l-4.4-2.1c-2.8,4.5-4.4,9.7-4.9,15   c-0.4,5.7,1.4,15.3,8.8,15.4c2.4,0,4.5-1.4,5.6-3.5l-4.7-1.4c0.9,4.4,6.8,5.5,10.4,5c4.5-0.6,5.4-5.3,5.1-9.1   c-0.1-1.2-0.2-2.4-0.5-3.6l-4.7-0.6c1.2,2.8,3.5,5.4,6.5,6c5.1,1.1,7.7-4.1,8.2-8.3c0.6-5.6-0.4-11.2,1.6-16.6   c1.6-4.5,4.9-8.2,8.2-11.5c2.1-2.1,4.4-4.1,6.8-5.8c1-0.7-0.4-2-1-2.3c-1-0.7-2.2-0.7-3.2-0.1c-5.3,3.7-9.8,8.4-13.4,13.8   c-2.8,4.4-3.7,9.3-3.8,14.5c-0.1,4,0.8,9.4-2.4,12.5c-0.3,0.3-0.7,0.6-1.1,0.8c-0.8,0.4,0.1-0.1-0.3,0.1c-0.3,0.1,0.5,0.1,0,0   c0.2,0,0.4,0.2,0.1,0c0.6,0.4-0.2-0.4,0.2,0.1c-0.4-0.4-0.4-0.3-0.6-0.5s-0.5-0.6-0.7-0.9c-0.1-0.2-0.2-0.4-0.3-0.5   c-0.1-0.3-0.3-0.6-0.4-0.9c-0.6-1-1.6-1.6-2.7-1.7c-0.6-0.1-2.2,0.1-2,1.1c0.6,2.7,1,6-0.1,8.6c-0.8,1.9-2.6,2.2-4.5,1.7   c-0.6-0.1,0.1,0.1-0.3-0.1c0.7,0.3-0.6-0.4,0,0c-0.1-0.1-0.3-0.2-0.4-0.3c0.4,0.4,0,0,0,0c-0.1-0.4,0.1,0.4,0,0   c0-0.1-0.1-0.3-0.1-0.3s-0.1-0.7,0,0.1c-0.3-1.7-3.7-3.2-4.7-1.4c-0.3,0.6-0.8,1-1.2,1.5c-0.2,0.1-0.4,0.3-0.6,0.4   c-0.1,0-0.6,0.2-0.2,0.1c-0.1,0-0.6,0.1-0.4,0.1s-0.4-0.1-0.1,0h0.2c-0.3-0.1,0.2,0.1,0.2,0.1c-0.1,0-0.2-0.1-0.2-0.1   c0-0.1,0,0,0.1,0.1c-0.1-0.1-0.2-0.2-0.3-0.3c0.2,0.2-0.2-0.2-0.2-0.3s-0.2-0.3-0.3-0.4c-0.3-0.6-0.6-1.2-0.8-1.8   c-2.2-6-0.9-12.7,1.6-18.4c0.6-1.5,1.3-2.9,2.1-4.2c0.5-0.9-0.9-1.9-1.5-2.1c-0.9-0.4-2.2-0.7-3,0c-3.2,2.9-6.6,5.6-10.1,8   c-1.2,0.8-2.4,1.5-3.7,2.2c-1.1,0.6-2.2,1-3.3,1.4c-0.3,0.1-0.6,0.1-0.8,0.2h-0.3c0.5,0,0.2,0,0.1,0h-0.4c0,0,0.6,0.1,0.2,0   s0.7,0.3,0.4,0.2s0.3,0.3,0.2,0.2c-0.3-0.4,0,0.2-0.1-0.2c0-0.1-0.2-0.7-0.1-0.3c-0.1-0.3-0.1-0.6-0.1-0.9c0-2.5,1.8-5.3,3.4-7.4   c2.6-3.3,5.6-6.3,8.9-8.9c8.2-6.7,18-11.1,28.5-12.8c5.1-0.8,10.3-1,15.5-0.7c0.9,0.1,1.8,0.1,2.7,0.2l1.3,0.1l0.5,0.1   c0.6,0.1,1.2,0.2,1.8,0.3c0.9,0.2,2.3,0.1,2.3-1.1S306.4,334,305.5,333.8z"/><path class="st1" d="M270.7,353c-1.5,3.1-2.8,6.3-3.7,9.7c-1.6,5.6-2.5,11.9-0.1,17.4c0.5,1,1.1,2,1.9,2.9c0.2,0.2,1.4,1.3,1,0.4   c-2.3-5.4-1.2-11.7,0.4-17.1c0.9-3.2,2.1-6.2,3.5-9.2c0.3-0.6-0.8-1.9-1.1-2.3C272.4,354.6,270.8,352.8,270.7,353L270.7,353z"/><path class="st1" d="M277.5,356.5c-0.8,1.7-1.3,3.4-1.6,5.2c-0.8,4-0.7,8.1,0.3,12c0.3,1.2,5.1-0.3,4.7-1.7   c-1.5-5.6-1.1-11.5,1.3-16.8c0.4-0.9-1.8-0.6-2-0.5C279.2,355,278.2,355.6,277.5,356.5L277.5,356.5z"/><path class="st1" d="M314.9,202.2c-11.5-58.4-52.1-62.1-77.8-55.8s-39.2,21.3-40.5,33.3c-1,9,32.8,48.9,32.8,48.9l55.9,24.7   C285.2,253.4,323.7,246.8,314.9,202.2z"/><path class="st0" d="M212.9,260.1c-21.1-13-11.9-71.5-11.9-71.5c8.8-4.2,21.9-16.9,21.9-16.9c2.6,29.5,37.9,28.7,37.9,28.7   c2.8-17,22-16.2,24.9-1s-11,20.6-11,20.6s17.1,34.9,17.2,41.2c0,0-19.8,23.3-40.7,5.8C251.2,267,227.2,268.9,212.9,260.1z"/><path class="st1" d="M213.8,259.8l-0.5-0.3l-0.2-0.1l-0.5-0.4l-0.2-0.2c-0.6-0.5-1.2-1.1-1.7-1.7c-1-1.2-1.9-2.4-2.7-3.8   c-1.8-3.1-3.1-6.5-4-10c-1.9-7.8-2.9-15.9-2.8-23.9c-0.1-7.1,0.3-14.2,1-21.2c0.2-2.1,0.4-4.2,0.7-6.3c0-0.6,0.1-1.1,0.2-1.7   c0.2-0.7,0.6-0.6,1.4-1c4.8-2.8,9.3-6.1,13.4-9.8c2.4-2.1,4.9-4.2,7.2-6.5l-4.4-2.1c0.4,5.2,2.1,10.2,5,14.5   c2.7,3.8,6.1,6.9,10.1,9.2c6.7,3.9,14.3,6.3,22.1,7c1.6,0.2,3.1,0.3,4.7,0.2c0.2,0,0.4,0,0.5-0.2c0.8-4.5,2.9-9.1,7.1-11.2   c1.6-0.9,3.5-1.3,5.3-1.2c0.8,0,1.5,0.2,2.2,0.4c0.4,0.1-0.1-0.1,0.2,0.1s-0.2-0.1,0.2,0.1c0.1,0.1,0.6,0.3,0.2,0.1   c0.1,0.1,0.2,0.1,0.3,0.2c0.3,0.2-0.2-0.2,0.1,0c3.6,2.6,5.1,7.9,5.1,12.4c0,4.6-1.9,9-5.2,12.2c-1.7,1.7-3.7,3.1-6,4.1   c-0.1,0-0.2,0.2-0.2,0.3c0,0,0,0,0,0c2.7,5.6,5.4,11.2,7.9,16.8c2,4.4,4,8.9,5.8,13.4c1.4,3.2,2.6,6.5,3.4,9.8   c0,0.2,0.1,0.5,0.1,0.8s0,0.4,0,0.3c-0.1,0.2-0.3,0.3-0.4,0.5c-0.8,0.9-1.7,1.7-2.6,2.5c-3.2,2.9-6.9,5.3-10.9,7   c-5,2.1-10.6,2.8-15.8,1.2c-1.3-0.4-2.6-1-3.8-1.7c-1.7-1-3.1-2.5-4.9-3.3c-1.1-0.5-2.3-0.6-3.5-0.4c-4.3,0.2-8.7,0.1-13-0.3   c-6-0.4-11.8-1.7-17.4-3.9C216.1,261.1,214.9,260.5,213.8,259.8c-0.6-0.4-2.2-1.4-3-1s0.9,1.4,1.1,1.6c11.1,6.8,24.9,8.4,37.7,8   c1.1,0,2.2-0.1,3.3-0.1l-3.1-1.3c7.6,6.3,17.6,9.6,27.3,6.7c6-2,11.4-5.4,15.8-10c0.4-0.4,0.8-0.8,1.2-1.2c0.1-0.5,0.1-1.1-0.1-1.6   c-0.6-2.4-1.3-4.8-2.3-7.1c-2.6-6.7-5.6-13.3-8.6-19.8c-2-4.4-4.1-8.7-6.2-13l-0.2,0.3c6.9-2.8,11.4-9.4,11.6-16.8   c0.2-5.5-2.2-10.7-6.5-14.2c-3.8-2.9-9-4.7-13.7-3.3c-5.5,1.6-8.6,6.9-9.5,12.3l0.5-0.2c-3.8,0-7.5-0.4-11.2-1.3   c-1-0.2-1.3-0.3-2.1-0.6s-1.7-0.5-2.5-0.8l-0.7-0.2l-0.2-0.1c-0.4-0.2-0.9-0.3-1.3-0.5l-0.7-0.3c-0.2-0.1-0.6-0.3-0.2-0.1   c-0.5-0.2-0.9-0.5-1.4-0.7l-0.6-0.3c-0.4-0.2,0.2,0.1-0.2-0.1s-0.9-0.5-1.3-0.8l-0.3-0.2l-0.6-0.4c-0.4-0.3-0.9-0.6-1.3-1   c-1.5-1.2-2.8-2.6-3.9-4.1c-3.2-4.4-5.1-9.6-5.4-14.9c-0.1-1-3.6-2.9-4.4-2.1c-5.6,5.7-11.8,10.7-18.5,15c-0.9,0.6-1.8,1.1-2.8,1.6   c-0.3,0.1-0.5,0.2-0.7,0.5c-0.1,0.4-0.2,0.8-0.2,1.2c-0.3,2-0.5,3.9-0.7,5.9c-0.7,6.9-1.1,13.9-1.1,20.8   c-0.1,8.3,0.7,16.7,2.6,24.8c1.9,7.9,5.5,15.7,12.7,20.1c0.6,0.4,2.2,1.4,3,1S214,260,213.8,259.8z"/><path class="st1" d="M249.5,241.6c2.5,0,4.9-0.9,6.7-2.6c1.6-1.7,2.4-4,2.1-6.4c0-0.4-1.6-0.3-1.9-0.3s-1.9,0.1-1.9,0.4   c0.4,3.1-1.1,6.1-3.8,7.6c-0.4,0.2-0.8,0.4-1.1,0.5h-0.1l-0.3,0.1c-0.3,0.1,0.3,0,0,0h0.1c-0.2,0-0.1,0,0.2,0   c-0.4,0-0.9,0.1-1.3,0.1c-0.1,0-0.5,0.1-0.5,0.3C247.7,241.6,249.5,241.6,249.5,241.6L249.5,241.6z"/><path class="st1" d="M230.6,209.2c0,0-3.3,1.5-1.6,4.6s5.5,1,4.9-2.1c-0.1-1.5-1.4-2.6-2.8-2.5   C230.9,209.2,230.8,209.2,230.6,209.2z"/><path class="st1" d="M207.5,213.2c0,0-3.3,1.5-1.6,4.5s5.5,1,4.9-2.1S207.5,213.2,207.5,213.2z"/><path class="st1" d="M300,220.5c3.4,4.6,7.4,8.8,11.8,12.5c5.7,4.6,15.1,10,21.5,3.7c3.4-3.3,5.1-8.8,5.5-13.4   c0.3-3.7-0.9-7.4-3.5-10.1c-4.3-4.4-12.5-6.4-17.2-1.5c-2.2,2.3-2.5,5.7-1.8,8.7c1.2,5.1,4.4,9.5,7.8,13.3   c7.5,8.2,17.3,13.8,28.1,16.2c6.3,1.3,16.1,0.9,16.1-7.7c0-8.2-7-13.7-14.5-15.2c-5.8-1.2-13.6-0.1-17.5,4.9   c-5.4,6.9,2.6,15.2,7.6,19.3c2.8,2.3,5.8,4.3,8.9,6.2c0.5,0.3,2.2,1.2,2.7,0.4s-1.1-1.9-1.6-2.2c-4.5-2.7-9.2-5.9-12.3-10.1   c-1.7-2.3-3-5.1-2.4-8c1.1-5.2,7.5-7.4,12.1-7.7c1.4-0.1,2.8,0,4.2,0.2l0.5,0.1h0.2c0.4,0.1,0.8,0.2,1.2,0.3c0.2,0.1,1,0.3,0.8,0.2   s0.2,0.1,0.3,0.1l0.5,0.2l0.5,0.2c-0.4-0.2-0.3-0.1,0,0l0.4,0.2l0.2,0.1c0.3,0.2-0.5-0.4-0.1-0.1l0.8,0.6c-0.5-0.4,0.3,0.3,0.5,0.4   s0.4,0.4,0.2,0.2s0.1,0.2,0.2,0.2c0.2,0.3,0.5,0.7,0.7,1c0,0,0.2,0.4,0.4,0.7s0.3,0.7,0.5,1.1c1,2.7,1.3,6.2-0.5,8.7   s-4.8,2.9-7.4,2.9c-3.8-0.1-7.5-0.9-10.9-2.3c-4.3-1.7-8.3-4-11.8-6.9c-3.8-2.9-6.9-6.5-9.4-10.6c-1.7-2.9-3.2-6.5-2.4-10   c0.5-2.3,2.2-4.3,4.5-5.1c1.1-0.4,2.2-0.6,3.3-0.6h0.1h0.4h0.4l0.4,0.1l0.2,0.1l0.4,0.1c0.5,0.1-0.1-0.1,0,0l0.5,0.2   c0.3,0.1,0.2,0.1-0.1,0l0.4,0.2l0.4,0.2c-0.5-0.3-0.2-0.1,0.1,0.1s0.3,0.2,0,0c0.1,0.1,0.2,0.2,0.3,0.3l0.3,0.3   c0.2,0.2-0.2-0.2,0.1,0.1c0.4,0.5,0.7,1,1,1.6c0.3,0.6,0.5,1.3,0.7,1.9c1,4.1-0.2,8.5-1.9,12.2c-1.4,3.1-3.8,6.4-7.4,7   c-1.3,0.2-2.7,0.1-3.9-0.4c-0.1,0-0.6-0.2-0.4-0.1l-0.4-0.1c-0.4-0.2-0.9-0.4-1.3-0.6l-0.1-0.1l-0.5-0.3c-0.4-0.2-0.8-0.5-1.2-0.7   c-0.2-0.1-0.5-0.4-0.2-0.1l-0.5-0.4l-1.2-0.9l-1-0.8l-0.5-0.4l-0.2-0.2c-0.3-0.2,0.2,0.2,0,0c-1.3-1.2-2.6-2.4-3.9-3.7   c-0.6-0.6-1.1-1.2-1.7-1.8L307,225c0.3,0.3-0.3-0.4-0.5-0.5c-0.7-0.8-1.4-1.6-2-2.4l-0.7-0.9c-0.7-1-1.8-1.6-3-1.8   C299.8,219.2,299.5,219.8,300,220.5L300,220.5z"/><g class="st2"><ellipse class="st3" transform="matrix(0.9853 -0.1707 0.1707 0.9853 -32.324 43.6702)" cx="237.8" cy="209.8" rx="18" ry="18.7"/><path class="st3" d="M238,228.9c-9.2-0.1-17-6.9-18.5-16c-1.8-10.4,4.9-20.3,15-22.1s19.7,5.3,21.5,15.7l0,0    c1.8,10.4-4.9,20.3-15,22.1C240.1,228.8,239,228.9,238,228.9z M237.6,191.6c-1,0-1.9,0.1-2.9,0.2c-9.5,1.6-15.9,11-14.2,20.9    s10.9,16.6,20.4,14.9s15.9-11,14.2-20.9C253.7,198.1,246.3,191.7,237.6,191.6L237.6,191.6z"/></g><g class="st2"><ellipse class="st3" transform="matrix(0.9853 -0.1707 0.1707 0.9853 -33.3774 36.4074)" cx="195" cy="212.3" rx="18" ry="18.7"/><path class="st3" d="M195.2,231.4c-3.9,0-7.7-1.3-10.8-3.6c-4.1-3-6.8-7.5-7.7-12.4c-1.8-10.4,4.9-20.3,15-22.1    c4.9-0.8,9.9,0.4,13.9,3.3c8.4,6.2,10.5,18,4.6,26.7C206.9,228.4,201.2,231.4,195.2,231.4L195.2,231.4z M194.8,194.1    c-1,0-2,0.1-2.9,0.2c-9.5,1.6-15.9,11-14.2,20.9c0.8,4.7,3.4,9,7.3,11.8c7.6,5.6,18.3,4,23.9-3.5c0.2-0.2,0.3-0.5,0.5-0.7    c5.5-8.3,3.6-19.4-4.4-25.3C202.1,195.3,198.5,194.1,194.8,194.1L194.8,194.1z"/></g><path class="st0" d="M218,215c0,0-4.8,6.9-14.8,14.3c-18.7,13.9-17.4,22.2-9,22.9s34.6-16.6,34.6-16.6"/><path class="st1" d="M216,214.4c-4.5,6.4-11,11.1-17,15.9c-3.9,2.9-7.3,6.3-10.1,10.2c-1.6,2.3-3.2,5.2-2.8,8.1   c0.7,5.2,7.3,6,11.4,5.1c6.8-1.5,13.2-5.1,19.2-8.5c4.5-2.6,9-5.2,13.3-8.1c0.8-0.5,1.8-1.5,1-2.5s-2.5-0.8-3.3-0.2   c-3.3,2.2-6.7,4.2-10.1,6.2c-3,1.8-6.1,3.5-9.2,5.1c-1.6,0.8-3.1,1.6-4.8,2.3c-1.2,0.6-2.3,1-3.9,1.6c-0.6,0.2-1.2,0.4-1.8,0.6   c-0.3,0.1-0.6,0.2-0.9,0.2c0.6-0.1-0.2,0-0.4,0.1s-0.6,0.1-0.8,0.1s-0.6,0-0.1,0c-0.2,0-0.5,0-0.7,0s-1-0.2-0.5-0.1   c-0.5-0.1-1-0.2-1.4-0.4c-0.4-0.1,0.2,0.2-0.2-0.1l-0.6-0.4l-0.3-0.2c0,0,0.3,0.3,0.1,0.1c-0.2-0.1-0.3-0.3-0.4-0.5   c-0.1-0.1-0.2-0.3-0.3-0.4c0.2,0.4-0.1-0.3-0.1-0.4s-0.1-0.3-0.1-0.5c-0.1-0.5,0,0.1,0-0.4c0-0.5,0.1-1,0.2-1.6   c-0.1,0.3,0.1-0.4,0.1-0.5c0.1-0.3,0.2-0.6,0.3-0.8c0.3-0.6,0.6-1.2,0.9-1.7c2.4-3.5,5.3-6.6,8.7-9.2c2.6-2.1,5.4-4.1,7.9-6.2   c2.2-1.8,4.2-3.8,6.2-5.8c1.8-1.8,3.4-3.7,4.9-5.7c0.5-0.6,0.5-1.5-0.1-2c-0.2-0.2-0.4-0.3-0.6-0.3   C218.2,213,216.9,213.4,216,214.4L216,214.4z"/><g class="st2"><path class="st0" d="M258.1,408.8c0,17.9-20.6,32.4-46.1,32.4s-46.1-14.5-46.1-32.4H258.1z"/><path class="st3" d="M255.6,408.6c-0.1,15.8-15,26-28.8,29.9c-16.2,4.5-35.4,2.1-48.3-9.2c-5.9-5.1-10.1-12.2-10.1-20.2l-1.3,0.4    h80.9c3.7,0,7.5,0.1,11.2,0h0.2c0.6,0,1.6-0.1,1-0.7s-2.6-0.6-3.4-0.6H176c-3.7,0-7.5-0.1-11.2,0h-0.2c-0.2,0-1.3,0-1.3,0.4    c0.1,17,17.1,27.5,31.8,31.2c17.9,4.5,39.6,2.6,54.3-9.4c6.4-5.3,11.1-12.7,11.2-21.2C260.6,408.1,255.6,407.8,255.6,408.6z"/></g><path class="st3" d="M181.7,317c6,3.9,8.3,12,10,18.6c2.2,8.4,3.1,17,2.7,25.6c0,2.1-0.2,4.2-0.5,6.3c-0.1,1.6-1.1,3.1-2.5,3.9   c-2.2,1.1-5,0.3-5.2-2.4c-0.1-1.1,0.5-2.9,1.8-3.2s2.6,1.7,3.2,2.6c1.9,2.6,3.3,5.5,4,8.7c1.9,7.7,1.1,15.9,0.3,23.7   c-0.3,2.5,4,4.3,4.3,1.2c0.9-8.4,1.7-17.3-0.6-25.6c-1.1-4.2-3.1-8.1-5.9-11.5c-1.6-1.8-3.5-3.7-6-3.8c-2.3,0-4.3,1.5-5,3.6   c-1.7,4,0.7,9.2,4.6,11c3.9,1.8,8.6,0.1,10.5-3.8c0,0,0-0.1,0-0.1c1-2.3,1-4.9,1.2-7.4c0.2-2.6,0.2-5.3,0.2-8   c-0.1-5.3-0.7-10.5-1.7-15.7c-1-5.5-2.6-10.9-4.8-16c-1.9-4.8-5.2-8.9-9.5-11.9c-0.8-0.6-1.9-0.4-2.5,0.4c-0.1,0.1-0.2,0.3-0.2,0.4   C179.9,315.1,180.5,316.3,181.7,317L181.7,317z"/><path class="st3" d="M248.4,382.1c-2.4,0.6-4.7,1.3-7,2.1c-3,1-6,2.2-8.9,3.6c-1.2,0.5-2.3,1.2-3.4,1.9c-1,0.9-1.8,2-2.2,3.2   c-0.4,0.6-0.6,1.3-0.8,2c-0.1,0.9-0.2,1.9-0.1,2.8c0,1.3-0.1,2.4-0.2,3.9c-0.2,3.6-0.5,7.3-0.5,11c0.1,2.8,5,2.2,5-0.6   c0-1.3,0-2,0.1-3.3c0.1-1.7,0.2-3.3,0.3-5c0.1-1.5,0.2-3,0.2-4.6c0-0.7,0.1-1.3,0.1-2c0-0.3,0-0.6,0-0.9s0.2-1,0.1-0.7   c0.2-0.7,0.6-1.3,0.9-1.9c0.1-0.2,0.2-0.4,0.3-0.7c-0.1,0.4-0.2,0.3,0.1,0c0,0-0.3,0.2,0,0l0.6-0.4c0.5-0.3,1.1-0.6,1.6-0.9   c-0.4,0.2,0.4-0.2,0.5-0.2l0.9-0.4c0.7-0.3,1.4-0.6,2.1-0.9c1.4-0.6,2.9-1.1,4.3-1.7s3-1,4.5-1.5c0.5-0.2,1.1-0.3,1.6-0.5   c0.2-0.1,0.5-0.1,0.7-0.2c0.4-0.1-0.7,0.1,0,0c1.2-0.2,2.4-1.1,2.2-2.4C250.9,382.7,249.7,381.9,248.4,382.1L248.4,382.1z"/><path class="st3" d="M177.1,421.1c0,0,11.7,14.4,35.8,14.9c14,0.4,27.2-6.7,34.6-18.6L177.1,421.1z"/><path class="st3" d="M174.9,421.8c1.8,2.1,3.9,4,6.2,5.5c5.8,4.1,12.4,7,19.4,8.6c8.6,2,18,2.2,26.6-0.5c6.2-1.9,11.8-5.3,16.5-9.8   c2.4-2.3,4.5-4.9,6.2-7.7c0.7-1.2-1.7-1.8-2.4-1.7l-23.8,1.2l-37.9,2l-8.7,0.5c-0.8,0-2.5,0.2-2.5,1.3s1.8,1.4,2.5,1.4l23.8-1.2   l37.9-2l8.7-0.5l-2.4-1.7c-1.2,2-2.6,3.9-4.2,5.6c-3.8,4.1-8.5,7.4-13.7,9.5c-7.2,2.9-15.2,3.1-22.8,1.7   c-6.5-1.2-12.7-3.7-18.2-7.3c-2.6-1.7-5-3.7-7-6C178.2,419.2,173.4,419.9,174.9,421.8z"/><path class="st3" d="M195,407.5l-0.3,14.9c0,0.7,2.4,0,2.6-0.1c0.7-0.2,2.1-0.7,2.1-1.6l0.3-14.9c0-0.7-2.4,0-2.6,0.1   C196.4,406.2,195,406.7,195,407.5z"/><path class="st3" d="M231.7,420c0.9-3.8,3.2-7,6.5-9c0.2-0.1-0.6-0.6-0.5-0.6c-0.5-0.3-1-0.6-1.6-0.8c-0.5-0.2-1.1-0.4-1.7-0.6   c-0.3-0.1-0.5-0.1-0.8,0c-3.3,2-5.6,5.2-6.5,9c0,0.2,0.5,0.5,0.6,0.6c0.5,0.3,1,0.6,1.6,0.8C229.5,419.6,231.6,420.5,231.7,420   L231.7,420z"/><path class="st3" d="M189.5,414.8c-2.3-1.7-4.9-2.9-7.6-3.7c-0.6-0.2-1.3-0.2-1.9,0c-0.6,0.1-1.1,0.5-1.4,0.9   c-0.3,0.4-0.3,0.9-0.1,1.3c0.3,0.4,0.7,0.8,1.2,0.9c0.6,0.1,1.1,0.3,1.7,0.5l0.3,0.1l0.2,0.1l-0.2-0.1l0.8,0.3c1,0.5,2,1,2.9,1.7   l-0.4-0.3l0.5,0.3c0.4,0.4,1,0.6,1.6,0.6c0.7,0.1,1.3-0.1,1.9-0.4c0.5-0.2,0.9-0.6,1.1-1.1C190,415.6,189.8,415.1,189.5,414.8   L189.5,414.8z"/><path class="st3" d="M212.5,413.2c0-0.5,0.1-1.1,0.3-1.6v0.1c0.2-0.6,0.5-1.1,0.9-1.6c0.2-0.2-0.2-0.3-0.3-0.3c-0.2,0-0.4,0-0.7,0   c-0.3,0-0.6,0-0.9,0.1c-0.6,0.1-1.3,0.3-1.9,0.5c-0.4,0.1-0.7,0.3-1,0.6c-0.8,0.9-1.2,2.1-1.2,3.3c0,0.2,0.8,0.2,0.8,0.2   c0.6,0,1.2-0.1,1.8-0.3c0.6-0.1,1.1-0.3,1.7-0.6C212.2,413.6,212.6,413.5,212.5,413.2L212.5,413.2z"/></g><g id="science"><path class="st1" d="M116,107c13.2-9.8,25.7-20.4,37.5-31.7c1.5-1.5-1.2-4-2.8-2.5c-11.6,11.1-23.9,21.6-36.9,31.2   C112.2,105.2,114.4,108.2,116,107L116,107z"/><path class="st1" d="M150.2,74.4c-4.9,14.9-8.3,30.3-10.2,45.9c-0.1,0.8,1.4,0.3,1.7,0.1c0.8-0.3,1.4-1,1.6-1.8   c1.9-15.4,5.3-30.6,10.1-45.4c0.3-0.8-0.7-0.7-1.2-0.6C151.3,73,150.6,73.6,150.2,74.4L150.2,74.4z"/><path class="st1" d="M141.7,121.1c14.4-0.4,28.9,1,42.9,4.4c0.9,0.2,2.1,0.3,2.5-0.7c4.4-12,9.4-23.8,14.9-35.4   c0.4-0.8-0.5-1.3-1.1-1.5c-12.5-4.5-25.2-8.5-37.7-12.7c-3.2-1.1-6.4-2.2-9.6-3.3c-0.7-0.2-2-0.3-2.4,0.4s0.6,1.3,1.1,1.5   c12.5,4.5,25.2,8.5,37.7,12.7c3.2,1.1,6.4,2.2,9.6,3.4l-1.1-1.5c-5.6,11.8-10.6,23.8-15.1,36l2.5-0.7c-14.7-3.6-29.8-5.2-44.9-4.7   c-0.6,0-1.7,0.3-1.5,1.1S141,121.1,141.7,121.1L141.7,121.1z"/><circle class="st3" cx="152.8" cy="73.8" r="5.6"/><path class="st3" d="M152.8,79.8c-3.4,0-6.1-2.7-6.1-6.1c0-3.4,2.7-6.1,6.1-6.1c3.4,0,6.1,2.7,6.1,6.1c0,0,0,0,0,0   C158.9,77.1,156.2,79.8,152.8,79.8z M152.8,68.7c-2.8,0-5.1,2.3-5.1,5.1c0,2.8,2.3,5.1,5.1,5.1c2.8,0,5.1-2.3,5.1-5.1l0,0   C157.9,71,155.6,68.7,152.8,68.7z"/><circle class="st3" cx="113.7" cy="106" r="5.6"/><path class="st3" d="M113.7,112.1c-3.4,0-6.1-2.7-6.1-6.1c0-3.4,2.7-6.1,6.1-6.1c3.4,0,6.1,2.7,6.1,6.1   C119.7,109.4,117,112.1,113.7,112.1z M113.7,100.9c-2.8,0-5.1,2.3-5.1,5.1c0,2.8,2.3,5.1,5.1,5.1c2.8,0,5.1-2.3,5.1-5.1   C118.7,103.2,116.5,100.9,113.7,100.9z"/><circle class="st3" cx="141.7" cy="118.5" r="5.6"/><path class="st3" d="M141.7,124.6c-3.4,0-6.1-2.7-6.1-6.1s2.7-6.1,6.1-6.1c3.4,0,6.1,2.7,6.1,6.1c0,0,0,0,0,0   C147.7,121.8,145,124.6,141.7,124.6z M141.7,113.4c-2.8,0-5.1,2.3-5.1,5.1c0,2.8,2.3,5.1,5.1,5.1c2.8,0,5.1-2.3,5.1-5.1   c0,0,0,0,0,0C146.7,115.7,144.5,113.4,141.7,113.4z"/><circle class="st3" cx="185.1" cy="124.2" r="5.6"/><path class="st3" d="M185.1,130.3c-3.4,0-6.1-2.7-6.1-6.1c0-3.4,2.7-6.1,6.1-6.1c3.4,0,6.1,2.7,6.1,6.1c0,0,0,0,0,0   C191.1,127.5,188.4,130.3,185.1,130.3z M185.1,119.1c-2.8,0-5.1,2.3-5.1,5.1c0,2.8,2.3,5.1,5.1,5.1c2.8,0,5.1-2.3,5.1-5.1   c0,0,0,0,0,0C190.1,121.4,187.9,119.1,185.1,119.1z"/><circle class="st3" cx="200.4" cy="88.1" r="5.6"/><path class="st3" d="M200.4,94.2c-3.4,0-6.1-2.7-6.1-6.1c0-3.4,2.7-6.1,6.1-6.1c3.4,0,6.1,2.7,6.1,6.1c0,0,0,0,0,0   C206.5,91.5,203.8,94.2,200.4,94.2z M200.4,83c-2.8,0-5.1,2.3-5.1,5.1c0,2.8,2.3,5.1,5.1,5.1c2.8,0,5.1-2.3,5.1-5.1c0,0,0,0,0,0   C205.5,85.3,203.2,83,200.4,83C200.4,83,200.4,83,200.4,83L200.4,83z"/><path class="st1" d="M304.3,66c6,11.2,12.5,22,19.7,32.4c0.6,1.1,1.5,2.1,2.6,2.8c1.3,0.7,2.7,0.9,4.1,0.5c2.8-0.6,5.2-2.6,7.6-4.1   c5.2-3.3,10.5-6.3,16-9c6.1-3,12.4-5.6,18.9-7.8l-2.5-0.4l6.6,15.1c0.7,1.5,4.2,0.3,3.4-1.4L374.2,79c-0.4-0.9-1.8-0.7-2.5-0.4   c-10.9,3.8-21.4,8.6-31.3,14.5c-2.4,1.4-4.8,2.9-7.1,4.5c-1,0.8-2.1,1.4-3.3,1.6c-1.2,0.1-1.9-1.3-2.5-2.2   c-3.3-4.9-6.5-9.8-9.6-14.8c-3.5-5.8-6.9-11.6-10.1-17.6C306.9,63,303.4,64.3,304.3,66L304.3,66z"/><circle class="st3" cx="304.6" cy="64.3" r="5.6"/><path class="st3" d="M304.6,70.4c-3.4,0-6.1-2.7-6.1-6.1s2.7-6.1,6.1-6.1c3.4,0,6.1,2.7,6.1,6.1C310.7,67.7,308,70.4,304.6,70.4z    M304.6,59.3c-2.8,0-5.1,2.3-5.1,5.1c0,2.8,2.3,5.1,5.1,5.1c2.8,0,5.1-2.3,5.1-5.1C309.7,61.5,307.4,59.3,304.6,59.3z"/><circle class="st3" cx="327.7" cy="100" r="5.6"/><path class="st3" d="M327.7,106.1c-3.4,0-6.1-2.7-6.1-6.1s2.7-6.1,6.1-6.1c3.4,0,6.1,2.7,6.1,6.1c0,0,0,0,0,0   C333.8,103.4,331.1,106.1,327.7,106.1z M327.7,94.9c-2.8,0-5.1,2.3-5.1,5.1s2.3,5.1,5.1,5.1c2.8,0,5.1-2.3,5.1-5.1v0   C332.8,97.2,330.5,94.9,327.7,94.9z"/><circle class="st3" cx="372.5" cy="79.7" r="5.6"/><path class="st3" d="M372.5,85.8c-3.4,0-6.1-2.7-6.1-6.1s2.7-6.1,6.1-6.1c3.4,0,6.1,2.7,6.1,6.1c0,0,0,0,0,0   C378.6,83.1,375.9,85.8,372.5,85.8z M372.5,74.6c-2.8,0-5.1,2.3-5.1,5.1s2.3,5.1,5.1,5.1c2.8,0,5.1-2.3,5.1-5.1v0   C377.6,76.9,375.3,74.7,372.5,74.6z"/><circle class="st3" cx="379.8" cy="97.8" r="5.6"/><path class="st3" d="M379.8,103.9c-3.4,0-6.1-2.7-6.1-6.1s2.7-6.1,6.1-6.1s6.1,2.7,6.1,6.1c0,0,0,0,0,0   C385.9,101.2,383.2,103.9,379.8,103.9z M379.8,92.8c-2.8,0-5.1,2.3-5.1,5.1s2.3,5.1,5.1,5.1c2.8,0,5.1-2.3,5.1-5.1c0,0,0,0,0,0   C384.9,95,382.6,92.8,379.8,92.8z"/><path class="st3" d="M209.1,73.3c6.5-5.3,15.9-5.7,23.4-2.5c7.9,3.3,12.8,11.3,15.4,19.1c1.4,4.4,2.2,8.9,2.5,13.5   c0.3,4.7-0.2,9.8,2,14.2c4.1,7.8,14.4,10.6,22.3,7.7c4.5-1.6,8.4-4.7,11.9-7.9s7.8-6.6,9.6-11.1c1.7-3.9,0.6-8.4-2.6-11.1   c-2.8-2.4-7.6-3.6-10.4-0.5c-3.2,3.6,1.7,8,4.4,10c4.1,3.1,8.4,6,12.8,8.7c8.9,5.5,18.3,10.1,28.1,13.8c4.8,1.8,9.6,3.4,14.6,4.8   c5.2,1.5,10.6,2.6,16,3.2c9.3,0.9,19.5-0.9,25.8-8.4c1.4-1.6,2.4-3.4,3.2-5.4c0.5-1.4-3.8-3.8-4.1-2.8c-3,8-11.2,12.5-19.3,13.4   c-5.3,0.4-10.6,0-15.7-1.2c-4.7-1-9.4-2.3-14-3.8c-9-2.9-17.8-6.6-26.2-11.1c-4.1-2.2-8.1-4.6-12-7.1c-2.1-1.3-4.1-2.8-6.1-4.2   c-1.4-1-3.3-2.1-3.9-3.9c-0.5-1.6,0.2-3.2,1.6-4c0.6-0.4,1.3-0.6,2.1-0.7c0.3,0,0.7,0,1,0c1-0.1-0.3,0.2,0-0.2   c0.4,0.6,0.7,1.1,1,1.8c0.3,0.9,0.4,1.9,0.4,2.8c-0.1,2.1-0.9,4.1-2.1,5.8c-1.4,1.9-2.9,3.6-4.6,5.1c-1.7,1.6-3.3,3.2-5.1,4.7   c-3.4,2.9-7.2,5.6-11.6,6.7c-3.2,0.8-7.2,0.9-10.2-0.8c-3.3-1.9-3.9-6.4-4.1-9.9c-0.1-4.3-0.4-8.6-1-12.9c-0.7-4.2-2-8.3-3.7-12.2   c-3.5-8-9.8-14.5-17.7-18.3c-7-3.3-15.6-4.3-22.9-1c-1.7,0.8-3.2,1.8-4.6,2.9C204.2,71.2,207.9,74.4,209.1,73.3L209.1,73.3z"/><path class="st3" d="M391.3,156.1c-4.9-0.7-9.7,2.1-11.6,6.7c-2,4.7-0.5,10,2.9,13.7c3.6,4,8.7,6.1,14,7c4.7,0.8,9.8,1.3,14.5,0.3   s8.7-4,9.7-8.8c1.1-5.4-1.7-10.3-5.5-13.9c-3.4-3.3-8-5.4-12.8-5.7c-4.8-0.2-9.3,2.3-10.9,6.9c-1.7,5.2,1,10.8,6.2,12.5   c0.2,0.1,0.4,0.1,0.5,0.2c2.2,0.6,7.3,1.1,8.1-1.8s-1.5-5.6-4.2-6.1c-1.3-0.3-2.6,0.5-3,1.8c-0.2,1.2,0.6,2.4,1.8,2.6   c0,0,0.1,0,0.1,0c0.4,0.1,0.5,0.3,0.4,0.8l1.6-1.7c-2.6,0.9-5.4-0.2-6.6-2.7c-1.2-2.6-0.4-5.6,2-7.2c2.3-1.4,5.3-0.9,7.7,0   c3.1,1.3,5.8,3.4,7.7,6.1c1.9,2.7,2.8,6.4,1,9.3c-1.4,2.4-4.2,3.2-6.8,3.5c-3.4,0.3-6.8,0.1-10.2-0.6c-3.6-0.6-7.2-1.7-10.1-4   c-2.6-2.2-4.9-5.8-4.1-9.3c0.6-2.8,3.2-5.8,6.3-5.3c1.3,0.3,2.6-0.5,3-1.8C393.4,157.5,392.6,156.3,391.3,156.1   C391.3,156.1,391.3,156.1,391.3,156.1L391.3,156.1z"/><path class="st3" d="M60.2,163.8L58,151.3c-0.3-1.6-1.2-4-0.4-5.6s2.6-2.1,4-2.1c3.2-0.2,6,2,8.2,4c2.8,2.6,5.2,5.5,7.4,8.6   l0.4-1.4c-4.4,0.5-8.8,0.9-13.3,1.1c-2.2,0.1-4.4,0.3-6.7,0.3c-2,0.1-4.1-0.1-6.1,0.1c-0.1,0-0.3,0-0.4-0.1l0.7,0.5   c0.5,0.7,0.7,0.8,0.7,0.3c0.2-0.2,0.3-0.7,0.5-1c0.6-0.8,1.3-1.6,2.1-2.3c1.5-1.3,3.1-2.6,4.7-3.7c3.4-2.5,7-4.8,10.6-7   c4.1-2.6,8.3-4.9,12.7-7.2l-4-2.8l-16.3,35.1c-0.7,1.6,3.6,4,4.3,2.6l16.3-35.1c0.7-1.6-2.9-3.4-4-2.8c-8.7,4.5-17.1,9.7-25,15.5   c-1.8,1.3-3.5,2.8-4.9,4.5c-0.7,0.7-1.1,1.6-1.2,2.5c0.1,1,0.7,1.9,1.5,2.5c1.7,1.3,3.9,1.9,6,1.7c2.5-0.1,5.1-0.1,7.7-0.3   c5.8-0.3,11.7-0.7,17.5-1.4c0.8-0.1,0.8-0.9,0.4-1.4c-2.7-3.8-5.8-7.3-9.2-10.4c-3.2-2.9-7.4-5.6-11.9-5.8   c-1.9-0.2-3.9,0.3-5.5,1.3c-1.9,1.4-1.9,3.2-1.5,5.4c0.8,4.9,1.7,9.9,2.5,14.8c0.3,1.1,1.2,1.9,2.2,2.3   C58.3,164.3,60.3,164.8,60.2,163.8L60.2,163.8z"/></g></svg>