<svg transform="scale(1)" version="1.1" id="Layer_1" xmlns="http://www.w3.org/2000/svg" xmlns:xlink="http://www.w3.org/1999/xlink" x="0px" y="0px" viewBox="0 0 500 500" xml:space="preserve" class="show_show__wrapper__graphic__5Waiy "><title>React</title><style type="text/css">
	.st0{fill:#7d97e9;}
	.st1{fill:#000005;}
	.st2{fill:#FFFFFF;}
</style><g id="data-2"><path class="st0" d="M122.9,147.6c-1.8,13.1-3.4,27.1,3,39.2c2.7,5.3,6.9,9.6,12,12.6c2.8,1.5,6.4,2.9,9.5,1.6   c2.6-1,4.1-3.8,3.4-6.5c-1.1-3.1-3.9-5.4-7.2-5.8c-2.6-0.3-5.1,0.4-7.2,1.9c-5.2,3.6-6,10.3-4.6,16.1c1.6,6.6,5.2,12.7,8.2,18.7   c2.9,5.9,5.6,12,6,18.6s-1.6,13.1-6.7,17.5c-4.6,4-10.6,5.9-16.7,5.2c-1.2-0.1-1.3,1.4-0.9,2.2c0.5,1.1,1.6,1.9,2.8,2   c9.8,1,20.1-4.5,23.9-13.7c4.8-11.7-0.8-24.2-6-34.6c-2.7-5.4-6-10.9-6.9-17c-0.7-5,1.2-10.5,6.2-12.4c1.2-0.4,4.2-1,5,0.5   c0.5,0.9-0.4,2-1,2.5c-1,0.9-2.4,1.2-3.7,0.9c-4.7-0.7-8.8-4.9-11.3-8.7c-7.5-11.5-5.5-26.2-3.7-39   C127.3,147.5,123.2,144.9,122.9,147.6L122.9,147.6z"/><path class="st0" d="M110.5,154.5c-7.8,16.1,1.8,33.2,4.4,49.4c0.8,4.2,0.9,8.5,0.3,12.7c-0.8,4-2.3,7.9-4.6,11.3   c-2.1,3.4-4.4,6.8-5.8,10.6c-4.2,11.5-2,24.4,5.9,33.7c0.8,0.9,2.6,0.2,3.3-0.4c0.9-0.5,1.1-1.7,0.6-2.6c0-0.1-0.1-0.1-0.1-0.2   c-4.5-5.4-7-12.2-7.1-19.2c-0.1-3.4,0.4-6.9,1.5-10.1c1.2-3.8,3.4-7.1,5.5-10.4c2.2-3.4,3.9-7.1,5-11.1c0.9-4,1.1-8.2,0.7-12.3   c-0.8-8.4-3.7-16.3-5.7-24.4c-2.1-8.6-3.5-18.2,0.5-26.5c0.4-0.7,0.1-1.6-0.6-2c-0.2-0.1-0.4-0.2-0.6-0.2   C112.3,152.7,111.1,153.3,110.5,154.5L110.5,154.5z"/><path class="st1" d="M169.6,233.8v200.3c0,2.7-0.1,5.4,0,8.1v0.4c0,2.4,4.9,3.1,4.9,0.4V242.7c0-2.7,0.1-5.4,0-8.1   c0-0.1,0-0.2,0-0.4C174.5,231.8,169.6,231.1,169.6,233.8z"/><path class="st1" d="M181.2,233.4v200.3c0,2.7-0.1,5.4,0,8.1v0.4c0.2,1.2,0.9,2.3,2,2.9c1,0.5,1.5,0,1.5-1V243.8   c0-2.7,0.1-5.4,0-8.1v-0.4c-0.2-1.2-0.9-2.3-2-2.9C181.7,231.9,181.2,232.4,181.2,233.4L181.2,233.4z"/><path class="st1" d="M191.9,231.9v200.3c0,2.7,0,5.4,0,8.1v0.4c0.2,1.1,0.7,2,1.5,2.7c0.1,0.1,1.9,1.6,1.9,0.7V243.8   c0-2.7,0-5.4,0-8.1v-0.4c-0.2-1.1-0.7-2-1.5-2.7C193.6,232.5,191.9,231.1,191.9,231.9z"/><path class="st1" d="M86.8,236.2v200.3c0,2.7-0.1,5.4,0,8.1v0.4c0,2.4,4.9,3.1,4.9,0.4V245.1c0-2.7,0.1-5.4,0-8.1v-0.4   C91.7,234.2,86.8,233.5,86.8,236.2z"/><path class="st1" d="M98.4,235.9v200.3c0,2.7-0.1,5.4,0,8.1c0,0.1,0,0.2,0,0.4c0.2,1.2,0.9,2.3,2,2.9c1,0.5,1.5,0,1.5-1V246.3   c0-2.7,0.1-5.4,0-8.1c0-0.1,0-0.2,0-0.4c-0.2-1.2-0.9-2.3-2-2.9C98.9,234.4,98.4,234.9,98.4,235.9L98.4,235.9z"/><path class="st1" d="M109.1,234.4v200.3c0,2.7,0,5.4,0,8.1v0.4c0.2,1.1,0.7,2,1.5,2.7c0.2,0.1,1.9,1.6,1.9,0.7V246.3   c0-2.7,0-5.4,0-8.1v-0.4c-0.2-1.1-0.7-2-1.5-2.7C110.8,234.9,109.1,233.5,109.1,234.4z"/><path class="st1" d="M64.3,426.4c0,0-1.6-169.3-1.2-171.8s163.9,0,163.9,0l1.8,171.8H64.3z"/><polygon class="st1" points="241.1,416 215.3,416.1 215.3,373.7 241.1,373.6  "/><rect class="st0" x="45.6" y="373.7" width="171" height="42.4"/><path class="st1" d="M45.9,375.2H210c2.2,0,4.4,0.1,6.6,0h0.3l-2.8-2.1v42.4l2.1-1h-164c-2.2,0-4.5-0.1-6.7,0h-0.3l2.8,2.1v-42.4   c0-1.1-1.1-1.8-2.1-2c-0.6-0.1-2.8-0.2-2.8,0.9v42.4c0,1.3,1.6,2.1,2.8,2.1h164c2.2,0,4.4,0,6.6,0h0.3c0.5,0,2.1-0.1,2.1-1v-42.4   c0-1.3-1.6-2.1-2.8-2.1h-171c-0.9,0-2.3,0.2-2.1,1.4S45,375.2,45.9,375.2z"/><path class="st1" d="M59.7,385.6c0,1.1-0.9,1.9-1.9,1.9s-1.9-0.9-1.9-1.9c0-1.1,0.9-1.9,1.9-1.9C58.8,383.6,59.7,384.5,59.7,385.6   L59.7,385.6z"/><path class="st1" d="M57.7,388c-1.3,0-2.4-1.1-2.4-2.4s1.1-2.4,2.4-2.4c1.3,0,2.4,1.1,2.4,2.4S59.1,388,57.7,388L57.7,388z    M57.7,384.1c-0.8,0-1.4,0.6-1.4,1.4s0.6,1.4,1.4,1.4c0.8,0,1.4-0.6,1.4-1.4C59.1,384.8,58.5,384.2,57.7,384.1L57.7,384.1z"/><path class="st1" d="M68.2,385.6c0,1.1-0.9,1.9-1.9,1.9s-1.9-0.9-1.9-1.9c0-1.1,0.9-1.9,1.9-1.9l0,0   C67.3,383.7,68.2,384.5,68.2,385.6L68.2,385.6z"/><path class="st1" d="M66.2,388c-1.3,0-2.4-1.1-2.4-2.4c0-1.3,1.1-2.4,2.4-2.4c1.3,0,2.4,1.1,2.4,2.4l0,0   C68.7,386.9,67.6,388,66.2,388C66.3,388,66.3,388,66.2,388z M66.2,384.1c-0.8,0-1.4,0.6-1.4,1.4c0,0.8,0.6,1.4,1.4,1.4   c0.8,0,1.4-0.6,1.4-1.4c0,0,0,0,0,0l0,0C67.7,384.8,67,384.2,66.2,384.1L66.2,384.1z"/><path class="st1" d="M76.7,385.6c0,1.1-0.9,1.9-1.9,1.9c-1.1,0-1.9-0.9-1.9-1.9s0.9-1.9,1.9-1.9c0,0,0,0,0,0l0,0   C75.8,383.7,76.7,384.5,76.7,385.6L76.7,385.6z"/><path class="st1" d="M74.8,388c-1.3,0-2.4-1.1-2.4-2.4c0-1.3,1.1-2.4,2.4-2.4c1.3,0,2.4,1.1,2.4,2.4l0,0   C77.2,386.9,76.1,388,74.8,388C74.8,388,74.8,388,74.8,388z M74.8,384.1c-0.8,0-1.4,0.6-1.5,1.4c0,0.8,0.6,1.4,1.4,1.5   c0.8,0,1.4-0.6,1.5-1.4c0,0,0,0,0,0l0,0C76.2,384.8,75.6,384.2,74.8,384.1L74.8,384.1z"/><path class="st2" d="M100.1,385.6c0.7-0.4,1.4-0.7,2.1-0.8c0.7-0.2,1.3-0.2,2-0.2c0.7,0,1.3,0.1,2,0.2c0.7,0.2,1.4,0.5,2,0.9   c-0.6,0.4-1.3,0.7-2,0.9c-0.7,0.2-1.4,0.2-2.1,0.2c-0.7,0-1.3-0.1-2-0.2C101.4,386.3,100.7,386,100.1,385.6z"/><path class="st2" d="M114.4,385.6c0.7-0.4,1.4-0.7,2.1-0.9c0.7-0.2,1.3-0.2,2-0.2c0.7,0,1.3,0.1,2,0.2c0.7,0.2,1.4,0.5,2,0.9   c-0.6,0.4-1.3,0.7-2.1,0.9c-0.7,0.2-1.4,0.2-2.1,0.2c-0.7,0-1.3-0.1-2-0.2C115.7,386.3,115,386,114.4,385.6z"/><path class="st2" d="M131.1,385.6c0.3-0.4,0.8-0.7,1.2-0.9c0.4-0.2,0.8-0.2,1.2-0.2c0.4,0,0.9,0.1,1.2,0.2c0.5,0.2,0.9,0.5,1.2,0.9   c-0.3,0.4-0.8,0.7-1.2,0.9c-0.4,0.2-0.8,0.2-1.2,0.2c-0.4,0-0.8-0.1-1.2-0.2C131.9,386.3,131.4,386,131.1,385.6z"/><path class="st2" d="M142.1,385.6c0.6-0.4,1.3-0.7,2-0.9c1.3-0.3,2.7-0.3,4.1,0c0.7,0.2,1.4,0.5,2,0.9c-0.6,0.4-1.3,0.7-2,0.9   c-1.3,0.3-2.7,0.3-4.1,0C143.4,386.3,142.7,386,142.1,385.6z"/><path class="st2" d="M158.6,385.6c0.3-0.4,0.7-0.7,1.1-0.9c0.3-0.2,0.7-0.2,1.1-0.2c0.4,0,0.7,0.1,1.1,0.2c0.4,0.2,0.8,0.5,1.1,0.9   c-0.3,0.4-0.6,0.7-1.1,0.9c-0.3,0.2-0.7,0.2-1.1,0.2c-0.4,0-0.7-0.1-1.1-0.2C159.2,386.2,158.9,386,158.6,385.6z"/><path class="st2" d="M166.9,385.6c0.6-0.4,1.4-0.7,2.1-0.9c0.7-0.2,1.3-0.2,2-0.2c0.7,0,1.3,0.1,2,0.2c0.7,0.2,1.4,0.5,2,0.9   c-0.6,0.4-1.3,0.7-2.1,0.9c-0.7,0.2-1.4,0.2-2.1,0.2c-0.7,0-1.3-0.1-2-0.2C168.2,386.3,167.5,386,166.9,385.6z"/><path class="st2" d="M181.3,385.6c0.6-0.4,1.4-0.7,2.1-0.8c0.7-0.2,1.3-0.2,2-0.2c0.7,0,1.3,0.1,2,0.2c0.7,0.2,1.4,0.5,2,0.9   c-0.6,0.4-1.3,0.7-2.1,0.9c-0.7,0.2-1.4,0.2-2.1,0.2c-0.7,0-1.4-0.1-2.1-0.2C182.5,386.3,181.9,386,181.3,385.6z"/><path class="st2" d="M197.9,385.6c0.3-0.4,0.8-0.7,1.2-0.9c0.4-0.2,0.8-0.2,1.2-0.2c0.4,0,0.8,0.1,1.2,0.2c0.5,0.2,0.9,0.5,1.2,0.9   c-0.3,0.4-0.8,0.7-1.2,0.9c-0.4,0.2-0.8,0.2-1.2,0.2c-0.4,0-0.8-0.1-1.2-0.2C198.7,386.3,198.3,386,197.9,385.6z"/><path class="st2" d="M100.1,394.9c0.7-0.4,1.4-0.7,2.1-0.9c0.7-0.1,1.3-0.2,2-0.2c0.7,0,1.3,0.1,2,0.2c0.7,0.2,1.4,0.5,2,0.9   c-0.6,0.4-1.3,0.7-2,0.9c-0.7,0.2-1.4,0.2-2.1,0.2c-0.7,0-1.3-0.1-2-0.2C101.4,395.6,100.7,395.3,100.1,394.9z"/><path class="st2" d="M114.4,394.9c0.7-0.4,1.4-0.7,2.1-0.9c0.7-0.2,1.3-0.2,2-0.2c0.7,0,1.3,0.1,2,0.2c0.7,0.2,1.4,0.5,2,0.9   c-0.6,0.4-1.3,0.7-2.1,0.9c-0.7,0.2-1.4,0.2-2.1,0.2c-0.7,0-1.3-0.1-2-0.2C115.7,395.6,115,395.3,114.4,394.9z"/><path class="st2" d="M131.1,394.9c0.3-0.4,0.8-0.7,1.2-0.9c0.4-0.2,0.8-0.2,1.2-0.2c0.4,0,0.9,0.1,1.2,0.2c0.5,0.2,0.9,0.5,1.2,0.9   c-0.3,0.4-0.8,0.7-1.2,0.9c-0.4,0.2-0.8,0.2-1.2,0.2c-0.4,0-0.8-0.1-1.2-0.2C131.9,395.5,131.4,395.3,131.1,394.9z"/><path class="st2" d="M142.1,394.9c0.6-0.4,1.3-0.7,2-0.9c0.7-0.2,1.3-0.2,2-0.2c0.7,0,1.3,0.1,2,0.2c0.7,0.2,1.4,0.4,2,0.9   c-0.6,0.4-1.3,0.7-2,0.9c-1.3,0.3-2.7,0.3-4.1,0C143.3,395.6,142.7,395.3,142.1,394.9z"/><path class="st2" d="M158.6,394.9c0.3-0.4,0.6-0.7,1.1-0.9c0.3-0.2,0.7-0.2,1.1-0.2c0.4,0,0.7,0.1,1.1,0.2c0.4,0.2,0.8,0.5,1.1,0.9   c-0.3,0.4-0.6,0.7-1.1,0.9c-0.3,0.2-0.7,0.2-1.1,0.2c-0.4,0-0.7-0.1-1.1-0.2C159.2,395.5,158.9,395.2,158.6,394.9z"/><path class="st2" d="M166.9,394.9c0.7-0.4,1.4-0.7,2.1-0.8c0.7-0.2,1.3-0.2,2-0.2c0.7,0,1.3,0.1,2,0.2c0.7,0.2,1.4,0.5,2,0.9   c-0.6,0.4-1.3,0.7-2.1,0.9c-0.6,0.2-1.3,0.2-2,0.2c-0.7,0-1.3-0.1-2-0.2C168.3,395.6,167.5,395.3,166.9,394.9z"/><path class="st2" d="M181.3,394.9c0.7-0.4,1.4-0.7,2.1-0.9c0.7-0.2,1.3-0.2,2-0.2c0.7,0,1.3,0.1,2,0.2c0.7,0.2,1.4,0.5,2,0.9   c-0.6,0.4-1.3,0.7-2.1,0.9c-0.7,0.2-1.4,0.2-2.1,0.2c-0.7,0-1.4-0.1-2.1-0.2C182.5,395.6,181.9,395.3,181.3,394.9z"/><path class="st2" d="M197.9,394.9c0.3-0.4,0.8-0.7,1.2-0.8c0.4-0.2,0.8-0.2,1.2-0.2c0.4,0,0.8,0.1,1.2,0.2c0.5,0.2,0.9,0.5,1.2,0.9   c-0.3,0.4-0.8,0.7-1.2,0.9c-0.4,0.2-0.8,0.2-1.2,0.2c-0.4,0-0.9-0.1-1.2-0.2C198.7,395.6,198.3,395.3,197.9,394.9z"/><path class="st2" d="M99.7,404.3c0.7-0.4,1.4-0.7,2.1-0.9c0.7-0.1,1.3-0.2,2-0.2c0.7,0,1.3,0.1,2,0.2c0.7,0.2,1.4,0.5,2,0.9   c-0.6,0.4-1.3,0.7-2.1,0.9c-0.7,0.2-1.4,0.2-2.1,0.2c-0.7,0-1.3-0.1-2-0.2C101,405,100.3,404.7,99.7,404.3z"/><path class="st2" d="M114.1,404.4c0.6-0.4,1.4-0.7,2.1-0.9c0.7-0.2,1.3-0.2,2-0.2c0.7,0,1.3,0.1,2,0.2c0.7,0.2,1.4,0.5,2,0.9   c-0.6,0.4-1.3,0.7-2.1,0.9c-0.7,0.2-1.4,0.2-2.1,0.2c-0.7,0-1.3-0.1-2-0.2C115.3,405,114.7,404.8,114.1,404.4z"/><path class="st2" d="M130.7,404.3c0.3-0.4,0.8-0.7,1.2-0.9c0.4-0.2,0.8-0.2,1.2-0.2c0.4,0,0.9,0.1,1.2,0.2c0.5,0.2,0.9,0.5,1.2,0.9   c-0.3,0.4-0.8,0.7-1.2,0.9c-0.4,0.2-0.8,0.2-1.2,0.2c-0.4,0-0.8-0.1-1.2-0.2C131.5,405,131.1,404.7,130.7,404.3z"/><path class="st2" d="M141.7,404.4c0.6-0.4,1.3-0.7,2-0.9c0.7-0.2,1.3-0.2,2-0.2c0.7,0,1.3,0.1,2,0.2c0.7,0.2,1.4,0.4,2,0.9   c-0.6,0.4-1.3,0.7-2,0.9c-1.3,0.3-2.7,0.3-4.1,0C143,405.1,142.3,404.8,141.7,404.4z"/><path class="st2" d="M158.2,404.3c0.3-0.4,0.7-0.7,1.1-0.9c0.3-0.2,0.7-0.2,1.1-0.2c0.4,0,0.7,0.1,1.1,0.2c0.5-0.1,0.9,0.2,1,0.7   c0.1,0.5-0.2,0.9-0.7,1c-0.1,0-0.2,0-0.4,0c-0.3,0.2-0.7,0.2-1.1,0.2c-0.4,0-0.7-0.1-1.1-0.2C158.9,405,158.5,404.7,158.2,404.3z"/><path class="st2" d="M166.6,404.4c0.7-0.4,1.4-0.7,2.1-0.8c0.7-0.2,1.3-0.2,2-0.2c0.7,0,1.3,0.1,2,0.2c0.7,0.2,1.4,0.5,2,0.9   c-0.6,0.4-1.3,0.7-2.1,0.9c-0.7,0.2-1.4,0.2-2.1,0.2c-0.7,0-1.4-0.1-2.1-0.2C167.8,405,167.1,404.8,166.6,404.4z"/><path class="st2" d="M180.9,404.4c0.7-0.4,1.4-0.7,2.1-0.9c0.7-0.2,1.3-0.2,2-0.2c0.7,0,1.3,0.1,2,0.2c0.7,0.2,1.4,0.5,2,0.9   c-0.6,0.4-1.3,0.7-2.1,0.9c-0.7,0.2-1.4,0.2-2.1,0.2c-0.7,0-1.4-0.1-2.1-0.2C182.1,405.1,181.5,404.8,180.9,404.4z"/><path class="st2" d="M197.6,404.4c0.3-0.4,0.8-0.7,1.2-0.8c0.4-0.2,0.8-0.2,1.2-0.2c0.4,0,0.8,0.1,1.2,0.2c0.5,0.2,0.9,0.5,1.2,0.9   c-0.3,0.4-0.8,0.7-1.2,0.9c-0.4,0.2-0.8,0.2-1.2,0.2c-0.4,0-0.9-0.1-1.2-0.2C198.3,405,197.9,404.7,197.6,404.4z"/><polygon class="st1" points="239.8,361.7 214.1,361.8 214.1,319.4 239.8,319.3  "/><rect class="st0" x="44.4" y="319.4" width="171" height="42.4"/><path class="st1" d="M44.9,320.5H209c2.2,0,4.4,0.1,6.6,0h0.3l-3-1.4v42.4l2-0.8h-164c-2.2,0-4.5-0.1-6.7,0H44l3,1.4v-42.4   c0-1.6-5-2-5-0.6v42.4c0,1.1,2.3,1.4,3,1.4h164c2.2,0,4.4,0,6.6,0h0.3c0.4,0,2-0.1,2-0.8v-42.4c0-1.2-2.3-1.4-3-1.4h-164   c-2.2,0-4.4,0-6.7,0H44c-0.6,0-2.2,0.1-1.9,1.1S44.2,320.5,44.9,320.5z"/><path class="st1" d="M58.4,331.3c0,1.1-0.9,1.9-1.9,1.9c-1.1,0-1.9-0.9-1.9-1.9s0.9-1.9,1.9-1.9c0,0,0,0,0,0   C57.6,329.4,58.4,330.2,58.4,331.3C58.4,331.3,58.4,331.3,58.4,331.3z"/><path class="st1" d="M56.5,333.7c-1.3,0-2.4-1.1-2.4-2.4c0-1.3,1.1-2.4,2.4-2.4c1.3,0,2.4,1.1,2.4,2.4c0,0,0,0,0,0   C58.9,332.6,57.9,333.7,56.5,333.7z M56.5,329.9c-0.8,0-1.4,0.6-1.4,1.4c0,0.8,0.6,1.4,1.4,1.4c0.8,0,1.4-0.6,1.4-1.4c0,0,0,0,0,0   C57.9,330.5,57.3,329.9,56.5,329.9z"/><path class="st1" d="M67,331.3c0,1.1-0.9,1.9-1.9,1.9c-1.1,0-1.9-0.9-1.9-1.9c0-1,0.8-1.9,1.9-1.9l0,0c1.1,0,2,0.8,2,1.8   C67,331.2,67,331.3,67,331.3L67,331.3z"/><path class="st1" d="M65,333.7L65,333.7c-1.3,0-2.4-1.1-2.4-2.4c0-1.3,1.1-2.4,2.4-2.4c1.3,0,2.4,1.1,2.4,2.4l0,0   C67.5,332.6,66.4,333.7,65,333.7C65,333.7,65,333.7,65,333.7z M65,329.9c-0.8,0-1.4,0.6-1.4,1.4s0.6,1.4,1.4,1.4l0,0l0,0   c0.8,0,1.4-0.6,1.4-1.4c0,0,0,0,0,0l0,0C66.4,330.5,65.8,329.9,65,329.9C65,329.9,65,329.9,65,329.9z"/><path class="st1" d="M75.5,331.3c0,1.1-0.9,1.9-1.9,1.9s-1.9-0.9-1.9-1.9c0-1.1,0.9-1.9,1.9-1.9l0,0   C74.6,329.4,75.5,330.2,75.5,331.3C75.5,331.3,75.5,331.3,75.5,331.3L75.5,331.3z"/><path class="st1" d="M73.5,333.7L73.5,333.7c-1.3,0-2.4-1.1-2.4-2.5s1.1-2.4,2.5-2.4c1.3,0,2.4,1.1,2.4,2.4l0,0   C76,332.6,74.9,333.7,73.5,333.7C73.6,333.7,73.6,333.7,73.5,333.7L73.5,333.7z M73.5,329.9c-0.8,0-1.4,0.6-1.4,1.4   s0.6,1.4,1.4,1.4l0,0c0.8,0,1.4-0.6,1.5-1.4c0,0,0,0,0,0l0,0C75,330.5,74.4,329.9,73.5,329.9C73.6,329.9,73.6,329.9,73.5,329.9   L73.5,329.9z"/><path class="st2" d="M98.8,331.3c0.7-0.4,1.4-0.7,2.1-0.9c0.7-0.1,1.3-0.2,2-0.2c0.7,0,1.3,0.1,2,0.2c0.7,0.2,1.4,0.5,2,0.9   c-0.6,0.4-1.3,0.7-2.1,0.9c-0.7,0.2-1.4,0.2-2.1,0.2c-0.7,0-1.3-0.1-2-0.2C100.1,332,99.4,331.7,98.8,331.3z"/><path class="st2" d="M113.2,331.3c0.6-0.4,1.4-0.7,2.1-0.9c0.7-0.2,1.3-0.2,2-0.2c0.7,0,1.3,0.1,2,0.2c0.7,0.2,1.4,0.4,2,0.9   c-0.6,0.4-1.3,0.7-2,0.9c-0.7,0.2-1.4,0.2-2.1,0.2c-0.7,0-1.4-0.1-2.1-0.2C114.5,332,113.8,331.7,113.2,331.3z"/><path class="st2" d="M129.9,331.3c0.3-0.4,0.8-0.7,1.2-0.9c0.4-0.2,0.8-0.2,1.2-0.2c0.4,0,0.8,0.1,1.2,0.2c0.5,0.2,0.9,0.5,1.2,0.9   c-0.6,0.7-1.5,1.1-2.5,1.1c-0.4,0-0.9-0.1-1.2-0.2C130.6,332,130.2,331.7,129.9,331.3z"/><path class="st2" d="M140.9,331.4c0.6-0.4,1.3-0.7,2-0.9c0.7-0.2,1.3-0.2,2-0.2c0.7,0,1.3,0.1,2,0.2c0.7,0.2,1.4,0.5,2,0.9   c-0.6,0.4-1.3,0.7-2,0.9c-1.3,0.3-2.7,0.3-4.1,0C142.1,332,141.5,331.7,140.9,331.4z"/><path class="st2" d="M157.4,331.3c0.3-0.4,0.6-0.7,1.1-0.9c0.3-0.2,0.7-0.2,1.1-0.2c0.4,0,0.7,0.1,1.1,0.2c0.4,0.2,0.8,0.5,1.1,0.9   c-0.3,0.4-0.6,0.7-1.1,0.9c-0.3,0.2-0.7,0.2-1.1,0.2c-0.4,0-0.7-0.1-1.1-0.2C158,332,157.7,331.7,157.4,331.3z"/><path class="st2" d="M165.7,331.3c0.6-0.4,1.4-0.7,2.1-0.9c0.7-0.2,1.3-0.2,2-0.2c0.7,0,1.3,0.1,2,0.2c0.7,0.2,1.4,0.5,2,0.9   c-0.6,0.4-1.3,0.7-2,0.9c-0.7,0.2-1.4,0.2-2.1,0.2c-0.7,0-1.4-0.1-2.1-0.2C167,332,166.3,331.7,165.7,331.3z"/><path class="st2" d="M180.1,331.3c0.7-0.4,1.4-0.7,2.1-0.9c0.7-0.1,1.3-0.2,2-0.2c0.7,0,1.3,0.1,2,0.2c0.7,0.2,1.4,0.5,2,0.9   c-0.6,0.4-1.3,0.7-2.1,0.9c-0.7,0.2-1.4,0.2-2.1,0.2c-0.7,0-1.4-0.1-2.1-0.2C181.3,332,180.6,331.7,180.1,331.3z"/><path class="st2" d="M196.7,331.3c0.3-0.4,0.8-0.7,1.2-0.9c0.4-0.2,0.8-0.2,1.2-0.2c0.4,0,0.8,0.1,1.2,0.2c0.5,0.2,0.9,0.5,1.2,0.9   c-0.3,0.4-0.8,0.7-1.2,0.9c-0.4,0.2-0.8,0.2-1.2,0.2c-0.4,0-0.9-0.1-1.2-0.2C197.5,332,197.1,331.7,196.7,331.3z"/><path class="st2" d="M98.8,340.6c0.7-0.4,1.4-0.7,2.1-0.9c0.7-0.2,1.3-0.2,2-0.2c0.7,0,1.3,0.1,2,0.2c0.7,0.2,1.4,0.5,2,0.9   c-0.6,0.4-1.3,0.7-2.1,0.9c-0.7,0.2-1.4,0.2-2.1,0.2c-0.7,0-1.3-0.1-2-0.2C100.1,341.3,99.4,341,98.8,340.6z"/><path class="st2" d="M113.2,340.6c0.6-0.4,1.4-0.7,2.1-0.9c0.7-0.2,1.3-0.2,2-0.2c0.7,0,1.3,0.1,2,0.2c0.7,0.2,1.4,0.5,2,0.9   c-0.6,0.4-1.3,0.7-2,0.9c-0.7,0.2-1.4,0.2-2.1,0.2c-0.7,0-1.4-0.1-2.1-0.2C114.5,341.3,113.8,341,113.2,340.6z"/><path class="st2" d="M129.9,340.6c0.3-0.4,0.8-0.7,1.2-0.9c0.4-0.2,0.8-0.2,1.2-0.2c0.4,0,0.8,0.1,1.2,0.2c0.5,0.2,0.9,0.5,1.2,0.9   c-0.3,0.4-0.8,0.7-1.2,0.9c-0.4,0.2-0.8,0.2-1.2,0.2c-0.4,0-0.9-0.1-1.2-0.2C130.6,341.3,130.2,341,129.9,340.6z"/><path class="st2" d="M140.9,340.6c0.6-0.4,1.3-0.7,2-0.9c0.7-0.2,1.3-0.2,2-0.2c0.7,0,1.3,0.1,2,0.2c0.7,0.2,1.4,0.4,2,0.9   c-0.6,0.4-1.3,0.7-2,0.9c-1.3,0.3-2.7,0.3-4.1,0C142.1,341.3,141.5,341,140.9,340.6z"/><path class="st2" d="M157.4,340.6c0.3-0.4,0.6-0.7,1.1-0.9c0.3-0.2,0.7-0.2,1.1-0.2c0.4,0,0.7,0.1,1.1,0.2c0.4,0.2,0.8,0.5,1.1,0.9   c-0.3,0.4-0.6,0.7-1.1,0.9c-0.3,0.2-0.7,0.2-1.1,0.2c-0.4,0-0.7-0.1-1.1-0.2C158,341.2,157.7,341,157.4,340.6z"/><path class="st2" d="M165.7,340.6c0.7-0.4,1.4-0.7,2.1-0.8c0.7-0.2,1.3-0.2,2-0.2c0.7,0,1.3,0.1,2,0.2c0.7,0.2,1.4,0.5,2,0.9   c-0.6,0.4-1.3,0.7-2,0.9c-0.7,0.2-1.4,0.2-2.1,0.2c-0.7,0-1.4-0.1-2.1-0.2C167,341.3,166.3,341,165.7,340.6z"/><path class="st2" d="M180.1,340.6c0.7-0.4,1.4-0.7,2.1-0.9c0.7-0.2,1.3-0.2,2-0.2c0.7,0,1.3,0.1,2,0.2c0.7,0.2,1.4,0.5,2,0.9   c-0.6,0.4-1.3,0.7-2.1,0.9c-0.7,0.2-1.4,0.2-2.1,0.2c-0.7,0-1.4-0.1-2.1-0.2C181.3,341.3,180.6,341,180.1,340.6z"/><path class="st2" d="M196.7,340.6c0.3-0.4,0.8-0.7,1.2-0.8c0.4-0.2,0.8-0.2,1.2-0.2c0.4,0,0.8,0.1,1.2,0.2c0.5,0.2,0.9,0.5,1.2,0.9   c-0.3,0.4-0.8,0.7-1.2,0.9c-0.4,0.1-0.8,0.2-1.2,0.2c-0.4,0-0.9-0.1-1.2-0.2C197.5,341.3,197.1,341,196.7,340.6z"/><path class="st2" d="M98.5,350c0.7-0.4,1.4-0.7,2.1-0.9c0.7-0.2,1.3-0.2,2-0.2c0.7,0,1.3,0.1,2,0.2c0.7,0.2,1.4,0.5,2,0.9   c-0.6,0.4-1.3,0.7-2,0.9c-0.7,0.2-1.4,0.2-2.1,0.2c-0.7,0-1.4-0.1-2.1-0.2C99.7,350.7,99.1,350.5,98.5,350z"/><path class="st2" d="M112.8,350.1c0.6-0.4,1.4-0.7,2.1-0.9c0.7-0.2,1.3-0.2,2-0.2c0.7,0,1.3,0.1,2,0.2c0.7,0.2,1.4,0.5,2,0.9   c-0.6,0.4-1.3,0.7-2,0.9c-0.7,0.2-1.4,0.2-2.1,0.2c-0.7,0-1.4-0.1-2.1-0.2C114.1,350.8,113.4,350.5,112.8,350.1z"/><path class="st2" d="M129.5,350c0.3-0.4,0.8-0.7,1.2-0.9c0.4-0.1,0.8-0.2,1.3-0.2c0.4,0,0.8,0.1,1.2,0.2c0.5,0.2,0.9,0.5,1.2,0.9   c-0.3,0.4-0.8,0.7-1.2,0.9c-0.4,0.2-0.8,0.2-1.2,0.2c-0.4,0-0.9-0.1-1.2-0.2C130.3,350.7,129.8,350.4,129.5,350z"/><path class="st2" d="M140.5,350.1c0.6-0.4,1.3-0.7,2-0.9c0.7-0.2,1.3-0.2,2-0.2c0.7,0,1.3,0.1,2,0.2c0.7,0.2,1.4,0.4,2,0.9   c-0.6,0.4-1.3,0.7-2,0.9c-1.3,0.3-2.7,0.3-4.1,0C141.8,350.8,141.1,350.5,140.5,350.1z"/><path class="st2" d="M157,350c0.3-0.4,0.6-0.7,1.1-0.9c0.3-0.2,0.7-0.2,1.1-0.2c0.4,0,0.7,0.1,1.1,0.2c0.5-0.1,0.9,0.2,1,0.7   c0.1,0.5-0.2,0.9-0.7,1c-0.1,0-0.2,0-0.4,0c-0.3,0.2-0.7,0.2-1.1,0.2c-0.4,0-0.7-0.1-1.1-0.2C157.6,350.7,157.3,350.4,157,350z"/><path class="st2" d="M165.3,350.1c0.7-0.4,1.4-0.7,2.1-0.8c0.7-0.2,1.3-0.2,2-0.2c0.7,0,1.3,0.1,2,0.2c0.7,0.2,1.4,0.5,2,0.9   c-0.6,0.4-1.3,0.7-2,0.9c-0.7,0.2-1.4,0.2-2.1,0.2c-0.7,0-1.3-0.1-2-0.2C166.6,350.8,165.9,350.5,165.3,350.1z"/><path class="st2" d="M179.7,350.1c0.7-0.4,1.4-0.7,2.1-0.9c0.7-0.2,1.3-0.2,2-0.2c0.7,0,1.3,0.1,2,0.2c0.7,0.2,1.4,0.5,2,0.9   c-0.6,0.4-1.3,0.7-2.1,0.9c-0.7,0.2-1.4,0.2-2.1,0.2c-0.7,0-1.4-0.1-2.1-0.2C180.9,350.8,180.3,350.5,179.7,350.1z"/><path class="st2" d="M196.3,350.1c0.3-0.4,0.8-0.7,1.2-0.8c0.4-0.2,0.8-0.2,1.2-0.2c0.4,0,0.9,0.1,1.2,0.2c0.5,0.2,0.9,0.5,1.2,0.9   c-0.3,0.4-0.8,0.7-1.2,0.9c-0.4,0.1-0.8,0.2-1.2,0.2c-0.4,0-0.8-0.1-1.2-0.2C197.1,350.7,196.7,350.4,196.3,350.1z"/><polygon class="st1" points="241.6,307.4 215.9,307.5 215.9,265.1 241.6,265  "/><rect class="st0" x="46.1" y="265.1" width="171" height="42.4"/><path class="st1" d="M46.5,267.2h164c2.2,0,4.4,0.1,6.6,0h0.3l-2.7-2.7v42.4l2-1.5h-164c-2.2,0-4.5-0.1-6.7,0h-0.3l2.7,2.7v-42.4   c0-1.3-0.9-2.4-2.1-2.6c-0.9-0.2-2.7,0.1-2.7,1.4v42.4c0,1.5,1.2,2.7,2.7,2.8h164c2.2,0,4.4,0,6.6,0h0.3c0.8,0,2.1-0.5,2.1-1.5   v-42.4c0-1.5-1.2-2.7-2.7-2.8h-164c-2.2,0-4.4,0-6.7,0h-0.3C42.5,263,43.7,267.2,46.5,267.2z"/><path class="st1" d="M60.2,277c0,1.1-0.9,1.9-1.9,1.9s-1.9-0.9-1.9-1.9c0-1.1,0.9-1.9,1.9-1.9C59.3,275.1,60.2,275.9,60.2,277   L60.2,277z"/><path class="st1" d="M58.3,279.5c-1.3,0-2.4-1.1-2.4-2.4c0-1.3,1.1-2.4,2.4-2.4c1.3,0,2.4,1.1,2.4,2.4   C60.7,278.3,59.6,279.4,58.3,279.5C58.3,279.5,58.3,279.5,58.3,279.5z M58.3,275.6c-0.8,0-1.4,0.6-1.4,1.4c0,0.8,0.6,1.4,1.4,1.4   c0.8,0,1.4-0.6,1.4-1.4c0,0,0,0,0,0C59.7,276.2,59.1,275.6,58.3,275.6z"/><path class="st1" d="M68.7,277c0,1.1-0.9,1.9-1.9,1.9s-1.9-0.9-1.9-1.9c0-1.1,0.9-1.9,1.9-1.9l0,0C67.8,275,68.7,275.9,68.7,277   C68.7,277,68.7,277,68.7,277z"/><path class="st1" d="M66.8,279.5c-1.3,0-2.4-1.1-2.4-2.4c0-1.3,1.1-2.4,2.4-2.4c1.3,0,2.4,1.1,2.4,2.4l0,0   C69.2,278.3,68.1,279.4,66.8,279.5C66.8,279.5,66.8,279.5,66.8,279.5z M66.8,275.6c-0.8,0-1.4,0.6-1.4,1.4s0.6,1.4,1.4,1.4   c0.8,0,1.4-0.6,1.4-1.4c0,0,0,0,0,0l0,0C68.2,276.2,67.6,275.6,66.8,275.6L66.8,275.6z"/><path class="st1" d="M77.2,277c0,1.1-0.9,1.9-1.9,1.9s-1.9-0.9-1.9-1.9c0-1.1,0.9-1.9,1.9-1.9l0,0C76.4,275,77.2,275.9,77.2,277   C77.2,277,77.2,277,77.2,277z"/><path class="st1" d="M75.3,279.5c-1.3,0-2.4-1.1-2.4-2.4c0-1.3,1.1-2.4,2.4-2.4c1.3,0,2.4,1.1,2.4,2.4l0,0   C77.7,278.3,76.7,279.4,75.3,279.5C75.3,279.5,75.3,279.5,75.3,279.5z M75.3,275.6c-0.8,0-1.4,0.6-1.4,1.4s0.6,1.4,1.4,1.4   c0.8,0,1.4-0.6,1.4-1.4c0,0,0,0,0,0l0,0C76.7,276.2,76.1,275.6,75.3,275.6L75.3,275.6z"/><path class="st2" d="M100.6,277c0.7-0.4,1.4-0.7,2.1-0.9c0.7-0.1,1.3-0.2,2-0.2c0.7,0,1.3,0.1,2,0.2c0.7,0.2,1.4,0.5,2,0.9   c-0.6,0.4-1.3,0.7-2.1,0.9c-0.7,0.2-1.4,0.2-2.1,0.2c-0.7,0-1.3-0.1-2-0.2C101.9,277.7,101.2,277.4,100.6,277z"/><path class="st2" d="M115,277c0.6-0.4,1.4-0.7,2.1-0.9c0.7-0.2,1.3-0.2,2-0.2c0.7,0,1.3,0.1,2,0.2c0.7,0.2,1.4,0.5,2,0.9   c-0.6,0.4-1.3,0.7-2.1,0.9c-0.7,0.2-1.4,0.2-2.1,0.2c-0.7,0-1.3-0.1-2-0.2C116.3,277.7,115.6,277.4,115,277z"/><path class="st2" d="M131.6,277c0.3-0.4,0.8-0.7,1.2-0.9c0.4-0.2,0.8-0.2,1.2-0.2c0.4,0,0.8,0.1,1.2,0.2c0.5,0.2,0.9,0.5,1.2,0.9   c-0.3,0.4-0.8,0.7-1.2,0.9c-0.4,0.2-0.8,0.2-1.2,0.2c-0.4,0-0.9-0.1-1.2-0.2C132.4,277.7,132,277.4,131.6,277z"/><path class="st2" d="M142.6,277.1c0.6-0.4,1.3-0.7,2-0.9c0.7-0.2,1.3-0.2,2-0.2c0.7,0,1.3,0.1,2,0.2c0.7,0.2,1.4,0.4,2,0.9   c-0.6,0.4-1.3,0.7-2,0.9c-1.3,0.3-2.7,0.3-4.1,0C143.9,277.7,143.2,277.4,142.6,277.1z"/><path class="st2" d="M159.1,277c0.3-0.4,0.6-0.7,1.1-0.9c0.3-0.2,0.7-0.2,1.1-0.2c0.4,0,0.7,0.1,1.1,0.2c0.4,0.2,0.8,0.5,1.1,0.9   c-0.3,0.4-0.6,0.7-1.1,0.9c-0.3,0.2-0.7,0.2-1.1,0.2c-0.4,0-0.7-0.1-1.1-0.2C159.8,277.7,159.4,277.4,159.1,277z"/><path class="st2" d="M167.5,277c0.7-0.4,1.4-0.7,2.1-0.8c0.7-0.2,1.3-0.2,2-0.2c0.7,0,1.3,0.1,2,0.2c0.7,0.2,1.4,0.5,2,0.9   c-0.6,0.4-1.3,0.7-2.1,0.9c-0.7,0.2-1.4,0.2-2.1,0.2c-0.7,0-1.4-0.1-2.1-0.2C168.7,277.7,168,277.4,167.5,277z"/><path class="st2" d="M181.8,277c0.7-0.4,1.4-0.7,2.1-0.9c0.7-0.2,1.3-0.2,2-0.2c0.7,0,1.3,0.1,2,0.2c0.7,0.2,1.4,0.5,2,0.9   c-0.6,0.4-1.3,0.7-2.1,0.9c-0.7,0.2-1.4,0.2-2.1,0.2c-0.7,0-1.4-0.1-2.1-0.2C183.1,277.7,182.4,277.4,181.8,277z"/><path class="st2" d="M198.5,277c0.3-0.4,0.8-0.7,1.2-0.8c0.4-0.1,0.8-0.2,1.3-0.2c0.4,0,0.8,0.1,1.2,0.2c0.5,0.2,0.9,0.5,1.2,0.9   c-0.3,0.4-0.8,0.7-1.2,0.9c-0.4,0.2-0.8,0.2-1.2,0.2c-0.4,0-0.9-0.1-1.2-0.2C199.3,277.7,198.8,277.4,198.5,277z"/><path class="st2" d="M100.6,286.3c0.7-0.4,1.4-0.7,2.1-0.9c0.7-0.2,1.3-0.2,2-0.2c0.7,0,1.3,0.1,2,0.2c0.7,0.2,1.4,0.5,2,0.9   c-0.6,0.4-1.3,0.7-2.1,0.9c-0.7,0.2-1.4,0.2-2.1,0.2c-0.7,0-1.3-0.1-2-0.2C101.9,287,101.2,286.7,100.6,286.3z"/><path class="st2" d="M115,286.3c0.6-0.4,1.4-0.7,2.1-0.9c0.7-0.2,1.3-0.2,2-0.2c0.7,0,1.3,0.1,2,0.2c0.7,0.2,1.4,0.5,2,0.9   c-0.6,0.4-1.3,0.7-2.1,0.9c-0.7,0.2-1.4,0.2-2.1,0.2c-0.7,0-1.3-0.1-2-0.2C116.3,287,115.6,286.7,115,286.3z"/><path class="st2" d="M131.6,286.3c0.3-0.4,0.8-0.7,1.2-0.9c0.4-0.2,0.8-0.2,1.2-0.2c0.4,0,0.8,0.1,1.2,0.2c0.5,0.2,0.9,0.5,1.2,0.9   c-0.3,0.4-0.8,0.7-1.2,0.9c-0.4,0.2-0.8,0.2-1.2,0.2c-0.4,0-0.9-0.1-1.2-0.2C132.4,287,132,286.7,131.6,286.3z"/><path class="st2" d="M142.6,286.4c0.6-0.4,1.3-0.7,2-0.9c0.7-0.2,1.3-0.2,2-0.2c0.7,0,1.3,0.1,2,0.2c0.7,0.2,1.4,0.4,2,0.9   c-0.6,0.4-1.3,0.7-2,0.9c-1.3,0.3-2.7,0.3-4.1,0C143.9,287,143.2,286.7,142.6,286.4z"/><path class="st2" d="M159.1,286.3c0.3-0.4,0.6-0.7,1.1-0.9c0.3-0.2,0.7-0.2,1.1-0.2c0.4,0,0.7,0.1,1.1,0.2c0.4,0.2,0.8,0.5,1.1,0.9   c-0.3,0.4-0.6,0.7-1.1,0.9c-0.3,0.2-0.7,0.2-1.1,0.2c-0.4,0-0.7-0.1-1.1-0.2C159.8,287,159.4,286.7,159.1,286.3z"/><path class="st2" d="M167.5,286.3c0.6-0.4,1.4-0.7,2.1-0.8c0.7-0.2,1.3-0.2,2-0.2c0.7,0,1.3,0.1,2,0.2c0.7,0.2,1.4,0.5,2,0.9   c-0.6,0.4-1.3,0.7-2.1,0.9c-0.7,0.2-1.4,0.2-2.1,0.2c-0.7,0-1.4-0.1-2.1-0.2C168.7,287,168,286.7,167.5,286.3z"/><path class="st2" d="M181.8,286.3c0.7-0.4,1.4-0.7,2.1-0.9c0.7-0.2,1.3-0.2,2-0.2c0.7,0,1.3,0.1,2,0.2c0.7,0.2,1.4,0.5,2,0.9   c-0.6,0.4-1.3,0.7-2.1,0.9c-0.7,0.2-1.4,0.2-2.1,0.2c-0.7,0-1.4-0.1-2.1-0.2C183.1,287,182.4,286.7,181.8,286.3z"/><path class="st2" d="M198.5,286.3c0.3-0.4,0.8-0.7,1.2-0.9c0.4-0.1,0.8-0.2,1.2-0.2c0.4,0,0.8,0.1,1.2,0.2c0.5,0.2,0.9,0.5,1.2,0.9   c-0.3,0.4-0.8,0.7-1.2,0.9c-0.4,0.1-0.8,0.2-1.2,0.2c-0.4,0-0.9-0.1-1.2-0.2C199.2,287,198.8,286.7,198.5,286.3z"/><path class="st2" d="M100.2,295.8c0.7-0.4,1.4-0.7,2.1-0.9c0.7-0.2,1.3-0.2,2-0.2c0.7,0,1.3,0.1,2,0.2c0.7,0.2,1.4,0.5,2,0.9   c-0.6,0.4-1.3,0.7-2.1,0.9c-0.7,0.2-1.4,0.2-2.1,0.2c-0.7,0-1.3-0.1-2-0.2C101.5,296.5,100.8,296.2,100.2,295.8z"/><path class="st2" d="M114.6,295.8c0.6-0.4,1.4-0.7,2.1-0.9c0.7-0.2,1.3-0.2,2-0.2c0.7,0,1.3,0.1,2,0.2c0.7,0.2,1.4,0.5,2,0.9   c-0.6,0.4-1.3,0.7-2,0.9c-0.7,0.2-1.4,0.2-2.1,0.2c-0.7,0-1.4-0.1-2.1-0.2C115.9,296.5,115.2,296.2,114.6,295.8z"/><path class="st2" d="M131.3,295.8c0.3-0.4,0.8-0.7,1.2-0.9c0.4-0.2,0.8-0.2,1.2-0.2c0.4,0,0.8,0.1,1.2,0.2c0.5,0.2,0.9,0.5,1.2,0.9   c-0.3,0.4-0.8,0.7-1.2,0.9c-0.4,0.2-0.8,0.2-1.2,0.2c-0.4,0-0.9-0.1-1.2-0.2C132,296.4,131.6,296.1,131.3,295.8z"/><path class="st2" d="M142.3,295.8c0.6-0.4,1.3-0.7,2-0.9c0.7-0.2,1.3-0.2,2-0.2c0.7,0,1.3,0.1,2,0.2c0.7,0.2,1.4,0.4,2,0.9   c-0.6,0.4-1.3,0.7-2,0.9c-0.7,0.2-1.3,0.2-2,0.2c-0.7,0-1.3-0.1-2-0.2C143.6,296.5,142.9,296.2,142.3,295.8z"/><path class="st2" d="M158.8,295.8c0.3-0.4,0.6-0.7,1.1-0.9c0.3-0.2,0.7-0.2,1.1-0.2c0.4,0,0.7,0.1,1.1,0.2c0.4,0.2,0.8,0.5,1.1,0.9   c-0.3,0.4-0.6,0.7-1.1,0.9c-0.3,0.2-0.7,0.2-1.1,0.2c-0.4,0-0.7-0.1-1.1-0.2C159.4,296.4,159,296.1,158.8,295.8z"/><path class="st2" d="M167.1,295.8c0.6-0.4,1.4-0.7,2.1-0.8c0.7-0.2,1.3-0.2,2-0.2c0.7,0,1.3,0.1,2,0.2c0.7,0.2,1.4,0.5,2,0.9   c-0.6,0.4-1.3,0.7-2.1,0.9c-0.7,0.1-1.4,0.2-2.1,0.2c-0.7,0-1.4-0.1-2.1-0.2C168.3,296.5,167.7,296.2,167.1,295.8z"/><path class="st2" d="M181.4,295.8c0.7-0.4,1.4-0.7,2.1-0.9c0.7-0.2,1.3-0.2,2-0.2c0.7,0,1.3,0.1,2,0.2c0.7,0.2,1.4,0.5,2,0.9   c-0.6,0.4-1.3,0.7-2,0.9c-0.7,0.2-1.4,0.2-2.1,0.2c-0.7,0-1.4-0.1-2.1-0.2C182.7,296.5,182,296.2,181.4,295.8z"/><path class="st2" d="M198.1,295.8c0.3-0.4,0.8-0.7,1.2-0.9c0.4-0.1,0.8-0.2,1.2-0.2c0.4,0,0.8,0.1,1.2,0.2c0.5,0.2,0.9,0.5,1.2,0.9   c-0.3,0.4-0.8,0.7-1.2,0.9c-0.4,0.1-0.8,0.2-1.2,0.2c-0.4,0-0.9-0.1-1.2-0.2C198.9,296.4,198.5,296.2,198.1,295.8z"/></g><g id="data-1"><path class="st0" d="M335.3,164.4c-0.8,19.4,12.5,36.5,10.9,56c-0.3,3.9-1.2,8.8-3.9,11.7c-0.7,1-1.9,1.5-3.1,1.2   c-1.3-0.2-2.3-1.3-2.5-2.6c-0.1-0.9,0.6-1.7,1.5-1.8c0,0,0.1,0,0.1,0c1.4-0.1,2.7,0.4,3.6,1.5c2.9,2.7,4.3,7,5.6,10.5   c3.3,8.9,5.1,19.4,0.4,28.1c-0.4,0.6-0.3,1.5,0.3,1.9c0.2,0.1,0.4,0.2,0.7,0.2c1.3,0.2,2.5-0.4,3.2-1.5c5-9.2,3.7-19.9,0.4-29.5   c-0.8-2.4-1.8-4.7-2.8-6.9c-0.9-2.1-2.1-4-3.7-5.6c-3.2-3.1-8.2-3.3-11.7-0.5c-2.4,1.5-3.1,4.7-1.6,7.1c0.7,1.1,1.8,1.9,3,2.2   c4.8,1.8,9.5-1.4,11.9-5.5c5.3-9.3,3.6-21.1,1-31c-3.3-12.2-9.1-24-8.5-36.9C340.1,160.8,335.4,162.2,335.3,164.4L335.3,164.4z"/><path class="st0" d="M355.8,169.2c-1.9,14.2-1.9,28.6,0.1,42.8c2,14.2,5.9,28.1,11.5,41.3c3.2,7.5,7,14.7,11.4,21.5   c0.3,0.4,2.1-0.1,2.5-0.2c0.2,0,2.5-0.7,2.4-0.9c-7.7-12.1-13.7-25.2-17.8-39c-4.1-13.7-6.4-28-6.7-42.3   c-0.2-8.1,0.3-16.3,1.4-24.3c0-0.3-2.3,0.2-2.5,0.2C357.7,168.4,355.8,168.6,355.8,169.2L355.8,169.2z"/><path class="st1" d="M386.1,232v200.3c0,2.7-0.1,5.4,0,8.1c0,0.1,0,0.2,0,0.4c0,2.4,4.9,3.1,4.9,0.4V240.9c0-2.7,0.1-5.4,0-8.1   v-0.4C391,230,386.1,229.3,386.1,232L386.1,232z"/><path class="st1" d="M397.7,231.7v200.3c0,2.7-0.1,5.4,0,8.1v0.4c0.2,1.2,0.9,2.3,2,2.9c1,0.5,1.5,0,1.5-1V242.1   c0-2.7,0.1-5.4,0-8.1v-0.4c-0.2-1.2-0.9-2.3-2-2.9C398.2,230.1,397.7,230.6,397.7,231.7L397.7,231.7z"/><path class="st1" d="M408.4,230.1v200.3c0,2.7,0,5.4,0,8.1v0.4c0.2,1.1,0.7,2,1.5,2.7c0.1,0.1,1.9,1.6,1.9,0.7V242.1   c0-2.7,0-5.4,0-8.1v-0.4c-0.2-1.1-0.7-2-1.5-2.7C410.1,230.7,408.4,229.3,408.4,230.1z"/><path class="st1" d="M303.3,234.5v200.3c0,2.7-0.1,5.4,0,8.1c0,0.1,0,0.2,0,0.4c0,2.4,4.9,3.1,4.9,0.4V243.3c0-2.7,0.1-5.4,0-8.1   c0-0.1,0-0.2,0-0.4C308.2,232.4,303.3,231.7,303.3,234.5z"/><path class="st1" d="M314.9,234.1v200.3c0,2.7-0.1,5.4,0,8.1v0.4c0.2,1.2,0.9,2.3,2,2.9c1,0.5,1.5,0,1.5-1V244.5   c0-2.7,0.1-5.4,0-8.1V236c-0.2-1.2-0.9-2.3-2-2.9C315.4,232.6,314.9,233.1,314.9,234.1L314.9,234.1z"/><path class="st1" d="M325.6,232.6v200.3c0,2.7,0,5.4,0,8.1v0.4c0.2,1.1,0.7,2,1.5,2.7c0.1,0.1,1.9,1.6,1.9,0.7V244.5   c0-2.7,0-5.4,0-8.1V236c-0.2-1.1-0.7-2-1.5-2.7C327.3,233.1,325.6,231.7,325.6,232.6L325.6,232.6z"/><path class="st1" d="M280.8,424.7c0,0-1.6-169.3-1.2-171.8s163.9,0,163.9,0l1.8,171.8H280.8z"/><polygon class="st1" points="457.6,414.2 431.9,414.3 431.9,371.9 457.6,371.8  "/><rect class="st0" x="262.1" y="371.9" width="171" height="42.4"/><path class="st1" d="M263.8,373.6h164c2.2,0,4.5,0.1,6.7,0h0.3l-3.6-3.4v40.1c0.1,0.7,0.1,1.5,0,2.2c-0.1,0.1,0.2,0,0.1,0   s-0.2,0-0.3,0H271c-3.4,0-6.8-0.1-10.1,0h-0.5l3.6,3.4v-42.4c0-0.7-1.2-1.5-1.6-2c-0.4-0.4-0.9-0.8-1.4-1.1c-0.1,0-0.7-0.4-0.7-0.3   v42.4c0,0.6,1,1.4,1.4,1.7s1.5,1.7,2.2,1.7h164c2.2,0.1,4.4,0.1,6.7,0h0.4v-42.4c0-0.6-1-1.4-1.4-1.7s-1.5-1.7-2.2-1.7H263   c-0.8,0-1.5,0-2.3,0h-0.3c-0.5,0,0.9,1.4,1,1.5C261.9,372.1,263.1,373.6,263.8,373.6z"/><path class="st1" d="M276.2,383.8c0,1.1-0.9,1.9-1.9,1.9s-1.9-0.9-1.9-1.9c0-1.1,0.9-1.9,1.9-1.9c0,0,0,0,0,0   C275.3,381.9,276.2,382.7,276.2,383.8C276.2,383.8,276.2,383.8,276.2,383.8z"/><path class="st1" d="M274.2,386.3c-1.3,0-2.4-1.1-2.4-2.4s1.1-2.4,2.4-2.4c1.3,0,2.4,1.1,2.4,2.4c0,0,0,0,0,0   C276.7,385.2,275.6,386.3,274.2,386.3z M274.2,382.4c-0.8,0-1.4,0.6-1.4,1.4c0,0.8,0.6,1.4,1.4,1.4c0.8,0,1.4-0.6,1.4-1.4   c0,0,0,0,0,0C275.7,383,275,382.4,274.2,382.4z"/><path class="st1" d="M284.7,383.8c0,1.1-0.9,1.9-1.9,1.9s-1.9-0.9-1.9-1.9s0.9-1.9,1.9-1.9l0,0   C283.8,381.9,284.7,382.7,284.7,383.8C284.7,383.8,284.7,383.8,284.7,383.8L284.7,383.8z"/><path class="st1" d="M282.8,386.3c-1.3,0-2.4-1.1-2.4-2.4c0-1.3,1.1-2.4,2.4-2.4c1.3,0,2.4,1.1,2.4,2.4l0,0   C285.2,385.2,284.1,386.3,282.8,386.3C282.8,386.3,282.8,386.3,282.8,386.3z M282.8,382.4c-0.8,0-1.4,0.6-1.5,1.4   c0,0.8,0.6,1.4,1.4,1.5c0.8,0,1.4-0.6,1.5-1.4c0,0,0,0,0,0l0,0C284.2,383,283.6,382.4,282.8,382.4L282.8,382.4z"/><path class="st1" d="M293.2,383.8c0,1.1-0.9,1.9-1.9,1.9s-1.9-0.9-1.9-1.9s0.9-1.9,1.9-1.9l0,0   C292.3,381.9,293.2,382.7,293.2,383.8C293.2,383.8,293.2,383.8,293.2,383.8L293.2,383.8z"/><path class="st1" d="M291.3,386.3c-1.3,0-2.4-1.1-2.4-2.4c0-1.3,1.1-2.4,2.4-2.4c1.3,0,2.4,1.1,2.4,2.4l0,0   C293.7,385.2,292.6,386.3,291.3,386.3C291.3,386.3,291.3,386.3,291.3,386.3z M291.3,382.4c-0.8,0-1.4,0.6-1.5,1.4   c0,0.8,0.6,1.4,1.4,1.5c0.8,0,1.4-0.6,1.5-1.4c0,0,0,0,0,0l0,0C292.7,383,292.1,382.4,291.3,382.4L291.3,382.4z"/><path class="st2" d="M316.6,383.8c0.7-0.4,1.4-0.7,2.1-0.9c0.7-0.2,1.3-0.2,2-0.2c0.7,0,1.3,0.1,2,0.2c0.7,0.2,1.4,0.5,2,0.9   c-0.6,0.4-1.3,0.7-2.1,0.9c-0.7,0.2-1.4,0.2-2.1,0.2c-0.7,0-1.4-0.1-2-0.2C317.8,384.5,317.2,384.2,316.6,383.8z"/><path class="st2" d="M331,383.8c0.6-0.4,1.4-0.7,2.1-0.9c0.7-0.2,1.3-0.2,2-0.2c0.7,0,1.3,0.1,2,0.2c0.7,0.2,1.4,0.5,2,0.9   c-0.6,0.4-1.3,0.7-2,0.9c-0.7,0.2-1.4,0.2-2.1,0.2c-0.7,0-1.4-0.1-2.1-0.2C332.2,384.5,331.6,384.2,331,383.8z"/><path class="st2" d="M347.6,383.8c0.3-0.4,0.8-0.7,1.2-0.9c0.4-0.2,0.8-0.2,1.2-0.2c0.4,0,0.8,0.1,1.2,0.2c0.5,0.2,0.9,0.5,1.2,0.9   c-0.3,0.4-0.8,0.7-1.2,0.9c-0.4,0.2-0.8,0.2-1.2,0.2c-0.4,0-0.9-0.1-1.2-0.2C348.4,384.5,348,384.2,347.6,383.8z"/><path class="st2" d="M358.6,383.9c0.6-0.4,1.3-0.7,2-0.9c0.7-0.2,1.3-0.2,2-0.2c0.7,0,1.3,0.1,2,0.2c0.7,0.2,1.4,0.4,2,0.9   c-0.6,0.4-1.3,0.7-2,0.9c-1.3,0.3-2.7,0.3-4.1,0C359.9,384.5,359.2,384.3,358.6,383.9z"/><path class="st2" d="M375.1,383.8c0.3-0.4,0.6-0.7,1.1-0.9c0.3-0.2,0.7-0.2,1.1-0.2c0.4,0,0.7,0.1,1.1,0.2c0.5-0.1,0.9,0.2,1,0.7   c0.1,0.5-0.2,0.9-0.7,1c-0.1,0-0.2,0-0.4,0c-0.3,0.2-0.7,0.2-1.1,0.2c-0.4,0-0.7-0.1-1.1-0.2C375.8,384.5,375.4,384.2,375.1,383.8z   "/><path class="st2" d="M383.4,383.8c0.7-0.4,1.4-0.7,2.1-0.8c0.7-0.2,1.3-0.2,2-0.2c0.7,0,1.3,0.1,2,0.2c0.7,0.2,1.4,0.5,2,0.9   c-0.6,0.4-1.3,0.7-2,0.9c-0.7,0.2-1.4,0.2-2.1,0.2c-0.7,0-1.4-0.1-2.1-0.2C384.7,384.5,384,384.2,383.4,383.8z"/><path class="st2" d="M397.8,383.9c0.7-0.4,1.4-0.7,2.1-0.9c0.7-0.2,1.3-0.2,2-0.2c0.7,0,1.3,0.1,2,0.2c0.7,0.2,1.4,0.5,2,0.9   c-0.6,0.4-1.3,0.7-2,0.9c-0.7,0.2-1.4,0.2-2.1,0.2c-0.7,0-1.4-0.1-2-0.2C399,384.5,398.4,384.3,397.8,383.9z"/><path class="st2" d="M414.5,383.8c0.3-0.4,0.8-0.7,1.2-0.8c0.4-0.2,0.8-0.2,1.2-0.2c0.4,0,0.8,0.1,1.2,0.2c0.5,0.2,0.9,0.5,1.2,0.9   c-0.3,0.4-0.8,0.7-1.2,0.9c-0.4,0.1-0.8,0.2-1.2,0.2c-0.4,0-0.9-0.1-1.2-0.2C415.2,384.5,414.8,384.2,414.5,383.8z"/><path class="st2" d="M316.6,393.1c0.7-0.4,1.4-0.7,2.1-0.9c0.7-0.2,1.3-0.2,2-0.2c0.7,0,1.3,0.1,2,0.2c0.7,0.2,1.4,0.5,2,0.9   c-0.6,0.4-1.3,0.7-2.1,0.9c-0.7,0.2-1.4,0.2-2.1,0.2c-0.7,0-1.4-0.1-2-0.2C317.8,393.8,317.2,393.5,316.6,393.1z"/><path class="st2" d="M331,393.1c0.6-0.4,1.4-0.7,2.1-0.9c0.7-0.2,1.3-0.2,2-0.2c0.7,0,1.3,0.1,2,0.2c0.7,0.2,1.4,0.5,2,0.9   c-0.6,0.4-1.3,0.7-2,0.9c-0.7,0.2-1.4,0.2-2.1,0.2c-0.7,0-1.4-0.1-2.1-0.2C332.2,393.8,331.6,393.5,331,393.1z"/><path class="st2" d="M347.6,393.1c0.3-0.4,0.8-0.7,1.2-0.9c0.4-0.2,0.8-0.2,1.2-0.2c0.4,0,0.8,0.1,1.2,0.2c0.5,0.2,0.9,0.5,1.2,0.9   c-0.3,0.4-0.8,0.7-1.2,0.9c-0.4,0.2-0.8,0.2-1.2,0.2c-0.4,0-0.9-0.1-1.2-0.2C348.4,393.8,348,393.5,347.6,393.1z"/><path class="st2" d="M358.6,393.2c0.6-0.4,1.3-0.7,2-0.9c1.3-0.3,2.7-0.3,4.1,0c0.7,0.2,1.4,0.4,2,0.9c-0.6,0.4-1.3,0.7-2,0.9   c-0.7,0.2-1.3,0.2-2,0.2c-0.7,0-1.3-0.1-2-0.2C360,393.8,359.3,393.6,358.6,393.2z"/><path class="st2" d="M375.1,393.1c0.3-0.4,0.6-0.7,1.1-0.9c0.3-0.2,0.7-0.2,1.1-0.2c0.4,0,0.7,0.1,1.1,0.2c0.5-0.1,0.9,0.2,1,0.7   c0.1,0.5-0.2,0.9-0.7,1c-0.1,0-0.2,0-0.4,0c-0.3,0.2-0.7,0.2-1.1,0.2c-0.4,0-0.7-0.1-1.1-0.2C375.8,393.8,375.4,393.5,375.1,393.1z   "/><path class="st2" d="M383.4,393.1c0.6-0.4,1.4-0.7,2.1-0.8c0.7-0.2,1.3-0.2,2-0.2c0.7,0,1.3,0.1,2,0.2c0.7,0.2,1.4,0.5,2,0.9   c-0.6,0.4-1.3,0.7-2,0.9c-0.7,0.2-1.4,0.2-2.1,0.2c-0.7,0-1.4-0.1-2.1-0.2C384.7,393.8,384,393.5,383.4,393.1z"/><path class="st2" d="M397.8,393.1c0.7-0.4,1.4-0.7,2.1-0.9c0.7-0.2,1.3-0.2,2-0.2c0.7,0,1.3,0.1,2,0.2c0.7,0.2,1.4,0.4,2,0.9   c-0.6,0.4-1.3,0.7-2,0.9c-0.7,0.2-1.4,0.2-2.1,0.2c-0.7,0-1.4-0.1-2-0.2C399,393.8,398.4,393.5,397.8,393.1z"/><path class="st2" d="M414.5,393.1c0.3-0.4,0.8-0.7,1.2-0.9c0.4-0.1,0.8-0.2,1.2-0.2c0.4,0,0.8,0.1,1.2,0.2c0.5,0.2,0.9,0.5,1.2,0.9   c-0.3,0.4-0.8,0.7-1.2,0.9c-0.4,0.2-0.8,0.2-1.2,0.2c-0.4,0-0.9-0.1-1.2-0.2C415.2,393.8,414.8,393.5,414.5,393.1z"/><path class="st2" d="M316.2,402.6c0.7-0.4,1.4-0.7,2.1-0.9c0.7-0.2,1.3-0.2,2-0.2c0.7,0,1.3,0.1,2,0.2c0.7,0.2,1.4,0.5,2,0.9   c-0.6,0.4-1.3,0.7-2,0.9c-0.7,0.2-1.4,0.2-2.1,0.2c-0.7,0-1.4-0.1-2.1-0.2C317.5,403.3,316.8,403,316.2,402.6z"/><path class="st2" d="M330.6,402.6c0.6-0.4,1.4-0.7,2.1-0.9c0.7-0.2,1.3-0.2,2-0.2c0.7,0,1.3,0.1,2,0.2c0.7,0.2,1.4,0.5,2,0.9   c-0.6,0.4-1.3,0.7-2,0.9c-0.7,0.2-1.4,0.2-2.1,0.2c-0.7,0-1.4-0.1-2.1-0.2C331.8,403.3,331.2,403,330.6,402.6z"/><path class="st2" d="M347.2,402.6c0.3-0.4,0.8-0.7,1.2-0.9c0.4-0.2,0.8-0.2,1.2-0.2c0.4,0,0.8,0.1,1.2,0.2c0.5,0.2,0.9,0.5,1.2,0.9   c-0.3,0.4-0.8,0.7-1.2,0.9c-0.4,0.2-0.8,0.2-1.2,0.2c-0.4,0-0.9-0.1-1.2-0.2C348,403.2,347.6,402.9,347.2,402.6z"/><path class="st2" d="M358.2,402.6c0.6-0.4,1.3-0.7,2-0.9c0.7-0.2,1.3-0.2,2-0.2c0.7,0,1.3,0.1,2,0.2c0.7,0.2,1.4,0.5,2,0.9   c-0.6,0.4-1.3,0.7-2,0.9c-0.7,0.2-1.3,0.2-2,0.2c-0.7,0-1.3-0.1-2-0.2C359.5,403.3,358.9,403,358.2,402.6z"/><path class="st2" d="M374.7,402.6c0.3-0.4,0.6-0.7,1.1-0.9c0.3-0.2,0.7-0.2,1.1-0.2c0.4,0,0.7,0.1,1.1,0.2c0.5-0.1,0.9,0.2,1,0.7   c0.1,0.5-0.2,0.9-0.7,1c-0.1,0-0.2,0-0.4,0c-0.3,0.2-0.7,0.2-1.1,0.2c-0.4,0-0.7-0.1-1.1-0.2C375.4,403.2,375,402.9,374.7,402.6z"/><path class="st2" d="M383.1,402.6c0.7-0.4,1.4-0.7,2.1-0.8c0.7-0.2,1.3-0.2,2-0.2c0.7,0,1.3,0.1,2,0.2c0.7,0.2,1.4,0.5,2,0.9   c-0.6,0.4-1.3,0.7-2,0.9c-0.7,0.2-1.4,0.2-2.1,0.2c-0.7,0-1.3-0.1-2-0.2C384.3,403.3,383.7,403,383.1,402.6z"/><path class="st2" d="M397.4,402.6c0.7-0.4,1.4-0.7,2.1-0.9c0.7-0.2,1.3-0.2,2-0.2c0.7,0,1.3,0.1,2,0.2c0.7,0.2,1.4,0.5,2,0.9   c-0.6,0.4-1.3,0.7-2,0.9c-0.7,0.2-1.4,0.2-2.1,0.2c-0.7,0-1.4-0.1-2-0.2C398.7,403.3,398,403,397.4,402.6z"/><path class="st2" d="M414.1,402.6c0.3-0.4,0.8-0.7,1.2-0.9c0.4-0.1,0.8-0.2,1.2-0.2c0.4,0,0.9,0.1,1.2,0.2c0.5,0.2,0.9,0.5,1.2,0.9   c-0.3,0.4-0.8,0.7-1.2,0.9c-0.4,0.2-0.8,0.2-1.2,0.2c-0.4,0-0.8-0.1-1.2-0.2C414.9,403.3,414.4,403,414.1,402.6z"/><polygon class="st1" points="456.3,360 430.6,360 430.6,317.6 456.3,317.5  "/><rect class="st0" x="260.9" y="317.6" width="171" height="42.4"/><path class="st1" d="M261.5,318.6h164c2.2,0,4.5,0.1,6.7,0h0.3l-3.1-1.1v42.4l1.9-0.8h-164c-2.2,0-4.5-0.1-6.7,0h-0.3l3.1,1.1   v-42.4c0-1.4-5-1.6-5-0.3v42.4c0,1.1,2.5,1.1,3.1,1.1h164c2.2,0,4.4,0.1,6.7,0h0.3c0.4,0,1.9-0.1,1.9-0.8v-42.4   c0-1.1-2.5-1.1-3.1-1.1h-164c-2.2,0-4.4,0-6.7,0h-0.3c-0.6,0-2.1,0.2-1.8,1.1S260.8,318.6,261.5,318.6z"/><path class="st1" d="M275,329.5c0,1.1-0.9,1.9-1.9,1.9s-1.9-0.9-1.9-1.9s0.9-1.9,1.9-1.9S275,328.5,275,329.5L275,329.5z"/><path class="st1" d="M273,332c-1.3,0-2.4-1.1-2.4-2.4s1.1-2.4,2.4-2.4s2.4,1.1,2.4,2.4C275.4,330.9,274.3,332,273,332z M273,328.1   c-0.8,0-1.4,0.6-1.4,1.4s0.6,1.4,1.4,1.4s1.4-0.6,1.4-1.4C274.5,328.8,273.8,328.1,273,328.1C273,328.1,273,328.1,273,328.1   L273,328.1z"/><path class="st1" d="M283.5,329.5c0,1.1-0.9,1.9-1.9,1.9s-1.9-0.9-1.9-1.9s0.9-1.9,1.9-1.9l0,0   C282.6,327.6,283.5,328.4,283.5,329.5C283.5,329.5,283.5,329.5,283.5,329.5L283.5,329.5z"/><path class="st1" d="M281.5,332c-1.3,0-2.4-1.1-2.4-2.4c0-1.3,1.1-2.4,2.4-2.4c1.3,0,2.4,1.1,2.4,2.4l0,0   C284,330.9,282.9,332,281.5,332C281.5,332,281.5,332,281.5,332z M281.5,328.1c-0.8,0-1.4,0.6-1.5,1.4c0,0.8,0.6,1.4,1.4,1.5   c0.8,0,1.4-0.6,1.5-1.4c0,0,0,0,0,0l0,0C283,328.8,282.4,328.1,281.5,328.1C281.6,328.1,281.6,328.1,281.5,328.1L281.5,328.1z"/><path class="st1" d="M292,329.5c0,1.1-0.9,1.9-1.9,1.9s-1.9-0.9-1.9-1.9s0.9-1.9,1.9-1.9l0,0C291.1,327.6,292,328.5,292,329.5   L292,329.5z"/><path class="st1" d="M290.1,332c-1.3,0-2.4-1.1-2.4-2.4c0-1.3,1.1-2.4,2.4-2.4c1.3,0,2.4,1.1,2.4,2.4l0,0   C292.5,330.9,291.4,332,290.1,332z M290.1,328.1c-0.8,0-1.4,0.6-1.4,1.4c0,0.8,0.6,1.4,1.4,1.4c0.8,0,1.4-0.6,1.4-1.4c0,0,0,0,0,0   l0,0C291.5,328.8,290.9,328.1,290.1,328.1C290.1,328.1,290.1,328.1,290.1,328.1L290.1,328.1z"/><path class="st2" d="M315.4,329.5c0.7-0.4,1.4-0.7,2.1-0.9c0.7-0.2,1.3-0.2,2-0.2c0.7,0,1.3,0.1,2,0.2c0.7,0.2,1.4,0.5,2,0.9   c-0.6,0.4-1.3,0.7-2,0.9c-0.7,0.2-1.4,0.2-2.1,0.2c-0.7,0-1.4-0.1-2-0.2C316.6,330.2,316,329.9,315.4,329.5z"/><path class="st2" d="M329.7,329.5c0.7-0.4,1.4-0.7,2.1-0.9c0.7-0.2,1.3-0.2,2-0.2c0.7,0,1.3,0.1,2,0.2c0.7,0.2,1.4,0.5,2,0.9   c-0.6,0.4-1.3,0.7-2,0.9c-0.7,0.2-1.4,0.2-2.1,0.2c-0.7,0-1.4-0.1-2-0.2C331,330.2,330.3,329.9,329.7,329.5z"/><path class="st2" d="M346.4,329.5c0.3-0.4,0.8-0.7,1.2-0.9c0.4-0.2,0.8-0.2,1.2-0.2c0.4,0,0.9,0.1,1.2,0.2c0.5,0.2,0.9,0.5,1.2,0.9   c-0.3,0.4-0.8,0.7-1.2,0.9c-0.4,0.2-0.8,0.2-1.2,0.2c-0.4,0-0.8-0.1-1.2-0.2C347.2,330.2,346.7,329.9,346.4,329.5z"/><path class="st2" d="M357.4,329.6c0.6-0.4,1.3-0.7,2-0.9c0.7-0.2,1.3-0.2,2-0.2c0.7,0,1.3,0.1,2,0.2c0.7,0.2,1.4,0.4,2,0.9   c-0.6,0.4-1.3,0.7-2,0.9c-1.3,0.3-2.7,0.3-4.1,0C358.6,330.3,358,330,357.4,329.6z"/><path class="st2" d="M373.9,329.5c0.3-0.4,0.6-0.7,1.1-0.9c0.7-0.3,1.5-0.3,2.1,0c0.4,0.2,0.8,0.5,1.1,0.9   c-0.3,0.4-0.6,0.7-1.1,0.9c-0.7,0.3-1.5,0.3-2.1,0C374.5,330.2,374.2,329.9,373.9,329.5z"/><path class="st2" d="M382.2,329.5c0.7-0.4,1.4-0.7,2.1-0.8c0.7-0.2,1.3-0.2,2-0.2c0.7,0,1.3,0.1,2,0.2c0.7,0.2,1.4,0.5,2,0.9   c-0.6,0.4-1.3,0.7-2.1,0.9c-0.7,0.2-1.4,0.2-2.1,0.2c-0.7,0-1.4-0.1-2-0.2C383.4,330.2,382.8,329.9,382.2,329.5z"/><path class="st2" d="M396.6,329.6c0.7-0.4,1.4-0.7,2.1-0.9c0.7-0.2,1.3-0.2,2-0.2c0.7,0,1.3,0.1,2,0.2c0.7,0.2,1.4,0.5,2,0.9   c-0.6,0.4-1.3,0.7-2.1,0.9c-0.7,0.2-1.4,0.2-2.1,0.2c-0.7,0-1.4-0.1-2-0.2C397.8,330.3,397.2,330,396.6,329.6z"/><path class="st2" d="M413.2,329.5c0.3-0.4,0.8-0.7,1.2-0.9c0.4-0.1,0.8-0.2,1.2-0.2c0.4,0,0.9,0.1,1.2,0.2c0.5,0.2,0.9,0.5,1.2,0.9   c-0.3,0.4-0.8,0.7-1.2,0.9c-0.4,0.1-0.8,0.2-1.2,0.2c-0.4,0-0.8-0.1-1.2-0.2C414,330.2,413.6,329.9,413.2,329.5z"/><path class="st2" d="M315.4,338.8c0.7-0.4,1.4-0.7,2.1-0.9c0.7-0.2,1.3-0.2,2-0.2c0.7,0,1.3,0.1,2,0.2c0.7,0.2,1.4,0.4,2,0.9   c-0.6,0.4-1.3,0.7-2,0.9c-0.7,0.2-1.4,0.2-2.1,0.2c-0.7,0-1.4-0.1-2-0.2C316.6,339.5,316,339.2,315.4,338.8z"/><path class="st2" d="M329.7,338.8c0.7-0.4,1.4-0.7,2.1-0.8c0.7-0.2,1.3-0.2,2-0.2c0.7,0,1.3,0.1,2,0.2c0.7,0.2,1.4,0.5,2,0.9   c-0.6,0.4-1.3,0.7-2,0.9c-0.7,0.2-1.4,0.2-2.1,0.2c-0.7,0-1.4-0.1-2-0.2C331,339.5,330.3,339.2,329.7,338.8z"/><path class="st2" d="M346.4,338.8c0.3-0.4,0.8-0.7,1.2-0.9c0.4-0.2,0.8-0.2,1.2-0.2c0.4,0,0.9,0.1,1.2,0.2c0.5,0.2,0.9,0.5,1.2,0.9   c-0.3,0.4-0.8,0.7-1.2,0.9c-0.4,0.2-0.8,0.2-1.2,0.2c-0.4,0-0.8-0.1-1.2-0.2C347.2,339.5,346.7,339.2,346.4,338.8z"/><path class="st2" d="M357.4,338.9c0.6-0.4,1.3-0.7,2-0.9c0.7-0.2,1.3-0.2,2-0.2c0.7,0,1.3,0.1,2,0.2c0.7,0.2,1.4,0.5,2,0.9   c-0.6,0.4-1.3,0.7-2,0.9c-0.7,0.2-1.3,0.2-2,0.2c-0.7,0-1.3-0.1-2-0.2C358.7,339.5,358,339.3,357.4,338.9z"/><path class="st2" d="M373.9,338.8c0.3-0.4,0.7-0.6,1.1-0.8c0.3-0.2,0.7-0.2,1.1-0.2c0.4,0,0.7,0.1,1.1,0.2c0.4,0.2,0.8,0.5,1.1,0.9   c-0.3,0.4-0.6,0.7-1.1,0.9c-0.7,0.3-1.5,0.3-2.1,0C374.6,339.5,374.2,339.2,373.9,338.8z"/><path class="st2" d="M382.2,338.8c0.7-0.4,1.4-0.7,2.1-0.8c0.7-0.2,1.3-0.2,2-0.2c0.7,0,1.3,0.1,2,0.2c0.7,0.2,1.4,0.5,2,0.9   c-0.6,0.4-1.3,0.7-2.1,0.9c-0.7,0.2-1.4,0.2-2.1,0.2c-0.7,0-1.4-0.1-2-0.2C383.4,339.5,382.8,339.2,382.2,338.8z"/><path class="st2" d="M396.6,338.9c0.6-0.4,1.4-0.7,2.1-0.9c0.7-0.2,1.3-0.2,2-0.2c0.7,0,1.3,0.1,2,0.2c0.7,0.2,1.4,0.5,2,0.9   c-0.6,0.4-1.3,0.7-2.1,0.9c-0.7,0.2-1.4,0.2-2.1,0.2c-0.7,0-1.4-0.1-2-0.2C397.8,339.5,397.2,339.3,396.6,338.9z"/><path class="st2" d="M413.2,338.8c0.3-0.4,0.8-0.7,1.2-0.9c0.4-0.2,0.8-0.2,1.2-0.2c0.4,0,0.9,0.1,1.3,0.2c0.5,0.2,0.9,0.5,1.2,0.9   c-0.3,0.4-0.8,0.7-1.2,0.9c-0.4,0.2-0.8,0.2-1.2,0.2c-0.4,0-0.8-0.1-1.2-0.2C414,339.5,413.6,339.2,413.2,338.8z"/><path class="st2" d="M315,348.3c0.7-0.4,1.4-0.7,2.1-0.9c0.7-0.2,1.3-0.2,2-0.2c0.7,0,1.3,0.1,2,0.2c0.7,0.2,1.4,0.4,2,0.9   c-0.6,0.4-1.3,0.7-2,0.9c-0.7,0.2-1.4,0.2-2.1,0.2c-0.7,0-1.3-0.1-2-0.2C316.3,349,315.6,348.7,315,348.3z"/><path class="st2" d="M329.4,348.3c0.7-0.4,1.4-0.7,2.1-0.8c0.7-0.2,1.3-0.2,2-0.2c0.7,0,1.3,0.1,2,0.2c0.7,0.2,1.4,0.5,2,0.9   c-0.6,0.4-1.3,0.7-2.1,0.9c-0.7,0.2-1.4,0.2-2.1,0.2c-0.7,0-1.4-0.1-2-0.2C330.6,349,329.9,348.7,329.4,348.3z"/><path class="st2" d="M346,348.3c0.3-0.4,0.8-0.7,1.2-0.9c0.4-0.2,0.8-0.2,1.2-0.2c0.4,0,0.9,0.1,1.2,0.2c0.5,0.2,0.9,0.5,1.2,0.9   c-0.3,0.4-0.8,0.7-1.2,0.9c-0.4,0.2-0.8,0.2-1.2,0.2c-0.4,0-0.8-0.1-1.2-0.2C346.8,348.9,346.3,348.7,346,348.3z"/><path class="st2" d="M357,348.3c0.6-0.4,1.3-0.7,2-0.9c0.7-0.2,1.3-0.2,2-0.2c0.7,0,1.3,0.1,2,0.2c0.7,0.2,1.4,0.5,2,0.9   c-0.6,0.4-1.3,0.7-2,0.9c-1.3,0.3-2.7,0.3-4.1,0C358.2,349,357.6,348.7,357,348.3z"/><path class="st2" d="M373.5,348.3c0.3-0.4,0.6-0.7,1.1-0.9c0.3-0.2,0.7-0.2,1.1-0.2c0.4,0,0.7,0.1,1.1,0.2c0.4,0.2,0.8,0.5,1.1,0.9   c-0.3,0.4-0.6,0.7-1.1,0.9c-0.3,0.2-0.7,0.2-1.1,0.2c-0.4,0-0.7-0.1-1.1-0.2C374.2,348.9,373.8,348.6,373.5,348.3z"/><path class="st2" d="M381.8,348.3c0.6-0.4,1.4-0.7,2.1-0.8c0.7-0.2,1.3-0.2,2-0.2c0.7,0,1.3,0.1,2,0.2c0.7,0.2,1.4,0.5,2,0.9   c-0.6,0.4-1.3,0.7-2.1,0.9c-0.7,0.2-1.4,0.2-2.1,0.2c-0.7,0-1.4-0.1-2-0.2C383.1,349,382.4,348.7,381.8,348.3z"/><path class="st2" d="M396.2,348.3c0.6-0.4,1.4-0.7,2.1-0.9c0.7-0.2,1.3-0.2,2-0.2c0.7,0,1.3,0.1,2,0.2c0.7,0.2,1.4,0.5,2,0.9   c-0.6,0.4-1.3,0.7-2.1,0.9c-0.7,0.2-1.4,0.2-2.1,0.2c-0.7,0-1.4-0.1-2-0.2C397.4,349,396.8,348.7,396.2,348.3z"/><path class="st2" d="M412.9,348.3c0.3-0.4,0.8-0.7,1.2-0.9c0.4-0.2,0.8-0.2,1.2-0.2c0.4,0,0.9,0.1,1.2,0.2c0.5,0.2,0.9,0.5,1.2,0.9   c-0.3,0.4-0.8,0.7-1.2,0.9c-0.4,0.2-0.8,0.2-1.2,0.2c-0.4,0-0.8-0.1-1.2-0.2C413.6,349,413.2,348.7,412.9,348.3z"/><polygon class="st1" points="458.1,305.7 432.4,305.7 432.4,263.3 458.1,263.2  "/><rect class="st0" x="262.6" y="263.3" width="171" height="42.4"/><path class="st1" d="M262.8,265.5h164c2.2,0,4.5,0.1,6.6,0h0.3l-2.6-2.2v42.4l2.3-2.2h-164c-2.2,0-4.5-0.1-6.6,0h-0.3l2.6,2.2   v-42.4c0-2.8-5-2.9-5,0v42.4c0,1.3,1.5,2.2,2.7,2.2h164c2.2,0,4.4,0.1,6.6,0h0.3c1.2,0,2.3-0.9,2.3-2.1c0,0,0-0.1,0-0.1v-42.4   c0-1.3-1.5-2.2-2.6-2.2h-164c-2.2,0-4.4-0.1-6.6,0h-0.3C259.2,261.1,259.8,265.5,262.8,265.5z"/><path class="st1" d="M276.7,275.2c0,1.1-0.9,1.9-1.9,1.9s-1.9-0.9-1.9-1.9s0.9-1.9,1.9-1.9S276.7,274.2,276.7,275.2L276.7,275.2z"/><path class="st1" d="M274.8,277.7c-1.3,0-2.4-1.1-2.4-2.4s1.1-2.4,2.4-2.4s2.4,1.1,2.4,2.4S276.1,277.7,274.8,277.7L274.8,277.7z    M274.8,273.8c-0.8,0-1.4,0.6-1.4,1.4s0.6,1.4,1.4,1.4s1.4-0.6,1.4-1.4S275.6,273.8,274.8,273.8L274.8,273.8z"/><path class="st1" d="M285.2,275.2c0,1.1-0.9,1.9-1.9,1.9s-1.9-0.9-1.9-1.9s0.9-1.9,1.9-1.9l0,0   C284.4,273.3,285.2,274.2,285.2,275.2L285.2,275.2L285.2,275.2z"/><path class="st1" d="M283.3,277.7c-1.3,0-2.4-1.1-2.4-2.4c0-1.3,1.1-2.4,2.4-2.4c1.3,0,2.4,1.1,2.4,2.4l0,0   C285.8,276.6,284.7,277.7,283.3,277.7C283.3,277.7,283.3,277.7,283.3,277.7z M283.3,273.8c-0.8,0-1.4,0.6-1.5,1.4   c0,0.8,0.6,1.4,1.4,1.5c0.8,0,1.4-0.6,1.5-1.4c0,0,0,0,0,0l0,0C284.7,274.5,284.1,273.8,283.3,273.8L283.3,273.8z"/><path class="st1" d="M293.8,275.2c0,1.1-0.9,1.9-1.9,1.9s-1.9-0.9-1.9-1.9s0.9-1.9,1.9-1.9l0,0   C292.9,273.3,293.7,274.1,293.8,275.2C293.8,275.2,293.8,275.2,293.8,275.2L293.8,275.2z"/><path class="st1" d="M291.8,277.7c-1.3,0-2.4-1.1-2.4-2.4c0-1.3,1.1-2.4,2.4-2.4c1.3,0,2.4,1.1,2.4,2.4l0,0   C294.3,276.6,293.2,277.7,291.8,277.7L291.8,277.7z M291.8,273.8c-0.8,0-1.4,0.6-1.4,1.4c0,0.8,0.6,1.4,1.4,1.4   c0.8,0,1.4-0.6,1.4-1.4c0,0,0,0,0,0l0,0C293.3,274.5,292.6,273.8,291.8,273.8C291.8,273.8,291.8,273.8,291.8,273.8L291.8,273.8z"/><path class="st2" d="M317.1,275.2c0.7-0.4,1.4-0.7,2.1-0.9c0.7-0.2,1.3-0.2,2-0.2c0.7,0,1.3,0.1,2,0.2c0.7,0.2,1.4,0.5,2,0.9   c-0.6,0.4-1.3,0.7-2,0.9c-0.7,0.2-1.4,0.2-2.1,0.2c-0.7,0-1.4-0.1-2.1-0.2C318.4,275.9,317.7,275.6,317.1,275.2z"/><path class="st2" d="M331.5,275.2c0.7-0.4,1.4-0.7,2.1-0.8c0.7-0.2,1.3-0.2,2-0.2c0.7,0,1.3,0.1,2,0.2c0.7,0.2,1.4,0.5,2,0.9   c-0.6,0.4-1.3,0.7-2,0.9c-0.7,0.2-1.4,0.2-2.1,0.2c-0.7,0-1.4-0.1-2-0.2C332.7,275.9,332.1,275.6,331.5,275.2z"/><path class="st2" d="M348.1,275.2c0.3-0.4,0.8-0.7,1.2-0.9c0.4-0.2,0.8-0.2,1.2-0.2c0.4,0,0.8,0.1,1.2,0.2c0.5,0.2,0.9,0.5,1.2,0.9   c-0.3,0.4-0.8,0.7-1.2,0.9c-0.4,0.2-0.8,0.2-1.2,0.2c-0.4,0-0.9-0.1-1.2-0.2C348.9,275.9,348.5,275.6,348.1,275.2z"/><path class="st2" d="M359.2,275.3c0.6-0.4,1.3-0.7,2-0.9c0.7-0.2,1.3-0.2,2-0.2c0.7,0,1.3,0.1,2,0.2c0.7,0.2,1.4,0.5,2,0.9   c-0.6,0.4-1.3,0.7-2,0.9c-0.7,0.2-1.3,0.2-2,0.2c-0.7,0-1.3-0.1-2-0.2C360.5,276,359.8,275.7,359.2,275.3z"/><path class="st2" d="M375.6,275.2c0.3-0.4,0.6-0.7,1.1-0.9c0.3-0.2,0.7-0.2,1.1-0.2c0.4,0,0.7,0.1,1.1,0.2c0.4,0.2,0.8,0.5,1.1,0.9   c-0.3,0.4-0.6,0.7-1.1,0.9c-0.3,0.2-0.7,0.2-1.1,0.2c-0.4,0-0.7-0.1-1.1-0.2C376.3,275.9,375.9,275.6,375.6,275.2z"/><path class="st2" d="M384,275.3c0.7-0.4,1.4-0.7,2.1-0.8c0.7-0.2,1.3-0.2,2-0.2c0.7,0,1.3,0.1,2,0.2c0.7,0.2,1.4,0.5,2,0.9   c-0.6,0.4-1.3,0.7-2,0.9c-0.7,0.2-1.4,0.2-2.1,0.2c-0.7,0-1.4-0.1-2-0.2C385.2,275.9,384.6,275.7,384,275.3z"/><path class="st2" d="M398.3,275.3c0.7-0.4,1.4-0.7,2.1-0.9c0.7-0.2,1.3-0.2,2-0.2c0.7,0,1.3,0.1,2,0.2c0.7,0.2,1.4,0.5,2,0.9   c-0.6,0.4-1.3,0.7-2.1,0.9c-0.7,0.2-1.4,0.2-2.1,0.2c-0.7,0-1.4-0.1-2-0.2C399.6,276,398.9,275.7,398.3,275.3z"/><path class="st2" d="M415,275.3c0.3-0.4,0.8-0.7,1.2-0.9c0.4-0.1,0.8-0.2,1.2-0.2c0.4,0,0.9,0.1,1.2,0.2c0.5,0.2,0.9,0.5,1.2,0.9   c-0.3,0.4-0.8,0.7-1.2,0.9c-0.4,0.2-0.8,0.2-1.2,0.2c-0.4,0-0.8-0.1-1.2-0.2C415.8,275.9,415.3,275.6,415,275.3z"/><path class="st2" d="M317.1,284.5c0.6-0.4,1.4-0.7,2.1-0.9c0.7-0.2,1.3-0.2,2-0.2c0.7,0,1.3,0.1,2,0.2c0.7,0.2,1.4,0.4,2,0.9   c-0.6,0.4-1.3,0.7-2,0.9c-0.7,0.2-1.4,0.2-2.1,0.2c-0.7,0-1.4-0.1-2.1-0.2C318.4,285.2,317.7,284.9,317.1,284.5z"/><path class="st2" d="M331.5,284.5c0.7-0.4,1.4-0.7,2.1-0.8c0.7-0.2,1.3-0.2,2-0.2c0.7,0,1.3,0.1,2,0.2c0.7,0.2,1.4,0.5,2,0.9   c-0.6,0.4-1.3,0.7-2,0.9c-0.7,0.2-1.4,0.2-2.1,0.2c-0.7,0-1.4-0.1-2-0.2C332.7,285.2,332.1,284.9,331.5,284.5z"/><path class="st2" d="M348.1,284.5c0.3-0.4,0.8-0.7,1.2-0.9c0.4-0.2,0.8-0.2,1.2-0.2c0.4,0,0.8,0.1,1.2,0.2c0.5,0.2,0.9,0.5,1.2,0.9   c-0.3,0.4-0.8,0.7-1.2,0.9c-0.4,0.2-0.8,0.2-1.2,0.2c-0.4,0-0.9-0.1-1.2-0.2C348.9,285.2,348.5,284.9,348.1,284.5z"/><path class="st2" d="M359.2,284.6c0.6-0.4,1.3-0.7,2-0.9c1.3-0.3,2.7-0.3,4.1,0c0.7,0.2,1.4,0.5,2,0.9c-0.6,0.4-1.3,0.7-2,0.9   c-1.3,0.3-2.7,0.3-4.1,0C360.4,285.3,359.8,285,359.2,284.6z"/><path class="st2" d="M375.6,284.5c0.3-0.4,0.6-0.7,1.1-0.9c0.3-0.2,0.7-0.2,1.1-0.2c0.4,0,0.7,0.1,1.1,0.2c0.4,0.2,0.8,0.5,1.1,0.9   c-0.3,0.4-0.6,0.7-1.1,0.9c-0.3,0.2-0.7,0.2-1.1,0.2c-0.4,0-0.7-0.1-1.1-0.2C376.3,285.2,375.9,284.9,375.6,284.5z"/><path class="st2" d="M384,284.5c0.7-0.4,1.4-0.7,2.1-0.9c0.7-0.1,1.3-0.2,2-0.2c0.7,0,1.3,0.1,2,0.2c0.7,0.2,1.4,0.5,2,0.9   c-0.6,0.4-1.3,0.7-2,0.9c-0.7,0.2-1.4,0.2-2.1,0.2c-0.7,0-1.4-0.1-2-0.2C385.2,285.2,384.6,284.9,384,284.5z"/><path class="st2" d="M398.3,284.6c0.7-0.4,1.4-0.7,2.1-0.9c0.7-0.2,1.3-0.2,2-0.2c0.7,0,1.3,0.1,2,0.2c0.7,0.2,1.4,0.5,2,0.9   c-0.6,0.4-1.3,0.7-2.1,0.9c-0.7,0.2-1.4,0.2-2.1,0.2c-0.7,0-1.4-0.1-2-0.2C399.6,285.3,398.9,285,398.3,284.6z"/><path class="st2" d="M415,284.5c0.3-0.4,0.8-0.7,1.2-0.9c0.4-0.2,0.8-0.2,1.2-0.2c0.4,0,0.9,0.1,1.2,0.2c0.5,0.2,0.9,0.5,1.2,0.9   c-0.3,0.4-0.8,0.7-1.2,0.9c-0.4,0.2-0.8,0.2-1.2,0.2c-0.4,0-0.8-0.1-1.2-0.2C415.8,285.2,415.3,284.9,415,284.5z"/><path class="st2" d="M316.8,294c0.7-0.4,1.4-0.7,2.1-0.9c0.7-0.2,1.3-0.2,2-0.2c0.7,0,1.3,0.1,2,0.2c0.7,0.2,1.4,0.4,2,0.9   c-0.6,0.4-1.3,0.7-2,0.9c-0.7,0.2-1.4,0.2-2.1,0.2c-0.7,0-1.3-0.1-2-0.2C318,294.7,317.4,294.4,316.8,294z"/><path class="st2" d="M331.1,294c0.7-0.4,1.4-0.7,2.1-0.8c0.7-0.2,1.3-0.2,2-0.2c0.7,0,1.3,0.1,2,0.2c0.7,0.2,1.4,0.5,2,0.9   c-0.6,0.4-1.3,0.7-2,0.9c-0.7,0.2-1.4,0.2-2.1,0.2c-0.7,0-1.4-0.1-2-0.2C332.4,294.7,331.7,294.4,331.1,294z"/><path class="st2" d="M347.8,294c0.3-0.4,0.8-0.7,1.2-0.9c0.4-0.2,0.8-0.2,1.2-0.2c0.4,0,0.9,0.1,1.2,0.2c0.5,0.2,0.9,0.5,1.2,0.9   c-0.3,0.4-0.8,0.7-1.2,0.9c-0.4,0.2-0.8,0.2-1.2,0.2c-0.4,0-0.8-0.1-1.2-0.2C348.5,294.7,348.1,294.4,347.8,294z"/><path class="st2" d="M358.8,294c0.6-0.4,1.3-0.7,2-0.9c1.3-0.3,2.7-0.3,4.1,0c0.7,0.2,1.4,0.5,2,0.9c-0.6,0.4-1.3,0.7-2,0.9   c-1.3,0.3-2.7,0.3-4.1,0C360.1,294.7,359.4,294.4,358.8,294z"/><path class="st2" d="M375.3,294c0.3-0.4,0.6-0.7,1.1-0.9c0.3-0.2,0.7-0.2,1.1-0.2c0.4,0,0.7,0.1,1.1,0.2c0.4,0.2,0.8,0.5,1.1,0.9   c-0.3,0.4-0.6,0.7-1.1,0.9c-0.3,0.2-0.7,0.2-1.1,0.2c-0.4,0-0.7-0.1-1.1-0.2C375.9,294.7,375.6,294.4,375.3,294z"/><path class="st2" d="M383.6,294c0.7-0.4,1.4-0.7,2.1-0.9c0.7-0.1,1.3-0.2,2-0.2c0.7,0,1.3,0.1,2,0.2c0.7,0.2,1.4,0.5,2,0.9   c-0.6,0.4-1.3,0.7-2.1,0.9c-0.7,0.2-1.4,0.2-2.1,0.2c-0.7,0-1.4-0.1-2-0.2C384.8,294.7,384.2,294.4,383.6,294z"/><path class="st2" d="M398,294c0.6-0.4,1.4-0.7,2.1-0.9c0.7-0.2,1.3-0.2,2-0.2c0.7,0,1.3,0.1,2,0.2c0.7,0.2,1.4,0.5,2,0.9   c-0.6,0.4-1.3,0.7-2.1,0.9c-0.7,0.2-1.4,0.2-2.1,0.2c-0.7,0-1.4-0.1-2-0.2C399.2,294.7,398.6,294.4,398,294z"/><path class="st2" d="M414.6,294c0.3-0.4,0.8-0.7,1.2-0.9c0.4-0.2,0.8-0.2,1.2-0.2c0.4,0,0.9,0.1,1.2,0.2c0.5,0.2,0.9,0.5,1.2,0.9   c-0.3,0.4-0.8,0.7-1.2,0.9c-0.4,0.2-0.8,0.2-1.2,0.2c-0.4,0-0.8-0.1-1.2-0.2C415.4,294.7,415,294.4,414.6,294z"/></g><g id="cloud"><path class="st2" d="M213.2,156.7c0,0-104.3,0.7-114.8-1.4s-22.9-18.5-11.3-37.7s29.3-13.6,29.3-13.6s-1.5-26.9,34.9-25.5   s34.9,32.1,34.9,32.1s27.4,1,24,21c0,0,12.8-4.2,19.5,10.5S213.2,156.7,213.2,156.7z"/><path class="st0" d="M212.1,154.6c-6.9,0-13.8,0.1-20.7,0.1c-14.6,0-29.1,0-43.7,0c-13.3-0.1-26.7-0.1-40-0.7   c-3.4-0.1-6.8-0.3-10.1-0.7c-0.5-0.1,0.2,0.1-0.1,0s-0.8-0.2-1.3-0.3c-0.8-0.3-1.6-0.6-2.4-1c-1.7-0.9-3.3-2.1-4.6-3.5   c-2.9-3.2-4.7-7.2-5.1-11.5c-0.6-5.9,1.2-11.9,4.2-17c2.6-4.6,6.3-8.5,10.9-11.2c3.2-1.8,6.7-2.9,10.4-3.2c1.3-0.1,2.7-0.1,4,0   c0.5,0,1,0.1,1.6,0.2l0.6,0.1c0.1,0,0.2,0,0.3,0.1c0.3,0.1,0.7,0.1,1,0.2s1,0,0.9-0.6c-0.1-3,0.5-6,1.6-8.8   c2.6-6.7,8.1-11.3,14.7-13.7c5.5-1.8,11.2-2.6,17-2.3c5.8,0,11.5,1.1,16.9,3.2c2,0.9,4,1.9,5.8,3.2c0.7,0.5,1.4,1.1,2.1,1.7   c0.4,0.3,0.7,0.6,1,1l0.4,0.5l0.3,0.3c0.3,0.3,0.6,0.7,0.9,1l0.4,0.5c0.1,0.2,0.5,0.6,0.1,0.2c0.5,0.7,1,1.5,1.5,2.2   c0.1,0.1,0.4,0.7,0.1,0.2l0.3,0.5c0.2,0.4,0.4,0.8,0.6,1.2l0.4,1c0,0.1,0.3,0.7,0.2,0.4s0.1,0.3,0.1,0.4c0.3,0.7,0.5,1.4,0.7,2.1   c0.1,0.3,0.2,0.7,0.3,1l0.1,0.4c0.1,0.3-0.1-0.3,0,0.2c0.3,1.2,0.5,2.3,0.6,3.5c0.1,0.5,0.1,1,0.2,1.5c0,0.2,0,0.4,0.1,0.6   s0,0.2,0,0.3s0-0.4,0-0.1s0,1,0,1.4c0,0.1,0,0.1,0,0.2c-0.1,1.3,1.2,3.6,2.7,3.7c2.8,0.1,5.5,0.6,8.2,1.3c2.4,0.6,4.7,1.5,6.9,2.7   c1.1,0.6,2.1,1.3,3,2.1c0.2,0.2,0.5,0.4,0.7,0.6s0.2,0.2,0.4,0.4c-0.3-0.3,0,0,0,0c0.2,0.3,0.4,0.5,0.7,0.8c0.1,0.1,0.3,0.4,0,0   l0.4,0.5c0.3,0.4,0.5,0.9,0.7,1.4c0.2,0.6,0.4,1.3,0.5,1.9c0.3,1.9,0.3,3.7-0.1,5.6c-0.2,1.2,1.5,4.1,3,3.6c0.2-0.1-0.2,0,0.2-0.1   s0.9-0.2,1.4-0.3c1.4-0.2,2.9-0.2,4.3,0c4.3,0.6,8.1,3.2,10.2,7.1c1.7,3,2.6,6.7-0.3,9.5c-2.3,2.2-5.6,3.3-8.7,3.9   c-2.1,0.4-4.3,0.7-6.5,0.7c-1.5,0,0.6,4.4,2.1,4.4c2.1,0,4.2-0.2,6.2-0.6c3.4-0.6,7.3-1.7,9.8-4.3c3.4-3.5,2.4-8.3,0.5-12.4   c-2.6-5.5-7-10.7-13.1-12.3c-2.9-0.8-5.9-0.8-8.8,0.1l3,3.6c1.2-7.3-1.9-14.6-8-18.7c-4.4-3.2-9.8-4.7-15.1-5.5   c-1.2-0.2-2.4-0.3-3.6-0.4l2.7,3.7c0.1-3.7-0.5-7.5-1.7-11c-2.4-7.9-7.6-14.6-14.6-19c-4.7-2.7-9.9-4.5-15.3-5.2   c-6.4-1-13-0.9-19.4,0.4c-8,1.7-15.4,5.9-19.3,13.3c-1.2,2.4-2.1,4.9-2.5,7.5c-0.2,0.9-0.3,1.8-0.3,2.7c-0.1,0.5-0.1,1,0,1.5   c0,0.1,0,0.1,0,0.2l0.9-0.6c-4.5-1.2-9.2-1.1-13.6,0.2c-10.3,3-18,12.8-20.5,23c-2.5,10.5,1.2,21.6,9.6,28.4   c2.6,2.2,5.6,3.6,8.9,4.2c1.4,0.2,2.9,0.3,4.3,0.4c12.4,0.8,24.8,0.8,37.2,0.9c15.4,0.1,30.8,0.1,46.1,0.1c5.8,0,11.6,0,17.4-0.1   c2.9,0,5.9,0.1,8.8,0h0.4C215.8,158.9,213.7,154.5,212.1,154.6z"/><path class="st2" d="M130.2,112.4c0,0-7.8-15.1-29.8-6.6"/><path class="st0" d="M132.5,111.7c-3.6-7-12.2-10.4-19.7-10.4c-4.5,0.1-9,1-13.3,2.7c-1,0.4-2,1.4-1.5,2.6c0.7,1.1,2,1.5,3.2,1.1   c3.4-1.4,6.9-2.2,10.6-2.4c2.5-0.1,4.9,0.2,7.2,1c1.8,0.6,3.5,1.6,5,2.8l0.3,0.3l0.3,0.3c0.3,0.3,0.6,0.6,0.9,0.9   c0.5,0.5,0.9,1,1.3,1.5c0.2,0.2,0.3,0.5,0.5,0.7c0.4,0.5-0.2-0.3,0.1,0.2c0.1,0.2,0.2,0.3,0.3,0.5   C128.9,115.4,133.8,114.1,132.5,111.7L132.5,111.7z"/><path class="st2" d="M203.1,150.7c0,0-19.1-18.8-46.3-12.9c-5.8,1.1-11.1,4.1-15.1,8.5c-11.5,12.8,1.9,29.9,22.7,29.9l235.9-0.3   c17.1,0,24.6-16.2,10.9-23.7c-16.3-8.9-37.4-1.4-37.4-1.4s36.8-39.1-6.7-79.3s-107-1.6-100.3,40.2   C266.8,111.6,197.3,80.6,203.1,150.7z"/><path class="st0" d="M204.4,149.4c-4.4-4.1-9.4-7.4-14.8-9.8c-11.2-5.2-24.3-6.8-36.3-3.4c-10.4,3-20.6,12.5-17.4,24.2   c3.1,10.9,15.3,16.9,25.9,17.7c5.4,0.4,10.9,0.1,16.3,0.1l34.8-0.1l47.7-0.1l51.9-0.1l46.5-0.1h32.4c6.9,0,14.6,0.8,20.9-2.6   c4-2.2,7.3-5.7,8.1-10.3s-1.3-9.2-4.8-12.3c-5-4.4-12-6.4-18.5-7.1c-5.7-0.5-11.4-0.2-17,0.9c-2.5,0.5-5,1.1-7.5,1.9l3,3.9   c5.4-6,9.5-13.1,12-20.8c2.5-7.1,3.4-14.6,2.8-22.1c-1.1-9.5-4.6-18.5-10.1-26.2c-11.6-16.6-29.6-29.2-50.1-30.9   c-16.6-1.3-33.1,3.9-46.1,14.3c-11.8,9.5-20.1,23.6-19.9,39c0,1.8,0.2,3.6,0.5,5.4l2.5-1.7c-2.3-1-4.6-1.9-7-2.6   c-5.5-1.9-11.2-3.2-17-3.9c-6.7-1-13.6-0.6-20.1,1.1c-6.8,1.9-12.6,6.3-16.4,12.3c-5.3,8.5-6.2,19.1-5.9,28.9c0,1.7,0.2,3.3,0.3,5   c0.2,2.5,4.6,3.8,4.4,0.7c-0.8-9.9-0.5-20.6,4-29.5c1.5-3.1,3.7-5.8,6.3-8c1.1-1,2.4-1.8,3.7-2.6c1.4-0.8,2.8-1.5,4.3-2   c1.4-0.5,2.8-0.9,4.3-1.2c1.6-0.3,3.2-0.5,4.8-0.7c1.6-0.1,3.2-0.2,4.8-0.1h0.6c0.2,0-0.1,0-0.1,0h0.4h1.2c0.8,0,1.6,0.1,2.4,0.2   c3,0.3,6,0.8,9,1.4c1.4,0.3,2.7,0.6,4.1,1l0.9,0.2l0.5,0.1c-0.4-0.1-0.2-0.1,0.1,0l1.8,0.5c2.8,0.9,5.5,1.9,8.2,3h0.1   c0.8,0.5,1.8,0.3,2.3-0.5c0.2-0.3,0.3-0.6,0.3-1c-2.2-14.2,4.1-28,14.2-37.8c11.2-10.8,26-17,41.5-17.4c8.3-0.2,16.4,1.4,24,4.8   c9.1,4,16.9,10.4,23.4,17.8c6.2,7,11.1,15.4,13,24.6c1.4,7.1,1.2,14.5-0.7,21.6c-1.5,5.5-3.8,10.8-6.8,15.7c-0.6,1-1.2,1.9-1.8,2.8   c-0.3,0.4-0.5,0.8-0.8,1.2l-0.4,0.5c0.3-0.4-0.1,0.1-0.2,0.3c-0.7,0.9-1.4,1.8-2.1,2.6c-0.1,0.1-0.2,0.2-0.3,0.3   c-1.7,1.8,1,4.6,3,3.9c7.6-2.6,15.7-3.4,23.6-2.5c5.4,0.7,11.9,2.4,15.5,6.6c0.5,0.6,0.9,1.2,1.2,1.9c0.4,0.8,0.6,1.7,0.6,2.6   c0,1.7-0.4,3.3-1.3,4.8c-4.4,7.8-14,7.3-21.7,7.3h-28.2l-43,0.1l-49.9,0.1l-48.3,0.1l-38.3,0.1h-20.4c-4.9,0.1-9.8-0.8-14.3-2.7   c-4.1-1.9-7.9-4.9-9.7-8.7c-1.8-3.7-1.7-8.2,0.5-11.7c2.9-5,8.2-8.4,13.6-10.1c6.2-1.9,12.8-2.3,19.2-1.4   c8.9,1.3,17.3,4.8,24.4,10.2c0.5,0.4,1.1,0.8,1.6,1.2l0.5,0.4c0.6,0.5-0.3-0.3,0.1,0.1s0.6,0.5,0.9,0.8c0.8,0.8,2.2,1.4,3.1,0.5   S205.2,150.1,204.4,149.4z"/></g></svg>